<svg version="1.1" xmlns="http://www.w3.org/2000/svg" xmlns:xlink="http://www.w3.org/1999/xlink" st="" width="2448" height="3264" viewBox="0 0 2448 3264" nd="">
<style type="text/css">
	.st0{fill:#FFFFFF;}
	.st1{fill:none;stroke:#000000;stroke-width:3;stroke-miterlimit:10;}
	.st2{fill:none;stroke:#000000;stroke-width:2;stroke-miterlimit:10;}
	.st3{fill:none;stroke:#000000;stroke-width:3;stroke-linecap:round;stroke-miterlimit:10;}
</style>
<g >
		<g id="Back_1_">
			<g>
				<line class="st0" x1="550.9" y1="1890" x2="550.4" y2="2047.3"/>
				<polygon points="550.9,1890 551.9,2047.3 548.9,2047.3 				"/>
			</g>
			<g>
				<path d="M549.8,2044.7c0,0,1.8,1.2,5.1,3.2c1.6,1,3.5,2.4,5.9,3.6c2.3,1.2,4.9,2.7,7.8,4.2c1.5,0.7,3,1.4,4.6,2.1
					c0.8,0.4,1.6,0.7,2.4,1.1c0.8,0.4,1.7,0.8,2.5,1.1c1.7,0.7,3.5,1.4,5.4,2.1c0.9,0.4,1.8,0.7,2.8,1.1c0.9,0.3,1.9,0.6,2.9,0.9
					c1.9,0.6,3.9,1.2,5.9,1.9c2,0.6,4.1,1.1,6.1,1.6c4.1,1.2,8.4,1.9,12.7,2.8c2.1,0.4,4.3,0.7,6.4,1c1.1,0.2,2.1,0.3,3.2,0.5
					c1.1,0.1,2.1,0.2,3.2,0.4c2.1,0.2,4.2,0.5,6.3,0.7c2.1,0.1,4.2,0.3,6.2,0.4c2,0.2,4,0.2,6,0.2c2,0,3.9,0.1,5.8,0.1
					c1.9,0,3.7-0.1,5.5-0.1c1.8,0,3.5-0.2,5.1-0.2c3.3-0.1,6.2-0.5,8.9-0.7c2.6-0.3,4.9-0.7,6.8-0.9c1.9-0.3,3.4-0.6,4.4-0.8
					c1-0.2,1.5-0.3,1.5-0.3s-0.5,0.1-1.5,0.3c-1,0.2-2.5,0.5-4.3,0.9c-1.9,0.3-4.2,0.7-6.8,1c-2.6,0.3-5.6,0.7-8.9,0.9
					c-1.6,0.1-3.3,0.3-5.1,0.4c-1.8,0.1-3.6,0.1-5.5,0.2c-1.9,0.1-3.8,0-5.8,0c-2,0-4,0-6-0.1c-2-0.1-4.1-0.2-6.2-0.3
					c-2.1-0.2-4.2-0.4-6.4-0.5c-1.1-0.1-2.2-0.2-3.2-0.3c-1.1-0.1-2.2-0.3-3.2-0.4c-2.2-0.3-4.3-0.5-6.5-0.9
					c-4.3-0.8-8.6-1.5-12.8-2.5c-2.1-0.5-4.2-0.9-6.2-1.5c-2-0.6-4-1.2-6-1.8c-1-0.3-2-0.6-2.9-0.9c-1-0.3-1.9-0.7-2.8-1
					c-1.9-0.7-3.7-1.3-5.5-2c-0.9-0.3-1.8-0.7-2.6-1c-0.8-0.4-1.7-0.7-2.5-1.1c-1.6-0.7-3.2-1.4-4.7-2c-3-1.4-5.7-2.9-8.1-4.1
					c-2.5-1.2-4.3-2.5-6-3.5c-3.3-2-5.1-3.1-5.1-3.1L549.8,2044.7z"/>
			</g>
			<g>
				<path d="M550.7,2048.3c0,0-2.2,1.1-6,2.9c-1.9,0.9-4.3,1.9-7,3.1c-1.4,0.5-2.8,1.1-4.4,1.7c-0.8,0.3-1.6,0.6-2.4,0.9
					c-0.8,0.3-1.7,0.6-2.5,0.9c-3.4,1.2-7.2,2.4-11.2,3.5c-4,1.1-8.3,2.1-12.8,2.9c-1.1,0.2-2.2,0.4-3.4,0.6
					c-1.1,0.2-2.3,0.3-3.5,0.5c-2.3,0.3-4.7,0.5-7,0.7c-4.8,0.3-9.6,0.5-14.4,0.4c-2.4,0-4.8-0.2-7.2-0.3c-2.4-0.2-4.8-0.4-7.1-0.7
					c-4.7-0.6-9.3-1.4-13.8-2.3c-8.9-1.8-17-4.2-23.8-6.4c-6.9-2.2-12.6-4.1-16.6-5.3c-2-0.6-3.6-1.1-4.7-1.3
					c-1.1-0.3-1.7-0.4-1.7-0.4s0.6,0.1,1.7,0.4c1.1,0.2,2.7,0.7,4.7,1.2c4.1,1.1,9.8,2.9,16.7,5c6.9,2.1,15,4.3,23.9,5.9
					c4.4,0.8,9,1.5,13.7,2c2.3,0.3,4.7,0.4,7.1,0.6c2.4,0.1,4.8,0.2,7.2,0.2c4.8,0.1,9.6-0.2,14.3-0.7c2.3-0.3,4.7-0.5,6.9-0.9
					c1.1-0.2,2.3-0.3,3.4-0.5c1.1-0.2,2.2-0.4,3.3-0.6c4.4-0.8,8.6-1.9,12.5-3.1c3.9-1.2,7.6-2.4,11-3.7c0.8-0.3,1.7-0.6,2.5-0.9
					c0.8-0.3,1.6-0.6,2.3-1c1.5-0.6,2.9-1.2,4.3-1.8c2.6-1.2,4.9-2.2,6.8-3.2c3.8-1.9,5.9-3,5.9-3L550.7,2048.3z"/>
			</g>
			<g>
				<path d="M371.1,2423.1c0,0,1.9,0.1,5.3,0.2c3.4,0.1,8.1,0.4,13.9,0.8c2.9,0.2,6,0.4,9.3,0.7c3.3,0.3,6.8,0.5,10.3,0.9
					c3.6,0.3,7.3,0.7,11,1.1c3.8,0.4,7.6,0.9,11.4,1.3c3.8,0.5,7.6,1,11.4,1.5c3.7,0.5,7.4,1.1,11,1.7c3.6,0.6,7,1.2,10.2,1.8
					c3.3,0.6,6.3,1.3,9.1,1.8c5.6,1.2,10.3,2.4,13.5,3.3c3.2,0.9,5.1,1.5,5.1,1.5s-1.9-0.3-5.2-0.9c-1.7-0.3-3.7-0.6-6-1
					c-2.3-0.4-4.9-0.8-7.7-1.2c-2.8-0.4-5.9-0.9-9.2-1.3c-3.3-0.4-6.7-0.9-10.3-1.4c-3.6-0.5-7.2-0.9-11-1.4
					c-3.7-0.5-7.5-1-11.3-1.4c-7.6-0.9-15.2-1.9-22.3-2.7c-7.1-0.9-13.8-1.7-19.5-2.5c-5.7-0.7-10.5-1.4-13.8-1.9
					C373,2423.3,371.1,2423.1,371.1,2423.1z"/>
			</g>
			<g>
				<path d="M596.1,2442.5c0,0,0.4,0,1.2,0c0.4,0,0.9,0,1.4,0c0.6,0,1.2,0,1.9-0.1c1.5-0.1,3.2-0.2,5.2-0.4c2-0.2,4.3-0.5,6.7-0.9
					c2.5-0.4,5.1-0.9,7.9-1.5c2.8-0.6,5.7-1.2,8.8-1.9c3-0.7,6.2-1.5,9.4-2.2c3.2-0.8,6.4-1.6,9.7-2.4c3.2-0.8,6.5-1.6,9.7-2.3
					c3.2-0.8,6.4-1.5,9.4-2.2c3.1-0.7,6-1.3,8.9-1.8c2.8-0.5,5.5-1,8-1.3c2.5-0.4,4.8-0.6,6.8-0.8c2-0.2,3.8-0.3,5.3-0.3
					c1.5,0,2.6,0,3.4,0c0.8,0,1.2,0.1,1.2,0.1s-0.4,0-1.2,0.1c-0.8,0.1-1.9,0.2-3.4,0.4c-1.4,0.2-3.2,0.5-5.2,0.8
					c-2,0.4-4.2,0.8-6.7,1.4c-2.4,0.5-5.1,1.2-7.8,1.8c-2.8,0.7-5.7,1.4-8.7,2.2c-3,0.8-6.2,1.6-9.3,2.4c-3.2,0.8-6.4,1.6-9.7,2.4
					c-3.3,0.8-6.5,1.5-9.7,2.3c-3.2,0.7-6.4,1.4-9.5,2c-3.1,0.6-6.1,1.1-8.9,1.5c-2.9,0.4-5.6,0.7-8.1,1c-2.5,0.2-4.8,0.3-6.9,0.4
					c-2.1,0-3.8,0-5.3-0.1c-1.5-0.1-2.6-0.3-3.4-0.4C596.5,2442.6,596.1,2442.5,596.1,2442.5z"/>
			</g>
			<g>
				<path d="M374.2,983.1c0,4.9,0.1,9.8,0.3,14.7c0.2,4.9,0.5,9.8,0.9,14.7c0.4,4.9,0.8,9.8,1.3,14.6c0.5,4.9,1,9.7,1.5,14.6
					l3.3,29.2l1.7,14.6l1.6,14.6l1.6,14.6l1.5,14.7c0.5,4.9,0.9,9.8,1.2,14.7c0.4,4.9,0.7,9.8,1,14.7c0.3,4.9,0.6,9.8,0.7,14.7
					c0.2,4.9,0.3,9.8,0.2,14.7c-0.1,4.9-0.3,9.8-1,14.8c-0.4,2.5-0.9,4.9-1.8,7.3c-0.5,1.2-1,2.4-1.8,3.4c-0.8,1.1-1.8,2.1-3.1,2.7
					l-0.1,0.1l-0.2,0c-2,0.2-4,0.5-5.9,0.6l-3,0.2c-1,0.1-2,0.1-3,0.1c-2,0-4,0-6-0.1c-2-0.1-4-0.3-6-0.6c-2-0.3-4-0.7-5.9-1.3
					c-1.9-0.6-3.9-1.3-5.7-2.1c-1.8-0.8-3.6-1.8-5.3-2.6c-1.8-0.8-3.6-1.3-5.6-1.5v-0.3c1-0.1,2-0.1,3,0.1c1,0.1,2,0.4,3,0.7
					c1.9,0.6,3.8,1.4,5.6,2.1c1.8,0.7,3.7,1.2,5.6,1.6c1.9,0.4,3.8,0.7,5.7,0.9c1,0.1,1.9,0.2,2.9,0.3c1,0.1,1.9,0.1,2.9,0.2
					c1.9,0.1,3.9,0.1,5.9,0.1c2,0,3.9,0,5.9-0.1c2,0,3.9-0.1,5.9-0.2l-0.3,0.1c1.9-0.8,3.3-2.9,4.2-5c0.9-2.2,1.5-4.5,2-6.9
					c0.5-2.4,0.8-4.8,1-7.2c0.2-2.4,0.4-4.9,0.4-7.3c0.1-4.9,0-9.8-0.2-14.7c-0.2-4.9-0.6-9.8-1.1-14.7c-0.5-4.9-1-9.8-1.5-14.6
					l-1.8-14.6l-3.6-29.2l-1.8-14.6c-0.6-4.9-1.2-9.7-1.7-14.6c-0.6-4.9-1.1-9.8-1.6-14.6c-0.5-4.9-1-9.8-1.4-14.7
					c-0.4-4.9-0.8-9.8-1.1-14.7c-0.3-4.9-0.6-9.8-0.8-14.7c-0.2-4.9-0.3-9.8-0.2-14.7c0.1-4.9,0.2-9.8,0.6-14.7L374.2,983.1z"/>
			</g>
			<g>
				<path d="M702.7,986.1c0.5,4.9,0.9,9.8,1.3,14.8c0.4,4.9,0.7,9.8,0.9,14.8c0.3,4.9,0.5,9.9,0.6,14.8c0.2,4.9,0.3,9.9,0.3,14.8
					c0.1,4.9,0,9.9,0,14.8c-0.1,4.9-0.2,9.9-0.5,14.8c-0.2,4.9-0.6,9.9-0.9,14.8c-0.4,4.9-0.8,9.9-1.4,14.8
					c-0.5,4.9-1.2,9.8-1.9,14.7c-0.7,4.9-1.5,9.8-2.4,14.6l-2.7,14.6c-0.9,4.8-1.7,9.7-2.1,14.6c-0.5,4.9-0.6,9.8-0.2,14.7
					c0.4,4.9,1.3,9.7,2.6,14.5c1.3,4.7,2.9,9.4,4.7,13.9c1.8,4.6,3.8,9.1,5.8,13.5l-0.1,1.2c0.1-0.2,0.1-0.2,0.1-0.1
					c0,0.1,0,0.2,0.1,0.3c0.1,0.3,0.3,0.6,0.4,0.9c0.4,0.6,0.8,1.2,1.3,1.8c1,1.1,2.2,2.2,3.5,3.1c1.3,0.9,2.7,1.7,4.1,2.3
					c1.5,0.6,3,1.1,4.5,1.5c1.6,0.3,3.2,0.6,4.8,0.6c1.6,0.1,3.2,0,4.9-0.2c1.6-0.2,3.2-0.5,4.8-0.9c1.6-0.4,3.2-0.9,4.8-1.5
					l0.1,0.3c-0.7,0.4-1.5,0.8-2.2,1.2c-0.8,0.4-1.5,0.7-2.3,1c-1.6,0.6-3.2,1.2-4.9,1.5c-3.3,0.7-6.9,0.9-10.3,0.3
					c-3.4-0.6-6.8-1.9-9.7-3.9c-1.5-1-2.8-2.1-4-3.5c-0.6-0.7-1.2-1.4-1.6-2.2c-0.2-0.4-0.4-0.9-0.6-1.4c-0.1-0.3-0.2-0.6-0.2-0.9
					c0-0.3,0-0.8,0.3-1.4l-0.1,1.2c-1.9-4.6-3.7-9.2-5.3-13.9c-1.6-4.7-3-9.5-4.1-14.3c-0.5-2.4-1-4.9-1.4-7.3
					c-0.4-2.5-0.7-4.9-0.8-7.4c-0.4-4.9-0.3-9.9,0.1-14.9c0.4-4.9,1-9.8,1.7-14.7l2.1-14.6c0.7-4.9,1.3-9.8,1.9-14.6
					c0.6-4.9,1.1-9.8,1.6-14.7c0.9-9.8,1.5-19.6,1.9-29.4c0.2-4.9,0.4-9.8,0.5-14.7c0.2-4.9,0.2-9.8,0.3-14.8
					c0.1-4.9,0.1-9.8,0.1-14.8l-0.1-14.8c0-4.9-0.1-9.9-0.2-14.8l-0.3-14.8L702.7,986.1z"/>
			</g>
			<g>
				<path d="M533.2,1287.1c0,0,0,5.5,0,15.1c0,1.2,0,2.5,0,3.8c0,1.3,0.1,2.7,0.1,4.2c0.1,2.9,0.2,6,0.3,9.4
					c0.1,6.7,0.6,14.2,0.9,22.5c0.2,4.1,0.5,8.4,0.7,12.8c0.3,4.4,0.5,9,0.9,13.7c0.7,9.4,1.4,19.3,2.2,29.6
					c1.6,20.5,3.6,42.4,5.4,64.3c0.9,11,1.8,21.9,2.7,32.7c0.4,5.4,0.8,10.7,1.2,16c0.4,5.3,0.7,10.5,1,15.7
					c0.3,5.1,0.6,10.2,0.9,15.1c0.3,5,0.5,9.8,0.7,14.5c0.5,9.4,0.7,18.4,0.9,26.6c0.1,2.1,0.1,4.1,0.2,6c0,2,0,3.9,0.1,5.8
					c0,3.8,0.1,7.3,0.1,10.7c0,3.3,0.1,6.5,0,9.4c0,2.9-0.1,5.6-0.1,8c-0.2,9.6-0.3,15.1-0.3,15.1l-0.2,0c0,0-0.1-5.5-0.2-15.1
					c0-2.4-0.1-5.1-0.1-8c0-2.9-0.2-6-0.3-9.4c-0.2-6.7-0.4-14.2-0.7-22.5c-0.3-8.2-0.7-17.1-1.2-26.6c-0.2-4.7-0.5-9.6-0.8-14.5
					c-0.3-4.9-0.6-10-0.9-15.1c-0.3-5.1-0.7-10.4-1-15.6c-0.4-5.3-0.7-10.6-1.1-16c-0.8-10.8-1.6-21.7-2.4-32.7
					c-1.7-21.9-3.5-43.8-5-64.4c-0.8-10.3-1.4-20.2-2-29.6c-0.3-4.7-0.5-9.3-0.7-13.7c-0.2-4.4-0.5-8.7-0.6-12.8
					c-0.3-8.2-0.7-15.8-0.7-22.5c-0.1-3.3-0.1-6.5-0.2-9.4c0-1.4,0-2.8-0.1-4.2c0-1.3,0-2.6,0-3.8c0.1-9.6,0.1-15.1,0.1-15.1
					L533.2,1287.1z"/>
			</g>
			<path class="st1" d="M1045.6,1813c-1,48-8.5,31.5-9,58c0,55-0.5,67.5-3.5,83s-6,27-10,41c-1,13.5-0.5,32-4.5,42.5
				c-7,6-25.5,28.5-30,34c-5.5,1.5-8.5,1-8.5,1s-24.5,16-32.5,23c-15,3-15-12.5-15-12.5s-4.5,4.5-8.5,1.5c-9.5-11,2.5-24,7-27
				c6.5-3.5,12.5-6.5,17-11c10-10.5,20-18,21.5-23c2.5-12,5-21.5,6.5-27.5c0-9,0-17.5-0.5-23c-8.5-18-14-37.5-14-37.5s-3,9.5-6,17
				c-3.8,16.1-6,21.5-11,27c-19.5,13-23.5,0.5-26-9c-1.5-10,11-34.5,7-60c-4.5-39.4,10.3-53.8,26-72.5c1.4-1.6,2,3,3-11"/>
			<path class="st1" d="M550,2049c4,66-11.5,202-4.9,287.1c1.4,17.9-1.1,55.4-3,103.5C506,2542,531.5,2614,534.6,2669
				c0.4,47-24.1,166.5-22.5,199.5c6.4,30.5,15.6,39.5,18,60s4.1,6,3,33c-1.1,27-0.4,53-3,73.5c-2.6,20.5-3.1,56-3.1,56"/>
			<path class="st1" d="M550.5,2049.5c0,0-1,182.5,0.5,198.5s-3.5,43.5-7,147.5c-0.5,25.5-2.5,40-1.5,57.5s10,46,10.5,59.5
				c-2.5,34.5-20,137-20,137"/>
			<path class="st1" d="M533,2696c4.5,46,14.5,142,13.5,159s-9,35-19.5,56.5"/>
			<g>
				<path d="M398.5,2918.3c0.1,0.6,0.2,1.2,0.3,1.8l0.3,1.8l0.7,3.6c0.5,2.4,0.9,4.9,1.3,7.4c0.4,2.5,0.8,5,1,7.5
					c0.1,1.3,0.2,2.5,0.2,3.8l0,1.9l-0.1,1.9l0,0.1l0,0.1c-1.2,6.5-2.2,13.1-2.9,19.7c-0.2,1.6-0.3,3.3-0.4,5
					c-0.1,1.7-0.2,3.3-0.3,5c-0.1,3.3-0.2,6.6,0,9.9c0.1,1.7,0.2,3.3,0.3,5c0.1,1.6,0.3,3.3,0.6,4.9c0.2,1.6,0.5,3.3,0.9,4.9
					c0.4,1.6,0.8,3.2,1.2,4.8c0.5,1.6,1,3.2,1.6,4.7c0.6,1.6,1.2,3.1,1.9,4.6c0.7,1.5,1.4,3,2.2,4.5c0.8,1.5,1.6,2.9,2.5,4.3l0,0
					l0,0c0.1,0.6,0.2,1.3,0.2,1.9c0.1,0.7,0.1,1.3,0.2,2c0.1,1.3,0.1,2.6,0,3.9c0,1.3-0.2,2.6-0.3,3.9c-0.2,1.3-0.4,2.6-0.8,3.8
					c0.3-1.3,0.5-2.5,0.7-3.8c0.1-1.3,0.2-2.6,0.2-3.9c0-1.3,0-2.6-0.1-3.9c0-0.6-0.1-1.3-0.2-1.9c-0.1-0.6-0.2-1.3-0.3-1.9l0,0.1
					c-0.9-1.4-1.8-2.8-2.6-4.3c-0.8-1.4-1.6-2.9-2.3-4.4c-0.7-1.5-1.4-3-2-4.6c-0.6-1.6-1.2-3.1-1.7-4.7c-0.5-1.6-1-3.2-1.4-4.8
					c-0.4-1.6-0.7-3.3-1-4.9c-0.3-1.7-0.5-3.3-0.7-5c-0.2-1.7-0.3-3.3-0.4-5c-0.2-3.3-0.3-6.7-0.2-10.1c0-1.7,0.1-3.3,0.2-5
					c0.1-1.7,0.2-3.3,0.3-5c0.5-6.7,1.4-13.3,2.4-19.9l0,0.1l0-1.8l0-1.8c-0.1-1.2-0.1-2.4-0.3-3.6c-0.3-2.4-0.6-4.9-1.1-7.3
					c-0.5-2.4-1-4.8-1.5-7.3l-0.8-3.7l-0.4-1.9c-0.1-0.6-0.2-1.2-0.3-1.9L398.5,2918.3z"/>
			</g>
			<path class="st2" d="M516,2882c9.3,2.7,12.6,8.4,18,13"/>
			<g>
				<path d="M663.4,2895.5c0,0-0.2,0.4-0.5,1.3c-0.3,0.8-0.8,2.1-1.4,3.7c-1.2,3.1-3.1,7.5-4.9,12.8c-1.8,5.4-3.3,11.8-3.6,18.8
					c-0.1,3.5,0,7.2,0.3,10.9c0.2,3.7,0.6,7.5,0.9,11.4c0.3,3.8,0.5,7.6,0.7,11.4c0.1,3.8,0.2,7.5,0,11.1c-0.1,3.6-0.4,7.1-0.8,10.3
					c-0.3,1.6-0.5,3.2-0.8,4.8c-0.4,1.5-0.8,2.9-1.3,4.3c-1,2.7-2,5.1-3.2,7.1c-1.2,2-2.4,3.6-3.6,4.9c-1.1,1.2-2.2,2.1-2.9,2.6
					c-0.7,0.5-1.2,0.7-1.2,0.7s0.4-0.2,1.2-0.7c0.7-0.5,1.7-1.4,2.8-2.6c1.1-1.2,2.3-2.9,3.4-4.9c1.1-2,2.1-4.5,3-7.2
					c0.5-1.3,0.8-2.8,1.2-4.3c0.3-1.5,0.5-3.1,0.7-4.7c0.3-3.3,0.6-6.7,0.6-10.3c0.1-3.6-0.1-7.2-0.3-11c-0.3-3.7-0.6-7.5-1-11.3
					c-0.4-3.8-0.8-7.6-1.1-11.3c-0.3-3.7-0.6-7.5-0.5-11.1c0-3.6,0.5-7.1,1-10.4c0.6-3.3,1.4-6.3,2.2-9.1c1.7-5.5,3.5-10,4.7-13.1
					c0.6-1.6,1-2.7,1.3-3.6c0.3-0.8,0.4-1.3,0.4-1.3L663.4,2895.5z"/>
			</g>
			<g>
				<path d="M534,2965.3c0,0-0.2,0.9-0.5,2.6c-0.1,0.4-0.2,0.9-0.3,1.4c-0.1,0.5-0.3,1-0.4,1.6c-0.3,1.2-0.6,2.5-1.1,3.9
					c-0.4,1.4-0.9,2.9-1.4,4.5c-0.6,1.6-1.1,3.2-1.7,4.9c-1.2,3.4-2.7,7-4.1,10.5c-1.5,3.6-3,7.1-4.5,10.4c-1.5,3.3-2.9,6.3-4.1,8.9
					c-2.5,5.2-4.2,8.6-4.2,8.6s1.6-3.5,3.8-8.8c1.1-2.7,2.4-5.8,3.7-9.1c1.3-3.3,2.7-6.9,4-10.5c1.3-3.6,2.5-7.2,3.6-10.6
					c0.6-1.7,1-3.4,1.5-4.9c0.5-1.6,0.8-3.1,1.2-4.5c0.4-1.4,0.6-2.6,0.9-3.8c0.1-0.6,0.2-1.1,0.3-1.6c0.1-0.5,0.2-1,0.2-1.4
					c0.3-1.7,0.4-2.6,0.4-2.6L534,2965.3z"/>
			</g>
			<g>
				<path d="M587.1,2962.5c-0.5,5.9-0.7,11.8-0.8,17.8c0,3,0,5.9,0,8.9l0.1,4.4c0,1.5,0.1,3,0.1,4.4c0.1,1.5,0.1,3,0.2,4.4l0.2,4.4
					c0.1,1.5,0.2,2.9,0.3,4.4c0.1,1.5,0.2,2.9,0.4,4.4l0.4,4.4l0.6,4.4c0.2,1.5,0.4,2.9,0.6,4.4l0.7,4.4l0-0.2l6.2,19.4l3.1,9.7
					c0.5,1.6,1,3.2,1.5,4.9c0.5,1.6,1,3.3,1.5,4.9l-0.3,0.1c-0.8-1.5-1.5-3.1-2.2-4.6c-0.7-1.5-1.4-3.1-2.1-4.7
					c-1.4-3.1-2.7-6.3-3.9-9.5c-1.2-3.2-2.4-6.4-3.5-9.6c-0.6-1.6-1.1-3.2-1.6-4.9c-0.5-1.6-1-3.3-1.4-4.9l0-0.1l0-0.1l-0.5-4.4
					l-0.3-2.2l-0.2-2.2l-0.4-4.5l-0.3-4.5c-0.1-1.5-0.2-3-0.2-4.5c-0.1-1.5-0.1-3-0.2-4.5l-0.1-4.5c0-1.5,0-3,0-4.5c0-1.5,0-3,0-4.5
					c0-1.5,0-3,0.1-4.5c0.1-3,0.2-5.9,0.4-8.9c0.4-5.9,0.8-11.9,1.6-17.8L587.1,2962.5z"/>
			</g>
			<g>
				<path d="M445.1,3038.5c0,0-0.2,4.2-0.5,10.5c-0.3,6.3-0.9,14.7-1.6,23.1c-0.2,2.1-0.4,4.2-0.6,6.3c-0.1,1-0.2,2.1-0.3,3.1
					c-0.1,1-0.3,2-0.5,3c-0.1,0.5-0.2,1-0.4,1.6l-0.2,0.8c-0.1,0.3-0.2,0.5-0.3,0.7c-0.4,0.9-0.8,1.7-1.2,2.5
					c-0.8,1.6-1.5,3.2-2.2,4.6c-2.8,5.7-5.1,9.3-5.1,9.3l-0.3-0.1c0,0,1-4.1,3.2-10.1c0.5-1.5,1.1-3.1,1.8-4.8
					c0.3-0.8,0.7-1.7,1-2.6c0.2-0.5,0.3-0.8,0.4-1.2c0.1-0.4,0.2-0.8,0.3-1.3c0.2-0.9,0.4-1.9,0.6-2.9c0.2-1,0.4-2,0.5-3
					c0.4-2,0.7-4.1,1-6.2c0.6-4.2,1.1-8.3,1.6-12.3c0.5-3.9,0.9-7.6,1.3-10.7c0.8-6.3,1.3-10.5,1.3-10.5L445.1,3038.5z"/>
			</g>
			<path class="st1" d="M687,709.5C660,725,671,795,671,795l5,40c32,34,91,80,134,91c43,15,64,19,95,67c14.6,27.3,39,49,36,184
				c24,105,31.9,208,31.9,208s21.2,48.8,43.1,107c0,0,29.5,90.5,29.5,323.5"/>
			<path class="st1" d="M954,1829c-1-33-113-271-116-408c-11-96-12-139-12-139s-12,38-20,54c-8,30-19,127-26,158c3,40,9,106,11,180
				s5,177,7,214s2,128-18,197c-15,71-43,220-51,340c-4,116,30,184-67,470c14,0,27-4,32,17c11,3,24,0,15,32c0,15,12,35-35,75
				c-11,21-20.1,71.2-45,95c-27,18-77,36-102-23c-3,13-6,65-67,58c-6-2-78,8-65-133c-8-25-14-29-14-47c7-20,0-47,16-50
				c0-38-89-221-50-499c5-113-9-159-24-247c0,0-34-211-25-359c7-39,8-49,18-155c-8-49-14-96-15-141c-9-66-35-179-35-179s1,79,0,103
				s3,42,0,64s-42,204-75,314c1,14,1.6,9.4,3,11c15.7,18.7,30.5,33.1,26,72.5c-4,25.5,8.5,50,7,60c-2.5,9.5-6.5,22-26,9
				c-5-5.5-7.2-10.9-11-27c-3-7.5-6-17-6-17s-5.5,19.5-14,37.5c-0.5,5.5-0.5,14-0.5,23c1.5,6,4,15.5,6.5,27.5
				c1.5,5,11.5,12.5,21.5,23c4.5,4.5,10.5,7.5,17,11c4.5,3,16.5,16,7,27c-4,3-8.5-1.5-8.5-1.5s0,15.5-15,12.5c-8-7-32.5-23-32.5-23
				s-3,0.5-8.5-1c-4.5-5.5-23-28-30-34c-4-10.5-3.5-29-4.5-42.5c-4-14-7-25.5-10-41s-3.5-28-3.5-83c-0.5-26.5-8-10-9-58
				c-19-355.5-5.8-270.2,27-423c0,0-7-137,8-207c-6-59-17-99,23-193c19-23,26-56,89-66c63-15,174.5-67.5,180-114
				c2-31.5,8.5-80-15.5-98.5"/>
			<path class="st3" d="M687.4,708.8c23.3-23.3,34.9-90.7,39.6-87c12.2,45.3,45.3,21.8,43.6-17.4c-1.7-40.1,10.9-88.5-1.7-120.3
				c-22.2-19.3-21,7.4-22.7,7c-0.4-31.5-0.8-58.2-1-73.9c-0.1-10.7-1.8-21.4-5.1-31.6c-80.7-251-359.9-158.6-377.5,1.3
				c-0.6,5.2-0.7,10.5-0.6,15.8c1,50.8,2.2,71.6,2.2,91.8c-5.2-29.6-15.7-29.6-24.4-12.2c-1.7,69.8-3.5,85.5-1.7,106.4
				c1.7,80.2,31.4,40.1,40.1,43.6c7,19.2,4.8,49,33.1,71.5"/>
			<g>
				<path d="M129.8,1473.1c0,1,0.1,2,0.2,3c0.1,1,0.2,2,0.3,3c0.1,1,0.3,2,0.4,2.9l0.3,1.4c0.1,0.5,0.2,1,0.3,1.4
					c0.1,0.5,0.2,0.9,0.4,1.4c0.2,0.5,0.3,0.9,0.4,1.4l0.5,1.3c0.2,0.4,0.4,0.9,0.6,1.3c0.2,0.4,0.4,0.8,0.7,1.2
					c0.2,0.4,0.5,0.8,0.8,1.1c0.3,0.3,0.5,0.7,0.9,1l1,0.9l-0.1-0.1c1.5,0.8,2.9,1.7,4.4,2.6c1.5,0.8,3,1.6,4.4,2.5
					c0.7,0.4,1.5,0.8,2.3,1.2l2.3,1.1c1.5,0.8,3.1,1.3,4.7,1.9c0.8,0.3,1.6,0.6,2.4,0.8c0.8,0.2,1.6,0.5,2.5,0.7
					c1.6,0.5,3.3,0.7,5,1c1.7,0.3,3.4,0.5,5.1,0.7c1.7,0.2,3.4,0.3,5.1,0.4l10.2,0.6l5.1,0.3c1.7,0.1,3.4,0.2,5.1,0.3l5.1,0.4
					l5.1,0.5c1.7,0.2,3.4,0.5,5.1,0.7c1.7,0.3,3.4,0.6,5.1,0.9l0.3,0.1l0.2,0.1c1,0.8,2,1.6,3,2.4c0.5,0.4,1,0.8,1.4,1.3
					c0.5,0.5,0.9,0.9,1.4,1.4c0.9,0.9,1.7,1.9,2.4,3c0.7,1.1,1.4,2.2,1.8,3.4l-0.3,0.1c-0.3-0.5-0.7-1-1-1.5
					c-0.4-0.5-0.8-0.9-1.2-1.4c-0.4-0.4-0.9-0.9-1.3-1.3c-0.5-0.4-0.9-0.8-1.4-1.2c-0.9-0.8-1.9-1.5-2.9-2.2c-1-0.7-2.1-1.3-3.1-2
					l0.5,0.2c-1.7-0.2-3.4-0.3-5.1-0.5l-5.1-0.4l-10.2-0.8c-3.4-0.3-6.8-0.6-10.2-0.9l-5.1-0.6c-1.7-0.2-3.4-0.5-5.1-0.8
					c-1.7-0.3-3.4-0.6-5.1-1c-1.7-0.4-3.4-0.7-5-1.1l-2.5-0.6c-0.8-0.2-1.7-0.4-2.5-0.6c-1.6-0.5-3.3-0.8-5-1.4l-2.5-0.7l-1.2-0.3
					l-1.2-0.4l-2.5-0.8c-0.8-0.3-1.6-0.5-2.4-0.9c-1.6-0.7-3.2-1.3-4.8-2.1c-1.5-0.8-3-1.7-4.6-2.5l-0.1-0.1l0,0l-1.2-1.2
					c-0.4-0.4-0.7-0.9-1-1.3c-0.4-0.4-0.6-0.9-0.9-1.4c-0.3-0.5-0.5-0.9-0.7-1.4c-0.2-0.5-0.4-1-0.6-1.5l-0.5-1.5
					c-0.2-0.5-0.2-1-0.4-1.5c-0.1-0.5-0.2-1-0.3-1.5c-0.1-0.5-0.2-1-0.2-1.5l-0.1-1.5c0-1-0.1-2-0.1-3.1c0-1,0.1-2,0.2-3
					c0.1-1,0.2-2,0.4-3L129.8,1473.1z"/>
			</g>
			<g>
				<path d="M885.5,1507.5c1.2-0.8,2.4-1.5,3.6-2.2c1.2-0.7,2.5-1.4,3.7-2.1c1.3-0.6,2.5-1.3,3.8-1.9c1.3-0.6,2.6-1.2,4-1.6
					c1.4-0.5,2.8-1,4.5-1.1c1.4-0.1,2.8-0.1,4.2-0.2c1.4-0.1,2.8-0.1,4.2-0.1c1.4,0,2.8,0,4.2,0l16.9-0.1c5.6-0.1,11.2-0.1,16.9-0.1
					l-0.4,0.2L962,1488l0.2,0.2L952,1499l-0.1,0.2l-0.3,0c-5.6,0.4-11.2,0.6-16.9,0.9l-16.9,0.9c-1.4,0.1-2.8,0.2-4.2,0.2
					c-1.4,0.1-2.8,0.2-4.2,0.2c-1.4,0-2.8,0.1-4.2,0.1c-1.1,0-2.4,0.3-3.7,0.7c-1.3,0.4-2.6,0.8-3.9,1.2c-1.3,0.5-2.6,0.9-4,1.4
					l-8,2.8L885.5,1507.5z"/>
			</g>
			<g>
				<path d="M825.2,1276.7c0,0,0.1-0.6,0.3-1.7c0.2-1.1,0.5-2.7,0.9-4.8c0.3-2,0.7-4.5,1.1-7.4c0.2-1.4,0.4-3,0.6-4.6
					c0.2-1.6,0.4-3.3,0.5-5.1c0.7-7.1,1.3-15.4,2.2-24.4c0.4-4.5,1-9.1,1.7-13.8c0.7-4.7,1.8-9.4,3.3-14c0.7-2.3,1.6-4.6,2.7-6.7
					c0.6-1.1,1.3-2.1,1.9-3.1c0.6-1,1.3-2,1.9-3c2.3-4,4.5-8.1,6.4-12.1c1-2,1.9-4,2.8-5.9c0.9-2,1.8-3.9,2.6-5.7
					c1.7-3.8,3.2-7.3,4.6-10.6c2.8-6.6,4.9-12.2,6.4-16.1c1.5-3.9,2.3-6.1,2.3-6.1s-0.8,2.2-2.2,6.2c-1.4,3.9-3.5,9.5-6.1,16.2
					c-1.3,3.3-2.8,6.9-4.4,10.7c-0.8,1.9-1.6,3.8-2.5,5.8c-0.9,2-1.8,4-2.7,6c-1.9,4.1-3.9,8.2-6.2,12.4c-0.6,1-1.2,2-1.8,3.1
					c-0.6,1-1.3,2-1.8,3c-1.1,2.1-1.9,4.2-2.5,6.5c-1.3,4.5-2.3,9.2-2.9,13.8c-0.7,4.6-1.1,9.2-1.5,13.7c-0.7,8.9-1.1,17.3-1.7,24.4
					c-0.1,1.8-0.3,3.5-0.4,5.1c-0.1,1.6-0.3,3.2-0.5,4.6c-0.3,2.9-0.7,5.4-1,7.5c-0.3,2.1-0.6,3.7-0.8,4.8c-0.2,1.1-0.3,1.7-0.3,1.7
					L825.2,1276.7z"/>
			</g>
			<g>
				<path d="M266.5,1348.6l-1.8-10.3l-1.9-10.3c-0.6-3.4-1.3-6.8-2-10.3c-0.7-3.4-1.4-6.8-2.1-10.2c-1.4-6.8-2.9-13.6-4.4-20.5
					l-4.5-20.4c-3-13.6-6.1-27.2-8.9-40.9c-0.7-3.4-1.4-6.8-2-10.3c-0.6-3.4-1.3-6.9-1.9-10.3l-0.9-5.2l-0.8-5.2
					c-0.6-3.4-0.9-6.9-1.3-10.4l0.1,0.2l-2.2-4c-0.7-1.3-1.4-2.7-2.1-4.1c-0.7-1.4-1.3-2.7-1.9-4.1c-0.7-1.4-1.3-2.8-1.9-4.2
					c-0.6-1.4-1.2-2.8-1.8-4.2l-1.7-4.2c-1.1-2.8-2.3-5.6-3.3-8.5c-2.2-5.7-4.2-11.4-6.2-17.1c-2-5.7-3.9-11.5-5.7-17.3
					c1.9,5.8,3.9,11.5,6,17.2c2.1,5.7,4.2,11.4,6.4,17c1.1,2.8,2.3,5.6,3.4,8.4l1.8,4.2c0.6,1.4,1.2,2.8,1.9,4.1
					c0.6,1.4,1.3,2.8,1.9,4.1c0.7,1.4,1.3,2.7,2,4.1c0.7,1.3,1.4,2.7,2.1,4l2.2,3.9l0.1,0.1l0,0.1c0.5,3.4,0.8,6.9,1.4,10.3l0.8,5.2
					l0.9,5.1c0.6,3.4,1.3,6.8,2,10.3c0.7,3.4,1.4,6.8,2.2,10.2c3,13.6,6.2,27.2,9.4,40.8l4.8,20.4c1.6,6.8,3.1,13.6,4.6,20.4
					c0.7,3.4,1.5,6.8,2.2,10.2c0.7,3.4,1.4,6.8,2.1,10.3l2,10.3l1.9,10.3L266.5,1348.6z"/>
			</g>
		</g>
		<g id="Front">
			<g>
				<path class="st3" d="M2013.1,368.6c-80.7-251-359.9-158.6-377.5,1.3c-0.6,5.2-0.7,10.5-0.6,15.8c1,50.8,2.2,71.6,2.2,91.8
					c-5.2-29.6-15.7-29.6-24.4-12.2c-1.7,69.8-3.5,85.5-1.7,106.4c1.7,80.2,31.4,40.1,40.1,43.6c7,19.2,4.8,49,33.1,71.5
					c14.4,35.3,19.1,52.8,20.9,82c-40.2,68.5-108.8,74.3-143,85.5c-43.7,10.9-55.4,27.2-76.7,45.3c-61.2,63.2-32.1,162.1-27.9,204
					c-12.3,44.1,2.8,153.3,7,204c-8.9,41.2-37.8,158.6-7,427.3c-5.4,35.9,17,97.8,24.4,115.1s36.5,82.5,50.6,106.4
					c2.2,42.4,5.7,55.1,17.4,88.9c13.8,26.7,21.6,35.8,28.4,44.7c9.3,12.2,15.7,4.7,15.7,4.7c12.2,75.6,44.2,159.9,60.6,287.2
					c15,144.7-7.1,148.2,68,373.2c20.2,69.1,30.9,82,26.2,108.1c-4.8,26.1-0.1,68-31.4,116.8c-43.1,55.8-50.1,87.2-52.3,116.8
					c4.5,9.9-3.4,22.7,10.5,24.4c15,35.4,29.6,20.9,29.6,20.9c7.1,25.7,24.9,8.7,29.6,8.7c6.9,10.4,7.1-2.3,20.9,10.5
					c47.6,27.9,59.2-5.8,66.3-17.4c8-18.6,5.9-12.8,17.4-43.6c11.5-30.8,26.2-183.1,26.2-183.1l3.5-47.1v95.9
					c-4.2,53.4-3,80.2-12.2,116.8c0,0,10.4,19.2,8.7,62.8c41.2,43.6,66.7,4,66.3,3.5c15.6,7.5,22.6-0.6,27.9,3.5
					c15.6,13.3,28.4-1.8,31.4-5.2c28.4,4.6,23.7-15.1,26.2-20.9c31.3-11.7,19.7-30.3,19.2-50.6c1-51.9-15.8-68-27.9-92.4
					c-6.5-37.2-7.7-57-19.2-82c6.9-19.2,12.7-58.8,5.2-80.2c30.7-78.5,67.9-283.2,54.1-350.5c-0.1-25.6-7.1-65.2-5.2-130.8
					c8.6-64.6,26.1-232,31.4-249.4c23.7,10.4,26.1-32.6,33.1-31.4c13.9,4.6,20.8-74.5,29.6-94.2c13.3-14,36.5-96.6,62.8-170.9
					c43.5-175.7,38.9-285,33.1-362.7c1.1-30.3-2.4-40.8-5.2-57.6c2.8-96,7.5-182.1-5.2-275.5c19.7-197.2-49.9-221.3-68-231.9
					c-21.6-21.1-111.1-17.6-197.1-80.2c-1.3-1.3-3.6-7.1-14-22.7c0,0,3.3-39.8,16.2-71.7c23.3-23.3,34.9-90.7,39.6-87
					c12.2,45.3,45.3,21.8,43.6-17.4c-1.7-40.1,10.9-88.5-1.7-120.3c-22.2-19.3-21,7.4-22.7,7c-0.4-31.5-0.8-58.2-1-73.9
					C2018.1,389.5,2016.4,378.8,2013.1,368.6z"/>
				<g>
					<path d="M1699.9,702.4c1.7,2,3.6,3.9,5.4,5.8c1.8,1.9,3.7,3.8,5.7,5.6c3.8,3.6,7.8,7.1,11.9,10.5c2.1,1.7,4.1,3.3,6.2,4.9
						c2.1,1.6,4.2,3.2,6.4,4.7c2.2,1.5,4.4,3,6.6,4.4l3.4,2.1l3.4,2c1.1,0.7,2.3,1.3,3.4,1.9c1.2,0.6,2.3,1.3,3.5,1.9l3.5,1.8
						l3.6,1.7c1.2,0.6,2.4,1.1,3.6,1.6c1.2,0.5,2.4,1.1,3.6,1.5l3.7,1.4c1.2,0.5,2.5,0.9,3.7,1.3c2.5,0.9,5,1.6,7.5,2.4l3.8,1
						l1.9,0.5l1.9,0.4l3.8,0.8l3.9,0.7l1.9,0.3l2,0.3l3.9,0.5l0,0l0.1,0l3.7,0.6c1.2,0.2,2.5,0.2,3.7,0.4c1.2,0.1,2.5,0.1,3.8,0.2
						c1.3,0,2.5,0.1,3.8,0c1.3-0.1,2.5-0.1,3.8-0.2l3.8-0.4c2.5-0.3,5-0.7,7.5-1.2c2.5-0.4,5-1,7.5-1.6c2.5-0.6,4.9-1.3,7.4-2.1
						c2.5-0.7,4.9-1.6,7.3-2.4c2.4-0.9,4.8-1.7,7.2-2.7c1.2-0.5,2.4-0.9,3.6-1.4c1.2-0.5,2.4-1,3.5-1.5l3.5-1.5l3.5-1.6
						c2.3-1.1,4.6-2.2,6.9-3.4c2.3-1.1,4.6-2.4,6.8-3.6c4.5-2.4,9-4.9,13.4-7.6c2.2-1.3,4.4-2.7,6.6-4c2.2-1.4,4.3-2.8,6.5-4.2
						c-4.1,3.1-8.3,6.1-12.6,8.9c-4.3,2.8-8.7,5.6-13.1,8.2c-2.2,1.3-4.5,2.6-6.8,3.8c-2.3,1.2-4.6,2.4-6.9,3.6l-3.5,1.7l-3.5,1.7
						c-1.2,0.6-2.4,1.1-3.5,1.6c-1.2,0.5-2.4,1.1-3.6,1.5c-2.4,1-4.8,2-7.2,2.9c-1.2,0.5-2.4,0.9-3.7,1.3c-1.2,0.4-2.4,0.8-3.7,1.2
						c-2.5,0.8-5,1.5-7.5,2.2c-2.5,0.6-5,1.3-7.6,1.7c-2.5,0.6-5.1,0.9-7.7,1.3l-3.9,0.4c-1.3,0.1-2.6,0.1-3.9,0.2
						c-1.3,0.1-2.6,0.1-3.9,0c-1.3,0-2.6,0-3.9-0.2c-1.3-0.1-2.6-0.2-3.9-0.4l-3.9-0.6l0.1,0l-4-0.5l-2-0.3l-2-0.4l-4-0.7l-3.9-0.9
						l-2-0.4l-1.9-0.5l-3.9-1.1c-2.5-0.8-5.1-1.5-7.6-2.5c-1.3-0.5-2.5-0.9-3.8-1.4l-3.7-1.5c-1.2-0.5-2.4-1.1-3.7-1.6
						c-1.2-0.6-2.4-1.1-3.6-1.7l-3.6-1.8l-3.5-1.9c-1.2-0.6-2.3-1.3-3.5-2c-1.2-0.7-2.3-1.3-3.4-2l-3.4-2.1l-3.3-2.2
						c-2.2-1.5-4.4-3-6.5-4.6c-2.2-1.6-4.3-3.2-6.3-4.9c-2.1-1.7-4.1-3.4-6.1-5.1c-4-3.5-7.9-7.2-11.6-11
						C1706.7,710.6,1703.1,706.6,1699.9,702.4z"/>
				</g>
				<g>
					<path d="M1575.6,1131.3c0,0-0.3-0.3-0.8-0.9c-0.2-0.3-0.6-0.6-0.9-1c-0.4-0.4-0.8-1-1.2-1.6c-0.9-1.2-1.8-2.7-2.9-4.4
						c-0.5-0.9-1-1.8-1.6-2.8c-0.5-1-1-2.1-1.6-3.2c-0.5-1.1-1-2.3-1.5-3.5c-0.5-1.2-1-2.5-1.5-3.8c-0.5-1.3-1-2.7-1.5-4
						c-0.5-1.4-1-2.8-1.4-4.3c-0.9-2.9-1.8-5.9-2.6-9c-0.8-3.1-1.6-6.2-2.3-9.4c-2.9-12.6-5-25.3-6.3-34.9c-1.3-9.6-1.9-16-1.9-16
						s0.8,6.4,2.4,15.9c1.6,9.5,4,22.2,7.3,34.6c0.8,3.1,1.7,6.2,2.6,9.2c0.9,3,1.9,6,2.8,8.8c0.5,1.4,1,2.8,1.5,4.2
						c0.5,1.3,1,2.7,1.6,3.9c0.5,1.3,1.1,2.5,1.6,3.7c0.6,1.2,1.1,2.3,1.6,3.4c0.6,1,1.1,2.1,1.6,3c0.6,0.9,1.1,1.8,1.6,2.6
						c1,1.6,2,3,2.8,4c0.4,0.5,0.7,1,1.1,1.4c0.4,0.4,0.7,0.7,0.9,1c0.5,0.6,0.8,0.8,0.8,0.8l0,0c0.6,0.6,0.5,1.6-0.1,2.1
						C1577.1,1132,1576.2,1131.9,1575.6,1131.3C1575.6,1131.3,1575.6,1131.3,1575.6,1131.3z"/>
				</g>
				<path class="st3" d="M1575.5,1130.9c0,39.5,3.5,120.3,16.3,280.8c-7,104.6-17.4,181.4-10.5,215.1c1.2,54.6-2.3,115.7-4.7,192.4"
					/>
				<g>
					<path d="M2089.4,1021c0,0,0.6,1.6,1.5,4.4c0.5,1.4,1,3.1,1.6,5.1c0.6,2,1.2,4.2,1.9,6.7c0.3,1.2,0.6,2.5,0.9,3.9
						c0.3,1.3,0.6,2.7,0.9,4.2c0.5,2.9,1,5.9,1.4,9.1c0.2,1.6,0.3,3.2,0.4,4.9c0.1,1.6,0.2,3.3,0.2,5c0.1,3.4-0.1,6.8-0.4,10.2
						c-0.3,3.4-0.8,6.8-1.4,10.1c-0.6,3.3-1.3,6.6-2,9.7c-0.7,3.1-1.4,6.1-2,8.9c-0.6,2.8-1.1,5.5-1.3,8c-0.3,2.5-0.4,4.8-0.3,6.8
						c0,2,0.2,3.8,0.4,5.2c0.1,0.7,0.2,1.3,0.3,1.9c0.1,0.5,0.2,1,0.3,1.4c0.2,0.8,0.3,1.2,0.3,1.2l0,0.1c0.2,0.8-0.3,1.6-1.1,1.8
						s-1.6-0.3-1.8-1.1c0,0,0,0,0,0c0,0-0.1-0.4-0.2-1.2c-0.1-0.4-0.2-0.9-0.3-1.5c-0.1-0.6-0.2-1.3-0.3-2c-0.2-1.5-0.3-3.4-0.3-5.5
						c0-2.1,0.2-4.5,0.6-7.1c0.4-2.6,0.9-5.3,1.6-8.2c0.7-2.9,1.5-5.8,2.3-8.9c0.8-3.1,1.6-6.3,2.2-9.5c0.7-3.3,1.2-6.6,1.6-9.9
						c0.4-3.4,0.6-6.7,0.6-10.1c0.1-1.7,0-3.3,0-4.9c-0.1-1.6-0.2-3.2-0.3-4.8c-0.3-3.2-0.6-6.2-1.1-9.1c-0.3-1.4-0.5-2.8-0.7-4.2
						c-0.3-1.3-0.5-2.6-0.8-3.9c-0.6-2.5-1.1-4.8-1.7-6.7c-0.6-2-1-3.7-1.5-5.2C2089.9,1022.6,2089.4,1021,2089.4,1021z"/>
				</g>
				<path class="st3" d="M2090,1128.5c4.7,83.7,1.7,154.1-0.6,182c-2.3,27.9-7,57-10.5,83.7c-1.2,34.9-7,88.4-7,123.2
					c1.2,38.4,0,72.1-7,100c1.2,74.4,9.3,203.5,9.3,203.5"/>
				<path class="st3" d="M1622,1169.8"/>
				<g>
					<path d="M1622,1169.8l-45.7-37.2c-0.6-0.5-0.7-1.5-0.2-2.1c0.5-0.6,1.5-0.7,2.1-0.2c0,0,0,0,0.1,0L1622,1169.8z"/>
				</g>
				<g>
					<path d="M2090.2,1109.9c0,0-0.2,0.5-0.6,1.3c-0.2,0.4-0.5,0.9-0.8,1.5c-0.3,0.6-0.7,1.2-1.1,1.8c-0.8,1.3-1.9,2.8-3,4.4
						c-1.1,1.6-2.3,3.2-3.6,4.9c-5,6.6-10.2,12.8-10.2,12.8s4.7-6.7,9-13.7c1.1-1.7,2.1-3.5,3.1-5.1c1-1.7,1.8-3.2,2.5-4.5
						c0.3-0.7,0.7-1.3,0.9-1.8c0.2-0.5,0.5-1,0.6-1.4c0.3-0.8,0.5-1.3,0.5-1.3l0,0c0.3-0.8,1.2-1.2,1.9-0.9s1.2,1.2,0.9,1.9
						C2090.2,1109.9,2090.2,1109.9,2090.2,1109.9z"/>
				</g>
				<g>
					<path d="M1645.4,1145.7c0,0,0,0.4-0.1,1.2c0,0.4-0.1,0.9-0.2,1.5c-0.1,0.6-0.4,1.2-0.9,1.8c-0.5,0.6-1.3,1.1-2.3,1.2
						c-0.3,0-0.4,0-0.8,0c-0.2,0-0.4-0.1-0.7-0.2c-0.5-0.2-0.9-0.4-1.3-0.7c-0.7-0.6-1.3-1.4-1.7-2.2c-0.4-0.8-0.7-1.7-0.9-2.7
						c-0.1-0.4-0.1-1,0-1.5c0.1-0.5,0.2-1,0.4-1.5c0.4-0.9,1.1-1.8,1.9-2.4c0.9-0.6,2.1-0.8,2.9-0.6c1.1,0.2,1.8,0.7,2.4,1.3
						c0.5,0.6,0.8,1.3,0.9,1.9c0.1,0.6,0.2,1.1,0.2,1.5C1645.4,1145.2,1645.4,1145.7,1645.4,1145.7z M1645.2,1145.7c0,0,0-0.1,0-0.3
						c0-0.2-0.1-0.5-0.2-0.9c-0.2-0.7-0.9-1.6-1.9-2.2c-0.5-0.3-1-0.5-1.4-0.5c-0.6-0.1-1.1,0-1.7,0.3c-0.5,0.3-1.1,0.8-1.4,1.4
						c-0.2,0.3-0.4,0.6-0.5,1c-0.2,0.4-0.2,0.7-0.3,1.2c-0.1,0.8-0.1,1.7,0.3,2.4c0.3,0.8,1,1.3,1.7,1.6c0.3,0.1,0.7,0.2,1,0.2
						c0.1,0,0.3,0,0.5,0c0.1,0,0.3,0,0.4-0.1c0.5-0.1,1-0.4,1.5-0.7c1-0.6,1.7-1.5,1.9-2.2c0.1-0.4,0.2-0.6,0.2-0.9
						C1645.2,1145.8,1645.2,1145.7,1645.2,1145.7z"/>
				</g>
				<g>
					<path d="M2010.5,1139.6c0,0,0,0.4-0.1,1.2c0,0.4-0.1,0.9-0.2,1.5c-0.1,0.6-0.4,1.2-0.9,1.8c-0.5,0.6-1.3,1.1-2.3,1.2
						c-0.3,0-0.4,0-0.8,0c-0.2,0-0.4-0.1-0.7-0.2c-0.5-0.2-0.9-0.4-1.3-0.7c-0.7-0.6-1.3-1.4-1.7-2.2c-0.4-0.8-0.7-1.7-0.9-2.7
						c0-0.3-0.1-0.4-0.1-0.7c0-0.3,0-0.5,0-0.8c0.1-0.5,0.2-1,0.4-1.5c0.4-0.9,1.1-1.8,1.9-2.4c0.9-0.6,2.1-0.8,2.9-0.6
						c1.1,0.2,1.8,0.7,2.4,1.3c0.5,0.6,0.8,1.3,0.9,1.9c0.1,0.6,0.2,1.1,0.2,1.5C2010.5,1139.1,2010.5,1139.6,2010.5,1139.6z
						 M2010.3,1139.6c0,0,0-0.1,0-0.3c0-0.2-0.1-0.5-0.2-0.9c-0.2-0.7-0.9-1.6-1.9-2.2c-0.5-0.3-1-0.5-1.4-0.5
						c-0.6-0.1-1.1,0-1.7,0.3c-0.5,0.3-1.1,0.8-1.4,1.4c-0.2,0.3-0.4,0.6-0.5,1c-0.1,0.2-0.1,0.4-0.2,0.5c-0.1,0.2-0.1,0.4-0.1,0.6
						c-0.1,0.8-0.1,1.7,0.3,2.4c0.3,0.8,1,1.3,1.7,1.6c0.3,0.1,0.7,0.2,1,0.2c0.1,0,0.3,0,0.5,0c0.1,0,0.3,0,0.4-0.1
						c0.5-0.1,1-0.4,1.5-0.7c1-0.6,1.7-1.5,1.9-2.2c0.1-0.4,0.2-0.6,0.2-0.9C2010.2,1139.7,2010.3,1139.6,2010.3,1139.6z"/>
				</g>
				<g>
					<path d="M1803.8,1637.7c0,0,0.3,0,0.9,0c0.6,0,1.4,0.1,2.5,0.4c1,0.3,2.3,0.8,3.6,1.6c1.3,0.8,2.5,2,3.6,3.6
						c1.1,1.6,1.9,3.5,2.2,5.6c0.1,0.5,0.1,1.1,0.2,1.7c0,0.5,0,1.1,0,1.7c-0.1,1.2-0.3,2.3-0.7,3.5c-0.8,2.3-2.1,4.5-4.1,6.1
						c-1,0.8-2.1,1.5-3.3,2c-1.2,0.5-2.5,0.8-3.8,0.9c-1.3,0.1-2.7-0.1-3.9-0.4c-1.3-0.4-2.5-1-3.5-1.7c-2.2-1.5-3.8-3.6-4.8-5.8
						c-0.9-2.3-1.3-4.7-1.1-6.9c0.2-2.3,0.9-4.3,1.9-6c1-1.7,2.3-2.9,3.5-3.8c1.3-0.9,2.5-1.4,3.5-1.8c1-0.3,1.9-0.5,2.5-0.5
						C1803.4,1637.7,1803.7,1637.7,1803.8,1637.7L1803.8,1637.7z M1803.8,1637.9c0,0-0.3,0-0.9,0.1c-0.3,0-0.6,0.1-1,0.2
						c-0.4,0.1-0.9,0.2-1.3,0.4c-1,0.4-2.1,1-3.2,2c-1.1,1-2.1,2.3-2.8,3.9c-0.7,1.6-1.2,3.5-1.2,5.4c0,2,0.3,4.1,1.1,6.1
						c0.8,2,2.2,3.8,4,5.1c0.9,0.6,1.9,1.2,3,1.5c1.1,0.3,2.1,0.5,3.3,0.5c1.1,0,2.3-0.3,3.3-0.6c1.1-0.4,2.1-1,3-1.7
						c1.8-1.4,3.1-3.4,3.8-5.4c0.3-1,0.6-2.1,0.7-3.2c0.1-0.5,0.1-1.1,0.1-1.6c0-0.5,0-1-0.1-1.5c-0.2-2-0.9-3.9-1.8-5.4
						c-0.9-1.6-2.1-2.8-3.3-3.7c-1.2-0.9-2.4-1.4-3.4-1.7c-0.5-0.1-1-0.3-1.4-0.3c-0.4,0-0.8-0.1-1-0.1
						C1804.1,1637.9,1803.7,1637.9,1803.8,1637.9L1803.8,1637.9z"/>
				</g>
				<g>
					<path d="M1784.9,1661.6c0,0,0.5,0.7,1.2,1.9c0.4,0.5,0.9,1.2,1.5,1.9c0.3,0.3,0.6,0.7,1,1.1c0.4,0.3,0.7,0.8,1.2,1.1
						c0.4,0.3,0.8,0.7,1.3,1c0.2,0.2,0.5,0.3,0.7,0.5c0.3,0.2,0.5,0.3,0.8,0.5c1,0.7,2.2,1.1,3.4,1.7c1.2,0.5,2.6,0.8,3.9,1.1
						c1.4,0.3,2.8,0.5,4.2,0.5c1.4,0.1,2.9,0.1,4.3,0c0.7-0.1,1.4-0.1,2.1-0.2c0.7-0.1,1.4-0.2,2-0.4c1.3-0.3,2.6-0.6,3.8-1
						c0.6-0.2,1.1-0.4,1.7-0.7c0.5-0.2,1-0.5,1.5-0.7c0.5-0.2,0.9-0.6,1.3-0.8c0.4-0.3,0.8-0.6,1.1-0.9c0.7-0.6,1.2-1.2,1.6-1.7
						c0.2-0.3,0.4-0.5,0.5-0.7c0.1-0.2,0.2-0.4,0.3-0.6c0.2-0.3,0.3-0.5,0.3-0.5l0-0.1c0-0.1,0.1-0.1,0.2-0.1c0.1,0,0.1,0.1,0.1,0.2
						c0,0,0,0.2-0.1,0.6c0,0.2-0.1,0.4-0.2,0.7c-0.1,0.3-0.2,0.5-0.4,0.9c-0.3,0.6-0.7,1.4-1.3,2.2c-0.3,0.4-0.7,0.8-1,1.2
						c-0.4,0.4-0.8,0.8-1.3,1.1c-0.9,0.8-2.1,1.4-3.3,2c-1.2,0.6-2.6,1.1-4,1.5c-2.9,0.8-6.1,1.2-9.3,1.1c-1.6-0.1-3.2-0.4-4.7-0.7
						c-1.5-0.4-3-0.9-4.4-1.5c-1.3-0.7-2.6-1.4-3.7-2.2c-0.3-0.2-0.5-0.4-0.8-0.6c-0.2-0.2-0.5-0.5-0.7-0.7
						c-0.5-0.4-0.9-0.9-1.3-1.4c-0.4-0.4-0.7-0.9-1.1-1.4c-0.3-0.4-0.6-0.9-0.8-1.3c-0.5-0.8-0.8-1.6-1.2-2.3
						c-0.3-0.6-0.4-1.2-0.6-1.5c-0.1-0.3-0.2-0.5-0.2-0.5c0-0.1,0-0.2,0.1-0.2C1784.8,1661.5,1784.9,1661.5,1784.9,1661.6
						L1784.9,1661.6z"/>
				</g>
				<path class="st3" d="M1579,1618.6c-2.3,24.4-25.6,130.8-24.4,146.5c2.9,5.2,0.6,10.5,0.6,10.5s2.3,2.9,2.3,8.1
					c7.6,5.8,15.1,16.9,17.4,34.3c23.8,21.5,20.3,53.5,23.8,71.5c8.7,30.2,25.6,49.4,26.2,72.7c-4.7,37.8-32.6,24.4-34.3,18
					c-2.3-0.6-3.2-8.5-6.4-6.7c-0.9,0.5,1.5,5.2,0.3,8.6c1.8,3.9,4.8,22.2,4.4,28.3c2.3,8.1,4.7,23.8,3.5,30.8
					c2.3,14,2.9,29.6,2.9,39c2.3,8.1-1.2,14.5-1.2,14.5"/>
				<path class="st3" d="M2087.7,1369.2c-4.7,20.9,1.7,48.3,1.2,90.7c-0.6,42.4,18,193.6,18.6,304c-1.7,29.6-9.3,37.2-18.6,45.3
					c-7,4.7-12.3,9.8-19.2,16.9c-7,7.2-18.6,29.4-27.9,43c-9.7,14.2-33.7,44.2-43.6,56.4c-9.9,12.2-14,23.3-16.3,39
					c1.7,14,7,20.9,24.4,19.8c19.8-12.8,30.8-25.6,36.6-35.5c14-21.5,20.9-30.8,25-30.2c0,14,4.1,29.1,3.5,37.2
					c-1.7,15.7-0.6,27.3,0.6,33.7c5.2,42.4-0.6,51.7-2.9,64.5c-2.9,27.3,0.2,32.1,5.9,36.7"/>
				<g>
					<path d="M1584.9,1973.7c-0.9-1.8-1.9-3.6-2.8-5.4c-0.9-1.8-1.7-3.7-2.6-5.5c-1.7-3.7-3.3-7.4-4.9-11.1l0.3,0.4
						c-0.6-0.5-1.2-1.1-1.7-1.8c-0.5-0.7-0.9-1.4-1.2-2c-0.7-1.4-1.2-2.7-1.9-3.9l0.3,0.3c-0.5-0.4-1-0.8-1.4-1.2
						c-0.5-0.4-0.9-0.9-1.3-1.3c-0.8-0.9-1.6-1.8-2.3-2.8c-1.5-1.9-2.8-3.8-4.1-5.8c-2.6-4-5-8-7.3-12.2l0,0.1c-1.4-2-3-3.9-4.5-5.9
						l-4.6-5.8l-9.4-11.5l9.8,11.2l4.8,5.7c1.6,1.9,3.2,3.8,4.7,5.8l0,0l0,0c2.4,4.1,4.9,8,7.6,11.8c1.4,1.9,2.8,3.8,4.3,5.5
						c0.8,0.9,1.5,1.8,2.3,2.6c0.4,0.4,0.8,0.8,1.2,1.2c0.4,0.4,0.9,0.7,1.3,1l0.2,0.1l0.1,0.2c0.8,1.3,1.4,2.7,2.1,3.9
						c0.3,0.6,0.7,1.2,1.1,1.7c0.4,0.5,0.9,0.9,1.4,1.3l0.2,0.2l0.1,0.3c1.7,3.7,3.4,7.3,5.2,10.9c0.9,1.8,1.8,3.6,2.7,5.4
						c0.9,1.8,1.9,3.5,2.9,5.3c0.4,0.7,0.2,1.6-0.6,2C1586.3,1974.7,1585.4,1974.4,1584.9,1973.7
						C1585,1973.7,1585,1973.7,1584.9,1973.7L1584.9,1973.7z"/>
				</g>
				<g>
					<path d="M2064.8,1917.3c0,0,1.4-0.7,3.5-1.8c2.1-1.1,4.9-2.4,7.5-3.9c0.7-0.4,1.3-0.8,1.9-1.2c0.6-0.4,1.2-0.9,1.8-1.3
						c1.2-0.8,2.3-1.6,3.2-2.3c1.9-1.3,3.2-2.2,3.2-2.2s-1.1,1-2.9,2.6c-0.9,0.8-1.9,1.7-2.9,2.7c-0.5,0.5-1.1,1-1.7,1.5
						c-0.6,0.5-1.2,1-1.8,1.5c-2.5,1.9-5.1,3.5-7.1,4.8c-1.9,1.3-3.2,2.2-3.2,2.2l0,0c-0.7,0.5-1.6,0.3-2.1-0.4s-0.3-1.6,0.4-2.1
						C2064.7,1917.4,2064.8,1917.3,2064.8,1917.3z"/>
				</g>
				<path class="st3" d="M1846,2440.6c-5.4,42.6,8.1,70.2,12.8,119"/>
				<path class="st3" d="M1861.1,2598.4c-0.8,22.5-10.1,115.5-11.6,157.4c-1.6,41.9,14,64.3,20.2,77.5c3.9-10.1,15.5-43.4,16.3-72.1
					c-1.6-25.6-30.2-158.1-26.4-194.6c3.9-29.5,8.5-70.5,9.3-79.8c0-14-14-24-23.3-48.1c-9.3-24-13.2-72.1-3.9-137.2
					c0,0-1.6-80.6-7.8-130.2s-6.2-83.7-3.9-181.4"/>
				<line class="st3" x1="1870.4" y1="2834.8" x2="1868.9" y2="2875.1"/>
				<g>
					<path d="M1618.2,1687.8l2.1,3.4c0.7,1.1,1.4,2.3,2.1,3.4c1.5,2.3,2.9,4.5,4.4,6.8c1.5,2.2,3,4.5,4.6,6.7
						c1.5,2.2,3.1,4.4,4.7,6.6c1.6,2.2,3.1,4.4,4.7,6.5c1.6,2.2,3.2,4.3,4.8,6.5c3.2,4.3,6.5,8.6,9.8,12.9l9.9,12.8l9.8,12.9
						l9.9,12.8c3.3,4.3,6.6,8.5,10,12.7c3.4,4.2,6.8,8.4,10.2,12.6l10.3,12.5l10.3,12.5c3.4,4.2,6.8,8.4,10.1,12.7
						c1.7,2.1,3.3,4.3,5,6.4c1.7,2.1,3.3,4.3,4.9,6.5c1.6,2.2,3.2,4.4,4.8,6.6c1.6,2.2,3.1,4.4,4.6,6.7c3.1,4.5,6,9,8.8,13.7
						c2.7,4.7,5.3,9.5,7.5,14.5l0.1,0.3l0,0.3l1.3,28.8l0.7,14.4l0.8,14.4l0,0.1v0c0,0.4,0.1,1,0.1,1.5c0.1,0.5,0.2,1,0.3,1.6
						c0.1,0.5,0.2,1,0.4,1.5c0.1,0.5,0.3,1,0.5,1.5c0.2,0.5,0.4,1,0.5,1.5c0.2,0.5,0.4,1,0.6,1.5c0.2,0.5,0.4,1,0.7,1.5
						c0.2,0.5,0.5,1,0.7,1.4l0.8,1.4c0.3,0.5,0.6,0.9,0.9,1.4c0.3,0.5,0.6,0.9,0.9,1.4l0.9,1.3c0.6,0.9,1.3,1.7,2,2.6
						c0.7,0.8,1.4,1.6,2.2,2.5l0,0c0.1,0.1,0,0.2,0,0.2c-0.1,0.1-0.1,0-0.2,0c-0.8-0.8-1.6-1.5-2.3-2.3c-0.7-0.8-1.5-1.6-2.2-2.5
						l-1-1.3c-0.4-0.4-0.7-0.9-1-1.3c-0.3-0.5-0.7-0.9-1-1.4l-0.9-1.4c-0.3-0.5-0.6-1-0.8-1.4c-0.3-0.5-0.5-1-0.8-1.5
						c-0.2-0.5-0.5-1-0.7-1.5c-0.2-0.5-0.5-1-0.6-1.6c-0.2-0.5-0.4-1-0.6-1.6c-0.2-0.5-0.3-1.1-0.5-1.6c-0.1-0.5-0.3-1.1-0.4-1.7
						c-0.1-0.6-0.2-1.1-0.2-1.8l0,0.1c-0.5-4.8-0.9-9.6-1.3-14.4l-1.1-14.4l-1-14.4l-0.8-14.4l0.1,0.6c-2.2-4.8-4.6-9.6-7.3-14.2
						c-1.4-2.3-2.7-4.6-4.2-6.9c-1.5-2.3-2.9-4.5-4.4-6.8c-1.5-2.2-3-4.5-4.5-6.7c-1.5-2.2-3.1-4.4-4.6-6.6
						c-1.6-2.2-3.1-4.4-4.7-6.6c-1.6-2.2-3.2-4.4-4.8-6.5l-9.7-13c-3.2-4.3-6.5-8.6-9.8-12.9c-3.3-4.3-6.6-8.5-10-12.7
						c-3.4-4.2-6.8-8.4-10.2-12.6c-6.8-8.4-13.8-16.6-20.7-24.9c-3.4-4.2-6.9-8.3-10.2-12.5c-3.4-4.2-6.7-8.5-9.9-12.8
						c-3.2-4.3-6.5-8.6-9.6-13c-1.6-2.2-3.1-4.4-4.7-6.6c-1.6-2.2-3.1-4.5-4.6-6.7c-1.5-2.2-3-4.5-4.4-6.8c-1.5-2.3-2.9-4.6-4.3-6.9
						c-2.8-4.7-5.4-9.4-7.8-14.2c0-0.1,0-0.2,0.1-0.2C1618.1,1687.7,1618.2,1687.7,1618.2,1687.8z"/>
				</g>
				<g>
					<path d="M1994.6,1740.4c-2.2,3.2-4.5,6.4-6.7,9.6c-2.3,3.2-4.6,6.3-6.9,9.4l-7,9.3c-2.4,3.1-4.7,6.2-7.1,9.2
						c-2.4,3.1-4.8,6.1-7.3,9.1l-7.5,9c-2.5,3-5,6-7.4,9c-2.4,3-4.8,6.1-7.2,9.2c-2.4,3.1-4.7,6.2-7,9.3l-6.9,9.4
						c-2.3,3.1-4.6,6.2-7,9.4c-2.3,3.1-4.7,6.2-7,9.3l-7.1,9.3c-2.3,3.1-4.8,6.2-7.1,9.2c-4.8,6.1-9.7,12.2-14.6,18.2l0.3-0.6
						l-1.4,8.3l-1.4,8.3c-0.5,2.8-0.9,5.5-1.5,8.3c-0.5,2.8-1,5.5-1.6,8.3c0,0.1-0.1,0.1-0.2,0.1c-0.1,0-0.1-0.1-0.1-0.2
						c0.2-2.8,0.5-5.6,0.8-8.4c0.3-2.8,0.6-5.6,0.9-8.4l0.9-8.4l1-8.4l0-0.3l0.2-0.3c4.7-6.2,9.4-12.4,14.1-18.6
						c2.4-3.1,4.8-6.1,7.2-9.2l7.3-9.1c2.4-3,4.8-6.1,7.3-9.1c2.5-3,4.9-6.1,7.4-9l7.4-9c2.5-3,4.9-6,7.3-9.1c2.4-3,4.8-6.1,7.2-9.2
						c2.3-3.1,4.6-6.2,6.9-9.4l6.9-9.4c2.3-3.1,4.6-6.2,7-9.3c2.4-3.1,4.8-6.1,7.2-9.2l7.3-9.1c2.5-3,4.9-6,7.4-9
						c2.5-3,5-5.9,7.6-8.9c0.1-0.1,0.2-0.1,0.2,0C1994.6,1740.2,1994.6,1740.3,1994.6,1740.4z"/>
				</g>
			</g>
			<g>
				<path d="M1901.1,2333.1c-0.8,1.5-1.7,2.9-2.6,4.3c-0.9,1.4-1.7,2.9-2.5,4.3c-0.8,1.4-1.6,2.8-2.3,4.3l-1.1,2.2
					c-0.4,0.7-0.7,1.5-1,2.2c-0.6,1.5-1.3,3-1.9,4.5c-0.5,1.5-1.1,3-1.6,4.6l-0.7,2.3c-0.2,0.8-0.5,1.5-0.6,2.3l-0.5,2.4l-0.2,1.2
					l-0.1,1.2c-0.2,1.6-0.5,3.2-0.5,4.8l-0.1,2.4c0,0.8,0,1.6,0,2.4c0,0.8,0,1.6,0,2.4l0.1,2.5c0,1.6,0.3,3.3,0.4,4.9
					c0.2,1.6,0.5,3.3,0.7,4.9c0.3,1.6,0.7,3.2,1,4.9c0.4,1.6,0.8,3.2,1.3,4.8c0.5,1.6,1,3.2,1.5,4.8l-0.1-0.2l1.4,2
					c0.4,0.7,0.9,1.3,1.3,2l1.2,2.1c0.4,0.7,0.7,1.4,1.1,2.2c0.4,0.7,0.7,1.5,1,2.2c0.3,0.8,0.6,1.5,0.9,2.3l0.7,2.3l0.6,2.4
					c0.4,1.6,0.6,3.2,0.8,4.8c0.2,1.6,0.4,3.2,0.7,4.7c0.1,0.8,0.3,1.5,0.5,2.3c0.1,0.4,0.2,0.7,0.3,1.1c0.1,0.4,0.2,0.7,0.4,1.1
					c0.2,0.3,0.3,0.7,0.5,1l0.6,1c0.2,0.3,0.4,0.6,0.7,0.9l0.7,0.9l-0.2,0.2l-1-0.8c-0.3-0.2-0.6-0.5-0.9-0.8l-0.8-0.9
					c-0.2-0.3-0.5-0.7-0.7-1c-0.2-0.3-0.5-0.7-0.6-1.1c-0.2-0.4-0.4-0.7-0.5-1.1c-0.3-0.8-0.6-1.6-0.8-2.3c-0.5-1.6-0.8-3.1-1.1-4.7
					l-0.5-2.3l-0.6-2.3l-0.6-2.2l-0.7-2.2c-0.2-0.7-0.5-1.5-0.8-2.2c-0.3-0.7-0.5-1.5-0.8-2.2c-0.3-0.7-0.6-1.5-0.9-2.2l-1-2.1
					c-0.3-0.7-0.7-1.4-1-2.1l-1.1-2.1l-0.1-0.2l0,0c-0.3-1.6-0.7-3.3-1.1-4.9c-0.4-1.6-0.8-3.2-1.2-4.8c-0.4-1.6-0.8-3.2-1.2-4.8
					c-0.4-1.6-0.8-3.2-1.2-4.9c-0.3-1.6-0.8-3.3-1-4.9c-0.3-1.7-0.5-3.3-0.6-5c-0.1-0.8-0.1-1.7-0.2-2.5l0-2.5
					c0-1.7,0.1-3.4,0.3-5.1l0.1-1.3l0.2-1.3l0.4-2.5c0.1-0.8,0.4-1.7,0.6-2.5l0.7-2.5c0.5-1.6,1.2-3.2,1.8-4.8
					c0.3-0.8,0.7-1.5,1.1-2.3l1.1-2.3c0.4-0.8,0.8-1.5,1.2-2.2l1.3-2.2c0.8-1.5,1.9-2.8,2.8-4.2c1-1.4,2-2.7,3.1-4
					c1.1-1.3,2.2-2.5,3.3-3.8L1901.1,2333.1z"/>
			</g>
			<g>
				<path d="M2000.1,2322.9c1.1,1.2,2.2,2.5,3.1,3.9c0.5,0.7,0.9,1.4,1.4,2.1c0.4,0.7,0.8,1.5,1.2,2.2c0.7,1.5,1.4,3.1,1.9,4.7
					c0.6,1.6,1,3.2,1.5,4.8l0,0.1l0,0.1c0.1,1.3,0.2,2.6,0.1,3.9c0,0.6,0,1.3,0,1.9l-0.2,1.9c-0.1,1.3-0.3,2.5-0.5,3.8
					c-0.3,1.3-0.5,2.5-0.8,3.8l-1.7,7.4c-0.6,2.5-1.1,4.9-1.6,7.4l-1.5,7.4c-0.5,2.5-1,4.9-1.7,7.4c-0.6,2.4-1.3,4.9-1.9,7.3
					c-0.7,2.4-1.3,4.9-2,7.3l0.1-0.6l0.2,1.9c0.1,0.6,0.1,1.3,0.2,1.9l0.3,1.9c0.1,0.6,0.2,1.2,0.3,1.9c0.1,0.6,0.2,1.2,0.4,1.9
					l0.5,1.8c0.3,1.2,0.7,2.4,1.2,3.6c0.4,1.2,0.9,2.4,1.4,3.6c0.3,0.6,0.5,1.2,0.7,1.8c0.3,0.6,0.4,1.3,0.6,1.9
					c0.1,0.7,0.3,1.3,0.4,2c0.1,0.7,0,1.4,0,2c0,0.7-0.2,1.3-0.2,2c-0.1,0.6-0.3,1.3-0.5,1.9l-0.3-0.1c0-0.7,0-1.3,0.1-1.9
					c0-0.6,0-1.3-0.1-1.9c-0.1-0.6-0.2-1.2-0.3-1.8c-0.1-0.6-0.4-1.2-0.6-1.8c-0.3-0.6-0.5-1.1-0.8-1.7c-0.3-0.6-0.6-1.1-0.9-1.7
					c-0.6-1.1-1.2-2.3-1.8-3.5c-0.3-0.6-0.6-1.2-0.8-1.8l-0.7-1.9l-0.6-1.9c-0.2-0.6-0.3-1.3-0.5-1.9c-0.2-0.7-0.3-1.3-0.4-2l-0.4-2
					c-0.1-0.7-0.2-1.3-0.3-2l-0.2-2l0-0.3l0.1-0.3c0.7-2.4,1.5-4.8,2.2-7.2l2.3-7.2c1.5-4.8,3.3-9.5,4.6-14.4
					c0.3-1.2,0.7-2.4,0.9-3.7c0.3-1.2,0.6-2.5,0.8-3.7c0.3-1.2,0.4-2.5,0.6-3.7c0.2-1.2,0.3-2.5,0.4-3.7c0.1-1.2,0.2-2.5,0.2-3.7
					l0.1-3.7c0-1.2,0.1-2.5,0-3.7c0-1.2-0.1-2.5-0.1-3.7l0,0.3l-1.3-4.8c-0.4-1.6-0.9-3.1-1.4-4.6c-0.3-0.8-0.6-1.5-0.9-2.3
					c-0.3-0.7-0.7-1.5-1-2.2c-0.7-1.5-1.5-2.9-2.3-4.4L2000.1,2322.9z"/>
			</g>
			<g>
				<path d="M1670.1,2332c0,0,0,0.5,0.1,1.5c0,1,0.1,2.4,0.2,4.1c0.2,1.8,0.3,3.9,0.8,6.3c0.2,1.2,0.6,2.5,0.9,3.8
					c0.2,0.6,0.5,1.3,0.8,2c0.2,0.7,0.7,1.3,1,2c1.4,2.6,3.8,5.1,5.4,8.3c1.7,3.2,2.6,6.9,3.4,10.7c0.3,1.9,0.6,3.8,0.9,5.8
					c0.2,2,0.4,4,0.5,6c0.3,4,0.6,8.1,0.9,12.1c0.4,4.1,0.7,8.1,1.1,12.1c0.4,4,0.9,7.9,1.3,11.7c0.4,3.8,0.8,7.4,1.2,10.9
					c0.2,1.7,0.4,3.4,0.6,5c0.2,1.6,0.4,3.2,0.6,4.7c0.4,3,0.8,5.8,1.2,8.2c0.2,1.2,0.4,2.4,0.6,3.4c0.2,1.1,0.3,2,0.5,2.9
					c0.2,0.9,0.3,1.7,0.5,2.3c0.1,0.7,0.3,1.2,0.4,1.7c0.2,0.9,0.3,1.4,0.3,1.4l-0.3,0.1c0,0-0.2-0.5-0.5-1.4
					c-0.4-0.9-0.8-2.2-1.4-3.9c-0.6-1.7-1.2-3.8-1.8-6.2c-0.3-1.2-0.6-2.5-0.9-3.9c-0.3-1.4-0.6-2.8-0.9-4.3c-0.6-3-1.2-6.3-1.7-9.8
					c-0.5-3.5-1-7.2-1.4-11c-0.4-3.8-0.7-7.8-1-11.8c-0.3-4-0.5-8.1-0.7-12.2c-0.2-4.1-0.4-8.2-0.6-12.2c-0.1-2-0.3-4-0.4-5.9
					c-0.2-1.9-0.4-3.8-0.7-5.7c-0.6-3.7-1.5-7.3-2.9-10.3c-0.2-0.4-0.4-0.8-0.5-1.1c-0.2-0.4-0.4-0.7-0.6-1.1
					c-0.4-0.7-0.9-1.4-1.3-2.1c-0.5-0.7-0.9-1.4-1.4-2c-0.4-0.7-0.9-1.4-1.2-2.1c-0.3-0.7-0.7-1.4-0.9-2.1c-0.2-0.7-0.5-1.4-0.7-2.1
					c-0.3-1.4-0.7-2.7-0.8-3.9c-0.4-2.5-0.5-4.7-0.6-6.4c0-1.8,0-3.2,0-4.1c0-1,0-1.5,0-1.5L1670.1,2332z"/>
			</g>
			<g>
				<path d="M1772.1,2351.9c1.4,0.6,2.8,1.1,4.2,1.9c1.4,0.7,2.7,1.5,4,2.4l1.9,1.4c0.6,0.5,1.2,1,1.8,1.5c0.6,0.5,1.1,1,1.7,1.6
					c0.6,0.5,1.1,1.1,1.6,1.7c1.1,1.1,2,2.4,3,3.6c0.9,1.3,1.7,2.6,2.5,4c0.4,0.7,0.7,1.4,1,2.1c0.3,0.7,0.6,1.5,0.8,2.2l0.4,1.1
					c0.1,0.4,0.2,0.8,0.3,1.2c0.2,0.8,0.3,1.5,0.4,2.3c0.1,0.8,0.2,1.6,0.2,2.3c0,0.8,0.1,1.6,0,2.3l-0.1,1.2l0,0.3
					c0,0.2,0,0.2,0,0.3l-0.1,0.6c-0.1,0.7-0.2,1.5-0.5,2.3l-0.3,1.1c-0.1,0.4-0.3,0.7-0.4,1.1c-0.1,0.4-0.2,0.7-0.4,1.1l-0.5,1.1
					c-0.6,1.4-1.4,2.8-2.1,4.1c-1.6,2.6-3.3,5.1-4.9,7.7c-0.4,0.6-0.7,1.3-1.1,1.9c-0.3,0.7-0.7,1.3-0.9,2c-0.6,1.3-0.9,2.6-1,4
					l0-0.4l0.7,2.8c0.3,0.9,0.5,1.9,0.8,2.8c0.3,0.9,0.6,1.8,0.9,2.7c0.3,0.9,0.6,1.8,1,2.7c0.7,1.8,1.4,3.6,2.1,5.4
					c0.7,1.8,1.5,3.6,2.2,5.5c0.3,1,0.7,1.9,0.9,3c0.3,1,0.4,2.1,0.4,3.2l-0.1,2.9c0,1-0.1,2-0.2,3c-0.1,1-0.3,2.1-0.6,3.1
					c-0.3,1-0.7,2-1.3,2.8c-0.5,0.9-1.2,1.7-1.8,2.4l-1.1,1.1l-1.1,1l-0.2-0.2c0.6-0.8,1.2-1.5,1.7-2.3c0.5-0.8,1-1.6,1.3-2.5
					c0.8-1.7,1-3.5,1-5.4c0-0.9-0.1-1.9-0.1-2.9l-0.2-2.9c-0.1-0.8-0.2-1.7-0.5-2.6c-0.2-0.9-0.6-1.7-1-2.6
					c-0.7-1.8-1.5-3.5-2.3-5.3c-0.4-0.9-0.8-1.8-1.1-2.7c-0.4-0.9-0.7-1.8-1.1-2.8c-0.7-1.9-1.2-3.8-1.8-5.7c-0.3-1-0.5-1.9-0.7-2.9
					l-0.6-2.9l0-0.2l0-0.2c0.3-1.7,0.8-3.3,1.5-4.7c0.3-0.7,0.8-1.4,1.2-2.1c0.4-0.6,0.9-1.3,1.4-1.9c0.9-1.2,1.9-2.4,2.9-3.6
					c1-1.2,1.9-2.4,2.7-3.6c0.8-1.2,1.6-2.5,2.3-3.9l0.5-1c0.1-0.3,0.3-0.7,0.4-1c0.1-0.4,0.2-0.7,0.3-1.1l0.2-1.1
					c0.2-0.7,0.3-1.5,0.3-2.2l0.1-0.6c0-0.1,0-0.2,0-0.3l0-0.3l0-1.1c0-0.7-0.1-1.5-0.2-2.2c-0.1-0.7-0.3-1.4-0.5-2.2
					c-0.2-0.7-0.4-1.4-0.6-2.1l-0.4-1l-0.4-1c-0.3-0.7-0.6-1.3-0.9-2c-0.3-0.6-0.6-1.3-1-1.9c-0.4-0.6-0.7-1.3-1.1-1.9
					c-0.4-0.6-0.8-1.2-1.2-1.8l-1.3-1.8c-0.4-0.6-0.9-1.1-1.4-1.7c-0.4-0.6-0.9-1.1-1.4-1.7c-0.5-0.5-1-1.1-1.5-1.6
					c-0.5-0.5-1-1.1-1.6-1.6l-1.7-1.5c-0.6-0.5-1.1-0.9-1.7-1.4c-0.6-0.5-1.2-0.9-1.8-1.4c-1.2-0.9-2.5-1.7-3.7-2.6L1772.1,2351.9z"
					/>
			</g>
			<g>
				<path d="M1484,1397c0,0,1.1,0.1,2.9,0.2c0.9,0.1,2,0.2,3.3,0.3c1.3,0.2,2.7,0.3,4.3,0.5c1.6,0.3,3.3,0.5,5,0.8
					c1.8,0.3,3.7,0.7,5.6,1.1c1.9,0.4,3.9,0.8,5.9,1.3c2,0.5,4,1,6.1,1.5c4.1,1,8.1,2,12,2.9c1.9,0.4,3.8,0.8,5.5,1.1
					c1.8,0.3,3.4,0.5,5,0.8c0.8,0.1,1.5,0.1,2.2,0.2c0.7,0.1,1.4,0.2,2,0.2c1.3,0,2.4,0.1,3.3,0c1.8-0.1,2.9-0.2,2.9-0.2
					s-1,0.2-2.8,0.6c-0.9,0.2-2,0.2-3.3,0.3c-1.3,0.1-2.7,0.1-4.3,0c-1.6-0.1-3.3-0.2-5.1-0.4c-1.8-0.2-3.7-0.5-5.7-0.8
					c-1.9-0.4-4-0.7-6-1.2c-2-0.5-4.1-0.9-6.1-1.4c-4.1-1-8.1-2.1-11.9-3c-1.9-0.5-3.7-0.9-5.5-1.4c-1.8-0.4-3.4-0.8-4.9-1.2
					c-1.5-0.3-2.9-0.7-4.2-0.9c-1.2-0.3-2.3-0.5-3.2-0.7C1485,1397.2,1484,1397,1484,1397z"/>
			</g>
			<g>
				<path d="M2116.7,1408.6c0,0,1.2,0.1,3.2,0.3c2,0.2,4.9,0.5,8.3,0.8c1.7,0.1,3.6,0.3,5.6,0.5c0.5,0,1,0.1,1.5,0.1
					c0.5,0,1,0.1,1.5,0c0.9,0,2-0.2,3-0.4c2.1-0.4,4.2-1,6.3-1.7c2.1-0.7,4.3-1.5,6.5-2.3c2.2-0.8,4.3-1.6,6.5-2.4
					c2.1-0.8,4.3-1.5,6.4-2.1c4.2-1.3,8.2-2.2,11.6-2.7c1.7-0.3,3.3-0.4,4.8-0.4c1.4,0,2.7,0,3.7,0.1c1,0.1,1.8,0.2,2.3,0.3
					c0.5,0.1,0.8,0.1,0.8,0.1s-0.3,0-0.8,0c-0.3,0-0.6,0-1,0c-0.4,0-0.8,0-1.3,0c-2,0-4.9,0.3-8.2,1.1c-3.4,0.7-7.2,1.8-11.3,3.3
					c-2,0.7-4.1,1.5-6.3,2.3c-2.1,0.8-4.3,1.6-6.5,2.4c-4.4,1.6-8.8,3.1-13.2,3.8c-1.1,0.2-2.2,0.3-3.3,0.3c-0.6,0-1.1-0.1-1.6-0.1
					c-0.5-0.1-1-0.1-1.5-0.2c-2-0.3-3.8-0.5-5.6-0.8c-3.4-0.5-6.3-1.1-8.3-1.5C2117.8,1408.9,2116.7,1408.6,2116.7,1408.6z"/>
			</g>
			<g>
				<path d="M1647.9,1410.9c0,0,1.8-1.5,4.8-4.2c0.8-0.7,1.6-1.4,2.6-2.2c0.9-0.8,1.8-1.8,2.8-2.8c1-1,2.1-2.1,3.2-3.2
					c0.3-0.3,0.6-0.6,0.8-0.9c0.3-0.3,0.5-0.6,0.8-0.9c0.5-0.6,1.1-1.3,1.7-1.9c0.6-0.7,1.1-1.3,1.7-2c0.6-0.7,1.2-1.4,1.7-2.1
					c1.1-1.5,2.3-3.1,3.5-4.6c1.1-1.6,2.2-3.4,3.4-5.1c1.2-1.7,2.2-3.6,3.4-5.4c2.3-3.7,4.5-7.6,7-11.5c1.2-2,2.5-3.9,3.8-5.8
					c1.2-2,2.7-3.8,4.1-5.7c0.7-0.9,1.4-1.9,2.1-2.8l2.3-2.7c1.5-1.8,3-3.6,4.7-5.2c1.6-1.6,3.2-3.3,4.8-4.9c1.7-1.5,3.4-3,5-4.4
					c3.3-3,6.8-5.4,10-7.8c1.6-1.2,3.2-2.4,4.8-3.4c1.6-1,3.1-2,4.6-2.9c1.5-0.9,2.9-1.8,4.3-2.7c0.7-0.4,1.3-0.8,2-1.2
					c0.7-0.4,1.3-0.7,1.9-1.1c2.5-1.4,4.7-2.6,6.5-3.5c3.6-1.9,5.7-3,5.7-3l0.1,0.3c0,0-1.9,1.4-5.3,3.6c-1.7,1.2-3.7,2.5-6.1,4.1
					c-2.4,1.5-4.9,3.5-7.8,5.5c-2.8,2-6,4.1-9,6.6c-1.6,1.2-3.2,2.5-4.8,3.7c-1.7,1.2-3.2,2.7-4.9,4.1c-1.6,1.4-3.4,2.8-5,4.3
					c-1.6,1.5-3.2,3.1-4.9,4.7c-1.7,1.5-3.2,3.3-4.7,5l-2.3,2.6c-0.7,0.9-1.4,1.8-2.2,2.7c-1.4,1.8-2.9,3.6-4.2,5.5
					c-1.3,1.9-2.7,3.7-3.9,5.7c-2.5,3.8-4.9,7.7-7.2,11.3c-2.3,3.7-4.7,7.2-7.1,10.4c-1.3,1.6-2.5,3.1-3.7,4.6
					c-0.6,0.8-1.2,1.4-1.8,2.1c-0.6,0.7-1.2,1.3-1.8,2c-0.6,0.6-1.2,1.3-1.7,1.9c-0.3,0.3-0.6,0.6-0.8,0.9c-0.3,0.3-0.6,0.6-0.9,0.8
					c-1.2,1.1-2.3,2.1-3.3,3.1c-1,1-2,1.9-2.9,2.7c-1,0.8-1.8,1.5-2.6,2.1c-3.2,2.6-5,4-5,4L1647.9,1410.9z"/>
			</g>
			<g>
				<path d="M2006.9,1425.1c0,0-1.8-1.5-5-4c-0.8-0.6-1.7-1.4-2.6-2.1c-0.9-0.8-1.9-1.7-2.9-2.7c-1-1-2.1-2-3.3-3.1
					c-0.3-0.3-0.6-0.5-0.9-0.8c-0.3-0.3-0.6-0.6-0.8-0.9c-0.6-0.6-1.1-1.3-1.7-1.9c-0.6-0.6-1.2-1.3-1.8-2c-0.6-0.7-1.3-1.4-1.8-2.1
					c-1.2-1.5-2.4-3-3.7-4.6c-2.4-3.2-4.8-6.7-7.1-10.4c-2.4-3.7-4.7-7.5-7.2-11.3c-1.2-1.9-2.6-3.8-3.9-5.7
					c-1.3-1.9-2.8-3.7-4.2-5.5c-0.7-0.9-1.4-1.8-2.2-2.7l-2.3-2.6c-1.6-1.7-3-3.4-4.7-5c-1.6-1.6-3.3-3.1-4.9-4.7
					c-1.7-1.5-3.4-2.9-5-4.3c-1.7-1.4-3.2-2.8-4.9-4.1c-1.6-1.3-3.3-2.5-4.8-3.7c-3.1-2.5-6.2-4.6-9-6.6c-2.9-2-5.4-4-7.8-5.5
					c-2.4-1.6-4.4-2.9-6.1-4.1c-3.4-2.3-5.3-3.6-5.3-3.6l0.1-0.3c0,0,2.1,1.1,5.7,3c1.8,1,4,2.1,6.5,3.5c0.6,0.3,1.3,0.7,1.9,1.1
					c0.7,0.4,1.3,0.8,2,1.2c1.4,0.8,2.8,1.7,4.3,2.7c1.5,0.9,3,1.9,4.6,2.9c1.6,1,3.1,2.2,4.8,3.4c3.3,2.4,6.7,4.8,10,7.8
					c1.7,1.5,3.4,2.9,5,4.4c1.6,1.6,3.2,3.2,4.8,4.9c1.7,1.6,3.1,3.4,4.7,5.2l2.3,2.7c0.7,0.9,1.4,1.9,2.1,2.8
					c1.4,1.9,2.9,3.7,4.1,5.7c1.3,2,2.6,3.9,3.8,5.8c2.4,3.9,4.7,7.8,7,11.5c1.2,1.8,2.2,3.7,3.4,5.4c1.2,1.7,2.3,3.5,3.4,5.1
					c1.2,1.6,2.3,3.1,3.5,4.6c0.5,0.8,1.1,1.5,1.7,2.1c0.6,0.7,1.2,1.4,1.7,2c0.6,0.7,1.1,1.3,1.7,1.9c0.3,0.3,0.5,0.6,0.8,0.9
					c0.3,0.3,0.6,0.6,0.8,0.9c1.1,1.1,2.2,2.2,3.2,3.2c1,1,1.9,2,2.8,2.8c0.9,0.8,1.8,1.5,2.6,2.2c3.1,2.7,4.8,4.2,4.8,4.2
					L2006.9,1425.1z"/>
			</g>
			<g>
				<path d="M1602,868.9c0,0,0.5,0.1,1.5,0.2c1,0.1,2.4,0.3,4.2,0.6c3.6,0.5,8.7,1.3,14.8,2.3c3.1,0.5,6.4,1.1,9.9,1.8
					c1.7,0.3,3.5,0.7,5.4,1.1c1.8,0.4,3.7,0.8,5.6,1.2c3.8,0.8,7.7,1.7,11.7,2.6c4,0.9,8,1.9,12,2.9c4,1,8,2,12,2.7
					c4,0.8,8,1.4,11.8,1.9c3.8,0.5,7.5,0.9,11.1,1.3c0.9,0.1,1.7,0.2,2.5,0.2c0.9,0,1.7,0.1,2.5,0c0.8,0,1.6,0,2.4-0.1
					c0.8,0,1.6-0.1,2.3-0.2c3-0.2,5.8-0.6,8.3-0.9c2.5-0.3,4.6-0.7,6.4-0.9c3.6-0.5,5.6-0.9,5.6-0.9l0.1,0.3c0,0-0.5,0.2-1.4,0.5
					c-0.9,0.3-2.3,0.8-4,1.3c-1.7,0.5-3.9,1.1-6.4,1.6c-2.5,0.6-5.3,1.1-8.4,1.5c-0.8,0.1-1.6,0.2-2.4,0.2c-0.8,0.1-1.7,0.1-2.5,0.1
					c-0.9,0.1-1.7,0-2.6,0c-1-0.1-1.8-0.2-2.7-0.3c-3.6-0.5-7.2-1.4-11-2.3c-3.8-0.9-7.7-1.8-11.7-2.5c-4-0.8-8.1-1.4-12.2-2
					c-4.1-0.6-8.2-1.2-12.2-1.9c-4-0.7-7.9-1.5-11.8-2.2c-1.9-0.3-3.8-0.7-5.6-1.1c-1.8-0.4-3.6-0.7-5.3-1.1
					c-3.5-0.8-6.7-1.5-9.8-2.3c-6-1.5-11-2.8-14.5-3.8c-1.7-0.5-3.1-0.9-4-1.2c-0.9-0.3-1.4-0.4-1.4-0.4L1602,868.9z"/>
			</g>
			<g>
				<path d="M2035,867.1c0,0-1.6,0.4-4.4,1c-1.4,0.3-3.1,0.6-5.1,1c-1.9,0.4-4.1,0.8-6.5,1.3c-1.2,0.2-2.4,0.5-3.7,0.8
					c-1.3,0.3-2.6,0.5-4,0.8c-2.7,0.6-5.7,0.9-8.7,1.5c-1.5,0.3-3,0.5-4.6,0.9c-1.5,0.3-3.1,0.8-4.6,1.2c-3.1,0.9-6.2,1.9-9.3,3
					c-3.1,1.1-6.1,2.2-9.2,3.2c-3.1,1-6.1,1.9-9.1,2.7c-3,0.8-5.9,1.6-8.6,2c-2.8,0.6-5.5,0.9-7.9,1.2c-1.2,0.1-2.4,0.2-3.6,0.2
					c-1.1,0.1-2.2,0.1-3.2,0.1c-1,0-2,0-2.8-0.1c-0.9,0-1.7,0-2.4-0.2c-1.4-0.2-2.6-0.4-3.3-0.5c-0.8-0.1-1.2-0.2-1.2-0.2l0-0.3
					c0,0,0.4,0,1.2-0.1c0.8,0,1.9-0.1,3.3-0.2c1.4-0.1,3.1-0.3,5.1-0.5c1-0.1,2-0.3,3.1-0.5c1.1-0.2,2.2-0.4,3.4-0.6
					c1.2-0.2,2.4-0.5,3.7-0.8c0.6-0.1,1.3-0.3,1.9-0.4c0.7-0.2,1.3-0.3,2-0.5c1.3-0.3,2.7-0.6,4.2-1c1.4-0.4,2.9-0.7,4.3-1
					c3-0.7,6-1.5,9.1-2.3c3.1-0.8,6.3-1.5,9.5-2.2c3.2-0.7,6.4-1.5,9.5-2.3c3.1-0.8,6.1-1.8,9-2.7c2.9-1,5.8-1.8,8.5-2.5
					c2.7-0.7,5.4-1.1,7.8-1.5c2.4-0.4,4.7-0.6,6.7-0.8c2-0.2,3.7-0.2,5.2-0.3c2.9-0.1,4.5,0,4.5,0L2035,867.1z"/>
			</g>
			<g>
				<path d="M1744.1,796.9c0.6,1,1.2,2,1.7,3.1c0.5,1,1,2.1,1.4,3.2c0.5,1.1,0.9,2.2,1.3,3.2c0.4,1.1,0.8,2.2,1.2,3.3
					c1.6,4.4,3.1,8.8,4.6,13.2l2.3,6.6c0.8,2.2,1.6,4.4,2.4,6.5l1.3,3.2l1.4,3.2c0.5,1,1,2.1,1.5,3.1c0.5,1,1.1,2,1.6,3l-0.1-0.2
					c3.8,4.3,7.9,8.5,12.1,12.4c2.1,2,4.3,3.8,6.5,5.7c2.2,1.9,4.4,3.7,6.6,5.6l3.3,2.7l3.4,2.7l6.8,5.4c2.3,1.8,4.6,3.6,6.8,5.5
					c1.1,1,2.2,1.9,3.2,3c1,1.1,2.1,2.2,2.5,3.7l-0.3,0.1c-0.6-1.2-1.8-2.2-2.9-3.1c-1.1-0.9-2.3-1.7-3.5-2.5
					c-2.4-1.6-4.8-3.2-7.2-4.8c-2.4-1.6-4.8-3.3-7.2-5c-2.4-1.7-4.7-3.4-7-5.3c-4.6-3.6-8.9-7.6-13.1-11.7c-2.1-2.1-4.1-4.2-6.1-6.3
					c-1-1.1-2-2.2-2.9-3.3c-1-1.1-1.9-2.2-2.9-3.3l-0.1-0.1l0-0.1c-0.5-1.1-1.1-2.1-1.6-3.2c-0.5-1.1-1-2.1-1.4-3.2l-1.3-3.3
					l-1.2-3.3c-0.8-2.2-1.5-4.4-2.3-6.6c-0.7-2.2-1.4-4.4-2.1-6.7c-1.4-4.4-2.7-8.9-4.1-13.3c-0.4-1.1-0.7-2.2-1.1-3.3
					c-0.4-1.1-0.8-2.2-1.2-3.3c-0.4-1.1-0.8-2.2-1.3-3.2c-0.4-1.1-1-2.1-1.5-3.1L1744.1,796.9z"/>
			</g>
		</g>
	</g>
</svg>
