<svg version="1.1" xmlns="http://www.w3.org/2000/svg" xmlns:xlink="http://www.w3.org/1999/xlink" st="" width="2047" height="2047" viewBox="0 0 2047 2047" nd="">
<style type="text/css">
	.st0{fill:none;stroke:#000000;stroke-width:3;stroke-miterlimit:10;}
	.st1{fill:none;stroke:#000000;stroke-miterlimit:10;}
	.st2{fill:none;stroke:#000000;stroke-width:3;stroke-miterlimit:80;}
</style>
<g >
		<g id="Front">
			<g>
				<g>
					<path class="st0" d="M229,240.2c-1.1,21,0.5,53.5-0.5,53s-9-12.5-5.5,21.5s18.5,29.1,19.3,24.6c0.7-4.6,5.2,13.9,9.2,30.9
						s4.5,59.5,2,67s-57,38-64,40c-59.5,0-71.5,24.5-78,34s-16.5,67.5-19,93c-2.5,25.5-1,141.5-3,151c-13.5,41-16,51-21,81
						s-13,72.5-12,165c-6.5,26-5,30.5-3,45c-2,25-2,53.5-1.5,72c3,18,2,24,4.5,36.5c5,14,12,36,17,51.5c1.5,4,5.5,2.5,7,0
						c2,4.5,4,7,6,8.5c11.5-2,9-9,7.5-21c-1-6.5-2.5-10-3-15c1.5-11,0-18.5,0.5-23c4,2,4,2,7,2c13,2.5,10.5-9.5,12.5-16.5
						c4-25.5,2.5-5,5-35.5s-0.5-36-15-58c-5.5-11-6.5-18.5-6-25.5s8.5-39,31-113.5c46.5-117.5,27-126,43.5-230
						c4,14,32,112.5,29.5,124c-21,53.5-28,79.5-34.5,133c-30.5,140.5-8.5,212.5,41.5,394c2,22.5,4.5,48,7.5,70.5
						c-3,24.5-2,35.5-0.5,58c-11,79.5-8.5,119.5,33,290.5c-2.5,23-3,33-3,42c-7,12-13,24.5-17.5,28c-17,14.5-33.5,21.5-38,36
						c4,8,14,25,66.5,22c20-5,35-10,45.5-19.5c1.5-17.5,6.5-23,8-39.5c-1-21,1-34,0-56c-11-76.5,6-175.5,6-175.5s9.5,140,6,159
						c-6,11.5-4,30-4.5,42c-2.5,19.5-5,34.5-5,49c22.5,30.5,26.5,45,56.5,38c20.5-2,35.5-2.5,48.5-7.5c7.5-14,17-15.5,2-34.5
						c-21.5-14-26-17.5-33.5-27.5c-5-29-6-51.5-6-55c10.5-81.5,60-215.5,40.5-294c-2.5-31.5-1.5-44,0.5-64c5.5-33.5,8-50.5,11.5-66
						c75-245,70-328.5,54.5-403c-8-63.5-35.5-87-46-133c12.5-50.5,18-79,22.5-118c7.5,38.5,13,82,17,127.5
						c2.5,31,45.5,181.5,63,247.5c0.5,17-12.5,20-13.5,39c-0.5,16,7.5,45.5,8.5,63c1,9.5,2.5,14.5,7,16.5c-0.5,8-8.5,20,2.5,27
						c-1,7.5-4,13.5,1,15c-2,9,3,14.5,10,14c0.5-2.5,0-6,0-6s3.5,5,6-1.5c4-17,16.5-47,24.5-86c-2-36-7-56-7-66
						c-0.5-53-0.5-55-4-119.5c-24.5-137-31-181-40-305.5c-2.5-74.5-4.5-116-38.5-129.5c-32-10.5-51-16-71.5-23.5
						c-31.5-26-37-26-51.5-54c-3-37-3.5-39,0-58.5s4.5-26,7.5-31c18.5,12,18.5-23,20-40.5c0-0.2,0-0.4,0-0.6c0.2-2,1-18.9-8-10.4
						c-1.6-19.5-2.4-34.9-4-49.5C380,147.2,234,147.2,229,240.2z"/>
				</g>
				<g>
					<path d="M152.2,560.2c0.5,1.2,1.1,2.5,1.6,3.7c0.5,1.3,1.1,2.4,1.6,3.7l0.8,1.8l0.9,1.8c0.6,1.2,1.2,2.4,1.8,3.5
						c0.6,1.2,1.2,2.3,1.9,3.4c0.7,1.1,1.3,2.3,2.1,3.4c1.4,2.3,2.8,4.5,4.3,6.8c0.7,1.1,1.4,2.3,2.1,3.5c0.6,1.2,1.3,2.4,1.9,3.7
						c0.6,1.3,1.2,2.5,1.7,3.8c0.5,1.3,1,2.6,1.4,4l0.6,2c0.2,0.7,0.3,1.4,0.4,2l0.4,2c0.1,0.7,0.2,1.4,0.3,2.1
						c0.1,1.4,0.4,2.7,0.4,4.1l0.2,4.1l0,0.3l0,0.2c-0.4,1.5-0.8,3-1.1,4.4c-0.3,1.5-0.7,3-0.9,4.5c-0.5,3-0.8,6.1-0.8,9.1l0,2.3
						c0,0.8,0.1,1.5,0.1,2.3c0,0.8,0.1,1.5,0.2,2.3c0.1,0.8,0.2,1.5,0.3,2.3c0.5,3,1.3,5.9,2.5,8.7c1.2,2.8,2.7,5.4,4.4,7.7
						c1.8,2.4,3.9,4.4,6.2,6.2c2.3,1.8,4.8,3.3,7.4,4.6c2.6,1.2,5.4,2.2,8.3,2.9c5.7,1.4,11.7,1.7,17.6,1.5c3-0.1,5.9-0.4,8.9-0.9
						c3-0.5,5.9-1.1,8.8-1.8c2.9-0.8,5.8-1.7,8.5-2.8c2.8-1.1,5.5-2.4,8.1-3.9c2.6-1.5,5.1-3.2,7.3-5.3c1.1-1,2.1-2.1,3-3.3
						c0.9-1.2,1.7-2.5,2.4-3.9l0.5,0.2c-0.4,1.5-1,3-1.7,4.4c-0.8,1.4-1.7,2.7-2.7,4c-2,2.5-4.4,4.6-7,6.5c-2.6,1.9-5.3,3.5-8.2,4.9
						c-2.9,1.4-5.8,2.6-8.8,3.6c-3,1-6.1,1.8-9.3,2.4c-3.1,0.6-6.3,1-9.5,1.2c-6.4,0.3-12.9-0.3-19.1-2c-6.2-1.8-12.3-4.7-17.1-9.2
						c-2.4-2.2-4.5-4.8-6.2-7.5c-1.7-2.8-3-5.7-3.9-8.8c-0.5-1.5-0.9-3.1-1.2-4.6l-0.5-2.3l-0.3-2.3c-0.4-3.1-0.6-6.2-0.6-9.4
						c0-3.1,0.1-6.3,0.4-9.4c0.2-3.1,0.6-6.2,1-9.3l0,0.4l-0.6-3.9c-0.2-1.3-0.5-2.6-0.8-3.8c-0.2-1.3-0.6-2.5-0.9-3.8
						c-0.2-0.6-0.3-1.3-0.5-1.9l-0.6-1.8c-0.4-1.2-0.9-2.4-1.3-3.6c-0.4-1.2-1-2.4-1.5-3.6c-0.5-1.2-1.2-2.3-1.7-3.5l-1.9-3.5
						c-1.3-2.3-2.6-4.7-3.9-7.1c-0.6-1.2-1.2-2.4-1.8-3.7c-0.6-1.2-1.1-2.5-1.7-3.7c-0.5-1.2-1-2.5-1.4-3.8
						c-0.2-0.6-0.5-1.3-0.7-1.9l-0.6-2c-0.4-1.3-0.8-2.6-1-3.9c-0.3-1.3-0.5-2.6-0.8-4L152.2,560.2z"/>
				</g>
				<g>
					<path d="M483.2,571.3c-0.3,1.2-0.5,2.4-0.8,3.6c-0.3,1.2-0.7,2.4-1,3.6l-0.6,1.8l-0.7,1.8c-0.5,1.2-0.9,2.4-1.5,3.5
						c-0.5,1.2-1,2.3-1.6,3.4c-0.6,1.1-1.2,2.2-1.8,3.3c-1.2,2.2-2.6,4.3-3.8,6.4l-1.9,3.1c-0.6,1-1.2,2.1-1.7,3.1
						c-0.5,1.1-1.1,2.1-1.5,3.2c-0.5,1.1-0.9,2.2-1.3,3.3c-0.4,1.1-0.8,2.2-1.1,3.4c-0.3,1.1-0.7,2.3-0.9,3.4l-0.4,1.7l-0.2,0.9
						l-0.1,0.9l-0.6,3.6l0-0.5c0.5,3,0.9,6,1.1,9c0.1,1.5,0.2,3,0.3,4.5c0,0.8,0,1.5,0,2.3c0,0.8,0,1.5,0,2.3c-0.1,3-0.3,6-0.9,9
						c-0.5,3-1.4,5.9-2.5,8.7c-1.2,2.8-2.7,5.6-4.6,8c-1.9,2.5-4.1,4.7-6.7,6.6c-2.5,1.9-5.3,3.4-8.1,4.6c-2.9,1.2-5.8,2.1-8.9,2.8
						c-6,1.4-12.2,1.8-18.4,1.4c-3.1-0.2-6.1-0.6-9.1-1.1c-3-0.5-6-1.3-8.9-2.2c-2.9-0.9-5.8-2-8.6-3.2c-2.8-1.3-5.5-2.7-8-4.4
						c-2.5-1.7-4.9-3.7-7-5.9c-2-2.3-3.8-4.9-4.6-7.9l0.5-0.2c0.7,1.3,1.5,2.5,2.4,3.6c0.9,1.1,2,2.1,3.1,3c2.2,1.8,4.7,3.3,7.2,4.7
						c2.6,1.3,5.2,2.4,7.9,3.4c2.7,1,5.5,1.8,8.3,2.5c2.8,0.7,5.6,1.2,8.5,1.6c2.8,0.4,5.7,0.7,8.6,0.8c2.9,0.1,5.7,0.2,8.6,0
						c2.9-0.1,5.7-0.4,8.5-1c2.8-0.5,5.5-1.2,8.2-2.2c2.7-1,5.2-2.2,7.6-3.7c2.4-1.5,4.6-3.2,6.6-5.3c1.9-2,3.6-4.4,5-6.9
						c1.3-2.6,2.3-5.3,2.9-8.2c0.3-1.4,0.5-2.9,0.7-4.3c0.1-1.5,0.2-2.9,0.2-4.4c0-2.9-0.3-5.8-0.8-8.7c-0.5-2.9-1.3-5.7-2.1-8.5
						l-0.1-0.2l0-0.3l0.2-3.8l0.1-1l0.1-0.9l0.2-1.9c0.1-1.3,0.4-2.5,0.7-3.8c0.2-0.6,0.3-1.3,0.5-1.9l0.6-1.8
						c0.4-1.2,0.9-2.4,1.4-3.6c0.2-0.6,0.5-1.2,0.8-1.7l0.9-1.7c0.6-1.1,1.3-2.2,1.9-3.3c0.7-1.1,1.4-2.1,2.1-3.1l2.1-3l2.1-3
						c0.7-1,1.4-2,2-3c0.7-1,1.3-2.1,1.9-3.1c0.7-1,1.2-2.1,1.8-3.2l0.9-1.6l0.8-1.6c0.5-1.1,1.1-2.2,1.6-3.3c0.5-1.1,1-2.3,1.6-3.4
						L483.2,571.3z"/>
				</g>
				<g>
					<path d="M314.8,844c0,0,0-0.1,0.1-0.4c0.1-0.2,0.1-0.6,0.3-1c0.1-0.4,0.3-0.9,0.7-1.4c0.2-0.3,0.4-0.5,0.6-0.8
						c0.2-0.3,0.4-0.5,0.7-0.8c0.2-0.3,0.5-0.5,0.8-0.8c0.3-0.2,0.6-0.5,0.9-0.7c0.6-0.5,1.3-0.8,2.1-1.2c0.4-0.2,0.7-0.3,1.1-0.4
						c0.4-0.1,0.8-0.3,1.2-0.4c0.8-0.2,1.6-0.3,2.5-0.4c0.8,0,1.7,0,2.5,0.1c0.4,0,0.8,0.1,1.2,0.2c0.4,0.1,0.8,0.2,1.2,0.3
						c0.8,0.3,1.5,0.6,2.2,1c0.7,0.4,1.3,0.8,1.8,1.3c0.5,0.5,1,1,1.4,1.5c0.4,0.5,0.6,1,0.8,1.4c0.2,0.4,0.3,0.8,0.3,1.1
						c0.1,0.2,0.1,0.4,0.1,0.4l-0.4,0.5c0,0-0.3-0.2-0.8-0.5c-0.3-0.1-0.6-0.2-1-0.4c-0.4-0.1-0.9-0.3-1.4-0.4
						c-0.5-0.1-1.1-0.2-1.7-0.3c-0.6-0.1-1.2-0.1-1.9-0.2c-0.7,0-1.3-0.1-2-0.1c-0.7,0-1.4,0-2.1,0.1c-1.4,0.1-2.8,0.2-4.1,0.5
						c-0.6,0.1-1.3,0.2-1.9,0.4c-0.6,0.1-1.1,0.3-1.6,0.5c-0.5,0.2-1,0.3-1.3,0.5c-0.4,0.2-0.7,0.3-1,0.4c-0.6,0.3-0.9,0.5-0.9,0.5
						L314.8,844z"/>
				</g>
				<g>
					<path d="M198.1,608.3c0,0-0.1,0.3-0.2,0.7c-0.1,0.5-0.3,1.2-0.5,2c-0.2,0.9-0.4,1.9-0.7,3.1c-0.2,1.2-0.4,2.6-0.4,4
						c-0.1,0.7,0.1,1.5,0.1,2.3c0,0.4,0.1,0.8,0.2,1.1c0.1,0.4,0.1,0.8,0.3,1.1c0.4,1.5,1.3,2.9,2.5,3.8c1.2,1,2.9,1.5,4.6,1.7
						c1.8,0.2,3.7,0,5.5-0.4c1.9-0.4,3.7-1,5.4-1.8c0.9-0.4,1.7-0.8,2.6-1.3c0.8-0.5,1.6-0.9,2.4-1.4c0.8-0.5,1.5-1,2.2-1.6
						c0.4-0.3,0.7-0.5,1-0.8c0.3-0.3,0.7-0.6,1-0.8c1.3-1.1,2.4-2.3,3.4-3.4c0.5-0.5,0.9-1.1,1.4-1.7c0.5-0.5,0.8-1.1,1.2-1.6
						c0.7-1,1.2-2,1.7-2.7c0.8-1.6,1.3-2.5,1.3-2.5l0.2,0.1c0,0-0.1,0.2-0.2,0.7c-0.2,0.5-0.4,1.1-0.7,2c-0.4,0.8-0.8,1.8-1.4,2.9
						c-0.6,1.1-1.4,2.3-2.3,3.6c-0.9,1.2-2,2.5-3.3,3.8c-0.3,0.3-0.6,0.6-1,0.9c-0.3,0.3-0.7,0.6-1,0.9c-0.7,0.6-1.5,1.2-2.3,1.8
						c-1.6,1.1-3.3,2.2-5.2,3c-1.8,0.9-3.8,1.6-5.8,2c-2,0.4-4.1,0.6-6.2,0.4c-2-0.2-4-1-5.5-2.3c-1.5-1.3-2.4-3.1-2.8-4.8
						c-0.1-0.4-0.2-0.9-0.2-1.3c0-0.4-0.1-0.9-0.1-1.3c0-0.8,0-1.7,0.1-2.4c0.1-0.8,0.2-1.5,0.3-2.2c0.2-0.7,0.3-1.3,0.4-2
						c0.4-1.2,0.7-2.3,1-3.1c0.7-1.7,1-2.6,1-2.6L198.1,608.3z"/>
				</g>
				<g>
					<path d="M209.6,606.8c0,0,0,0.1,0.1,0.3c0.1,0.2,0.2,0.4,0.2,0.7c0.1,0.3,0.3,0.6,0.4,0.9c0.2,0.3,0.3,0.7,0.5,0.9
						c0.2,0.3,0.4,0.5,0.6,0.4c0.2,0,0.3-0.3,0.1-0.5c-0.1-0.3-0.3-0.4-0.2-0.4c0-0.1,0.2-0.1,0.4-0.1c0.2,0,0.5-0.1,0.8-0.2
						c0.3-0.1,0.7-0.2,1-0.2c0.7-0.2,1.4-0.4,2.1-0.6c0.3-0.1,0.7-0.2,1-0.4c0.3-0.1,0.6-0.3,0.9-0.4c0.6-0.3,0.9-0.4,0.9-0.4
						l0.4,0.1c0,0-0.1,0.3-0.2,0.7c-0.2,0.5-0.5,1.1-1,1.8c-1,1.4-2.8,2.9-5.1,3.5c-0.6,0.1-1.2,0.2-1.7,0.1
						c-0.6-0.1-1.2-0.3-1.6-0.7c-0.5-0.4-0.7-0.9-0.8-1.4c-0.1-0.5-0.1-1-0.1-1.4c0-0.4,0.2-0.8,0.2-1.1c0.1-0.3,0.2-0.6,0.3-0.8
						c0.2-0.4,0.3-0.7,0.3-0.7L209.6,606.8z"/>
				</g>
				<g>
					<path d="M440.2,605.7c0,0,0.1,0.2,0.4,0.7c0.2,0.4,0.6,1,1,1.9c0.4,0.8,0.8,1.9,1.3,3.1c0.2,0.6,0.4,1.3,0.6,2
						c0.2,0.7,0.3,1.5,0.5,2.3c0.2,0.8,0.2,1.7,0.3,2.6c0,0.4,0,0.9-0.1,1.4c0,0.5-0.1,1-0.2,1.4c-0.1,0.5-0.2,1-0.4,1.5
						c-0.2,0.5-0.4,1-0.6,1.5c-0.3,0.5-0.6,0.9-0.9,1.4c-0.4,0.4-0.8,0.8-1.2,1.2c-1.7,1.5-4,2.5-6.3,2.7c-2.3,0.3-4.5,0.1-6.7-0.3
						c-2.2-0.5-4.2-1.2-6.2-2.2c-2-0.9-3.7-2.1-5.3-3.3c-0.8-0.6-1.6-1.2-2.3-1.9c-0.4-0.3-0.7-0.6-1-1c-0.3-0.3-0.6-0.7-1-1
						c-1.3-1.3-2.3-2.7-3.2-4.1c-0.9-1.3-1.6-2.6-2.1-3.8c-0.6-1.2-0.9-2.2-1.2-3.1c-0.3-0.9-0.4-1.6-0.5-2.1
						c-0.1-0.5-0.2-0.7-0.2-0.7l0.2-0.1c0,0,0.1,0.2,0.3,0.7c0.2,0.4,0.4,1.1,0.7,1.9c0.4,0.8,0.8,1.8,1.4,2.9
						c0.6,1.1,1.4,2.3,2.3,3.5c0.9,1.2,2,2.5,3.3,3.7c0.3,0.3,0.6,0.6,1,0.9c0.3,0.3,0.7,0.6,1,0.9c0.7,0.6,1.5,1.2,2.2,1.7
						c1.6,1.1,3.3,2.1,5.1,2.9c1.8,0.9,3.8,1.5,5.8,1.9c2,0.4,4,0.6,6,0.4c2-0.2,3.9-0.9,5.4-2.1c1.5-1.2,2.4-2.9,2.7-4.6
						c0.1-0.4,0.2-0.8,0.2-1.3c0-0.4,0.1-0.8,0.1-1.2c0-0.8,0-1.6-0.1-2.4c-0.1-0.8-0.1-1.5-0.3-2.2c-0.2-0.7-0.3-1.3-0.4-1.9
						c-0.4-1.2-0.7-2.2-1-3.1c-0.7-1.7-1-2.6-1-2.6L440.2,605.7z"/>
				</g>
				<g>
					<path d="M428.9,604.1c0,0,0.3,0.2,0.7,0.5c0.2,0.2,0.5,0.4,0.7,0.8c0.2,0.3,0.5,0.7,0.7,1.2c0.1,0.2,0.2,0.6,0.3,0.9
						c0.1,0.3,0.1,0.7,0.1,1.1c0,0.8-0.4,1.8-1.2,2.6c-0.8,0.8-1.8,1.2-2.7,1.3c-0.9,0.2-1.7,0.1-2.5-0.1c-0.8-0.2-1.5-0.4-2.1-0.8
						c-0.6-0.3-1.2-0.8-1.6-1.2c-0.5-0.4-0.9-0.9-1.2-1.4c-0.3-0.5-0.5-1-0.7-1.5c-0.2-0.5-0.3-0.9-0.3-1.4c-0.1-0.4,0-0.8,0-1.1
						c0-0.3,0.1-0.5,0.1-0.7c0-0.2,0.1-0.2,0.1-0.2l0.3-0.1c0,0,0.1,0.3,0.3,0.7c0.2,0.4,0.5,1,1,1.6c0.9,1.3,2.7,2.7,4.8,3.1
						c1,0.2,2.1,0.2,2.8-0.4c0.7-0.6,0.8-1.6,0.7-2.3c-0.1-0.8-0.3-1.4-0.4-1.9c-0.2-0.4-0.3-0.7-0.3-0.7L428.9,604.1z"/>
				</g>
				<g>
					<path d="M320.1,848.2c0,0,0.2,0.3,0.5,0.9c0.3,0.6,0.7,1.4,1.2,2.3c0.2,0.5,0.5,0.9,0.7,1.5c0.1,0.3,0.2,0.5,0.4,0.8
						c0.1,0.3,0.3,0.6,0.4,0.8c0.3,0.6,0.8,1.1,1.4,1.4c0.3,0.1,0.6,0.2,1,0.3c0.3,0,0.7,0.1,1,0l0.5-0.1c0.1,0,0.2,0,0.3-0.1
						l0.2-0.1c0.3-0.1,0.5-0.2,0.8-0.4c0.5-0.3,1-0.7,1.4-1.1c0.2-0.2,0.4-0.5,0.6-0.7c0.2-0.2,0.4-0.5,0.5-0.7
						c0.3-0.5,0.7-0.9,1-1.3c1.2-1.8,2-3,2-3l0.2,0c0,0,0.1,0.4,0,1.1c0,0.3-0.1,0.7-0.2,1.2c-0.1,0.5-0.2,1-0.4,1.5
						c-0.1,0.3-0.2,0.6-0.4,0.8c-0.1,0.3-0.3,0.6-0.5,0.9c-0.2,0.3-0.4,0.6-0.6,0.9c-0.3,0.3-0.5,0.6-0.8,0.8
						c-0.6,0.5-1.3,1-2.1,1.2c-0.2,0.1-0.4,0.1-0.6,0.2l-0.7,0.1c-0.2,0-0.4,0-0.6,0l-0.5-0.1l-0.1,0l-0.1,0l-0.1,0l-0.3-0.1
						l-0.6-0.2c-0.4-0.1-0.7-0.3-1.1-0.5c-0.7-0.4-1.3-0.7-1.9-1.2c-0.3-0.2-0.6-0.4-0.9-0.7c-0.3-0.2-0.5-0.5-0.7-0.8
						c-0.4-0.6-0.6-1.2-0.8-1.7c-0.2-0.6-0.3-1.1-0.3-1.5c-0.1-0.5-0.1-0.9-0.1-1.2c0-0.7,0.1-1.1,0.1-1.1L320.1,848.2z"/>
				</g>
				<g>
					<path d="M322,1085.4c0,0,0.1,0,0.4-0.1c0.3-0.1,0.7-0.1,1.2-0.3c1-0.3,2.4-0.8,4.1-1.7c1.7-0.9,3.6-2.2,5.7-3.8
						c2.1-1.6,4.3-3.7,6.7-6c2.3-2.3,4.8-5,7.3-7.8c2.5-2.8,5.2-5.9,7.9-9.1c2.8-3.2,5.6-6.4,8.5-9.7c2.9-3.3,5.8-6.8,8.7-10.2
						c5.7-6.9,11.4-14,16.9-20.4c5.5-6.4,10.9-12.3,15.7-17c4.9-4.8,9.2-8.4,12.5-10.6c1.6-1.1,3-1.9,3.9-2.4
						c0.9-0.5,1.5-0.7,1.5-0.7l0.3,0.5c0,0-0.5,0.3-1.4,0.8c-0.9,0.6-2.2,1.4-3.7,2.6c-3.1,2.4-7.2,6.2-11.6,11.2
						c-4.5,5-9.4,11.1-14.5,17.8c-5.1,6.7-10.5,13.9-15.9,21.1c-2.7,3.6-5.4,7.2-8.1,10.8c-2.7,3.6-5.4,7-8.1,10.3
						c-2.8,3.2-5.6,6.3-8.4,9c-1.4,1.4-2.8,2.7-4.2,3.9c-1.4,1.2-2.8,2.4-4.2,3.4c-2.7,2.2-5.4,3.9-7.9,5.3
						c-2.5,1.4-4.8,2.3-6.8,2.9c-2,0.6-3.6,0.8-4.7,0.8c-0.6,0-0.9,0-1.2,0c-0.3,0-0.4,0-0.4,0L322,1085.4z"/>
				</g>
				<g>
					<path d="M324,1086.5c0,0-0.2,0-0.5,0.1c-0.3,0.1-0.8,0.2-1.5,0.2c-1.4,0.1-3.3-0.1-5.7-1c-2.3-0.9-4.9-2.5-7.5-4.6
						c-2.6-2.1-5.3-4.8-8-7.9c-1.4-1.5-2.7-3.2-4.1-4.9c-1.3-1.7-2.7-3.6-4-5.5c-2.7-3.8-5.4-7.9-8-12.2c-2.6-4.3-5.1-8.9-7.6-13.6
						c-2.5-4.7-5-9.4-7.5-14.2c-5-9.5-10-19-14.8-27.7c-2.4-4.4-4.8-8.6-7.1-12.6c-2.3-4-4.6-7.6-6.8-11
						c-4.4-6.7-8.6-11.9-11.9-15.1c-1.7-1.6-3.1-2.7-4.1-3.4c-0.5-0.4-0.9-0.6-1.2-0.8c-0.3-0.2-0.4-0.3-0.4-0.3l0.3-0.5
						c0,0,0.1,0.1,0.4,0.2c0.3,0.2,0.7,0.4,1.3,0.7c1.1,0.7,2.6,1.7,4.4,3.3c1.8,1.5,3.9,3.6,6,6c2.2,2.5,4.5,5.4,6.9,8.6
						c2.4,3.3,4.9,6.9,7.4,10.7c2.6,3.9,5.1,8,7.7,12.3c5.2,8.6,10.6,17.9,16,27.2c2.7,4.6,5.4,9.2,8.2,13.7c2.7,4.5,5.4,8.9,8,13.1
						c2.6,4.3,5.1,8.4,7.5,12.2c1.2,1.9,2.4,3.8,3.6,5.6c1.2,1.8,2.3,3.5,3.5,5.1c2.3,3.2,4.5,6,6.7,8.3c2.2,2.3,4.2,4.1,6.1,5.3
						c1.9,1.2,3.6,1.7,4.7,1.9c0.6,0.1,1.1,0.1,1.4,0.1c0.3,0,0.5,0,0.5,0L324,1086.5z"/>
				</g>
				<g>
					<path d="M298.9,486.5c0,0-0.4-0.2-1-0.5c-0.7-0.3-1.6-0.8-2.9-1.3c-1.2-0.5-2.8-1-4.6-1.5c-1.8-0.5-3.9-0.9-6.1-1.2
						c-2.3-0.4-4.8-0.5-7.4-0.5c-2.6,0-5.4,0.1-8.3,0.4c-5.7,0.5-11.9,1.4-18,2.5c-6.1,1.1-12.2,2.2-18,3c-2.9,0.4-5.7,0.7-8.4,0.9
						c-2.7,0.2-5.2,0.3-7.5,0.3c-1.2,0-2.3,0-3.4-0.1c-1.1,0-2.1-0.1-3-0.2c-0.9-0.1-1.8-0.1-2.6-0.2c-0.8-0.1-1.6-0.2-2.2-0.3
						c-1.4-0.2-2.4-0.4-3.1-0.5c-0.7-0.1-1.1-0.2-1.1-0.2l0-0.2c0,0,0.4,0.1,1.1,0.2c0.7,0.1,1.8,0.3,3.1,0.4
						c0.7,0.1,1.4,0.1,2.2,0.2c0.8,0.1,1.7,0.1,2.6,0.1c0.9,0.1,1.9,0.1,3,0.1c1.1,0,2.2,0,3.3,0c2.3-0.1,4.8-0.3,7.5-0.5
						c2.6-0.3,5.4-0.6,8.3-1.1c5.7-0.9,11.8-2.2,17.9-3.4c3-0.6,6.1-1.2,9.1-1.8c3-0.5,6-0.9,9-1.3c2.9-0.2,5.8-0.4,8.5-0.2
						c2.7,0.2,5.3,0.4,7.6,0.9c2.3,0.4,4.4,1.1,6.2,1.7c1.8,0.7,3.3,1.3,4.5,2c1.2,0.6,2.1,1.2,2.7,1.6c0.6,0.4,0.9,0.6,0.9,0.6
						L298.9,486.5z"/>
				</g>
				<g>
					<path d="M335.8,486.8c0,0,0.3-0.2,0.7-0.6c0.5-0.4,1.2-0.9,2.2-1.5c0.5-0.3,1-0.7,1.7-1c0.6-0.3,1.3-0.7,2-1
						c0.8-0.3,1.5-0.6,2.4-0.9c0.9-0.3,1.8-0.6,2.8-0.8c2-0.5,4.1-0.7,6.4-0.9c2.3-0.1,4.7,0,7.2,0.2c2.5,0.3,5,0.7,7.5,1.2
						c2.5,0.5,5.1,1.1,7.6,1.8c5.1,1.2,10.1,2.5,14.9,3.4c2.4,0.5,4.7,0.8,6.9,1.1c2.2,0.3,4.3,0.5,6.3,0.5c1,0,1.9,0.1,2.8,0
						c0.9,0,1.7,0,2.5-0.1c0.8-0.1,1.5-0.1,2.2-0.1c0.7-0.1,1.3-0.1,1.9-0.2c1.1-0.1,2-0.3,2.6-0.4c0.6-0.1,0.9-0.2,0.9-0.2l0,0.2
						c0,0-0.3,0.1-0.9,0.2c-0.6,0.1-1.5,0.3-2.6,0.5c-0.6,0.1-1.2,0.2-1.9,0.3c-0.7,0.1-1.4,0.1-2.2,0.2c-0.8,0.1-1.6,0.1-2.5,0.2
						c-0.9,0.1-1.8,0.1-2.8,0.1c-3.9,0-8.5-0.4-13.4-1.2c-4.9-0.8-10-1.9-15.1-3c-5.1-1.1-10.2-2-15-2.5c-2.4-0.3-4.7-0.3-6.9-0.4
						c-1.1,0.1-2.2,0-3.2,0.2c-0.5,0-1,0.1-1.5,0.1c-0.5,0.1-1,0.2-1.4,0.2c-1,0.1-1.8,0.4-2.7,0.5c-0.8,0.2-1.6,0.5-2.4,0.7
						c-1.5,0.5-2.7,1-3.8,1.5c-1,0.4-1.8,0.9-2.3,1.2c-0.5,0.3-0.8,0.4-0.8,0.4L335.8,486.8z"/>
				</g>
				<g>
					<path d="M257.4,368.5c0,0,0.3,0.5,0.9,1.5c0.3,0.5,0.7,1.1,1.1,1.8c0.4,0.7,1,1.5,1.5,2.4c1.1,1.8,2.6,3.9,4.3,6.3
						c1.7,2.4,3.8,5,6.1,7.7c2.3,2.7,5,5.6,8.1,8.2c3.1,2.7,6.6,5.2,10.5,7.2c3.9,2.1,8.2,3.6,12.7,4.2c2.3,0.3,4.5,0.4,6.9,0.3
						c2.3-0.1,4.7-0.4,7-0.8c4.6-0.9,9.2-2.1,13.5-3.8c4.3-1.7,8.4-3.9,12-6.4c0.9-0.6,1.8-1.3,2.7-1.9c0.8-0.7,1.7-1.3,2.5-2
						c1.6-1.4,3.2-2.8,4.6-4.2c2.9-2.9,5.3-5.9,7.4-8.8c0.5-0.7,1-1.5,1.4-2.2c0.5-0.7,0.9-1.4,1.3-2.1c0.4-0.7,0.8-1.4,1.2-2.1
						c0.4-0.7,0.7-1.3,1.1-2c0.3-0.6,0.7-1.3,1-1.9c0.3-0.6,0.6-1.2,0.8-1.8c0.3-0.6,0.5-1.1,0.8-1.7c0.2-0.5,0.4-1.1,0.6-1.5
						c0.8-1.9,1.4-3.5,1.8-4.6c0.4-1.1,0.6-1.6,0.6-1.6l0.2,0.1c0,0-0.2,0.6-0.5,1.7c-0.3,1.1-0.8,2.7-1.6,4.7
						c-0.2,0.5-0.4,1-0.6,1.6c-0.2,0.5-0.5,1.1-0.7,1.7c-0.2,0.6-0.5,1.2-0.8,1.8c-0.3,0.6-0.6,1.3-0.9,1.9
						c-1.2,2.7-2.9,5.6-4.8,8.7c-2,3.1-4.4,6.2-7.3,9.2c-2.9,3-6.2,6-9.9,8.6c-3.8,2.6-7.9,4.9-12.3,6.7c-4.4,1.8-9.1,3.2-13.9,4
						c-4.8,0.8-9.7,1.1-14.4,0.4c-4.7-0.7-9.2-2.3-13.2-4.5c-4-2.2-7.5-4.9-10.6-7.7c-3.1-2.8-5.7-5.8-8-8.6c-2.3-2.8-4.2-5.5-5.9-8
						c-1.6-2.5-3-4.7-4.1-6.5c-1.1-1.8-1.9-3.3-2.4-4.3c-0.5-1-0.8-1.5-0.8-1.5L257.4,368.5z"/>
				</g>
				<g>
					<path d="M318.3,1235.9c0,0,0.1,2.6,0.2,7.2c0.1,4.6,0.2,11.1,0.3,18.9c0.1,3.9,0.1,8.1,0.2,12.6c0,4.5,0.1,9.2,0.2,14.1
						c0.1,9.8,0.2,20.2,0.3,30.6c0.1,5.2,0.2,10.4,0.2,15.6c0.1,5.1,0.2,10.2,0.1,15.1c-0.1,4.9-0.2,9.6-0.5,14.1
						c-0.1,2.2-0.2,4.4-0.4,6.5c-0.2,2.1-0.3,4.1-0.4,6.1c-0.3,3.9-0.6,7.5-0.9,10.6c-0.3,3.2-0.6,5.9-0.9,8.2
						c-0.3,2.3-0.5,4.1-0.7,5.3c-0.2,1.2-0.3,1.9-0.3,1.9l-0.7,0c0,0-0.1-0.7-0.2-1.9c-0.2-1.2-0.3-3-0.6-5.3
						c-0.2-2.3-0.4-5.1-0.7-8.2c-0.2-3.2-0.4-6.8-0.6-10.7c-0.1-2-0.2-4-0.2-6.1c0-2.1-0.1-4.3-0.1-6.5c-0.1-4.5-0.1-9.2,0-14.1
						c0.1-4.9,0.3-9.9,0.6-15c0.2-5.1,0.5-10.3,0.7-15.5c0.4-10.4,0.9-20.8,1.3-30.6c0.2-4.9,0.4-9.6,0.6-14.1
						c0.2-4.5,0.4-8.7,0.6-12.6c0.4-7.8,0.7-14.3,0.9-18.9c0.2-4.6,0.4-7.2,0.4-7.2L318.3,1235.9z"/>
				</g>
				<path class="st1" d="M322,1085.7"/>
				<g>
					<polygon points="324.2,1085.3 317.7,1247.2 317.2,1085.2 					"/>
				</g>
				<path class="st0" d="M313.3,1503.6c-2.7-22-5.7-37-5.3-53.3c3.3-9.3,4.7-32.3,7.7-59.3c2,26.3,3.3,44,5.3,58.7
					C321,1470.9,316,1480.9,313.3,1503.6z"/>
				<g>
					<path d="M313.8,1497.9c0,0,0.2,1.5,0.5,4.2c0.1,1.3,0.3,3,0.4,4.8c0.1,1.9,0.2,4,0.3,6.2c0,2.3,0.1,4.8,0,7.4
						c-0.1,2.6-0.3,5.4-0.5,8.3c-0.2,2.9-0.4,5.8-0.3,8.8c0,3,0.2,6.1,0.4,9.1c0.2,3.1,0.4,6.1,0.5,9.1c0.1,3,0.2,6,0.2,8.8
						c0,1.4,0,2.8,0,4.2c0,1.4,0,2.7,0,4c0,2.6-0.1,5.1-0.2,7.4c-0.2,4.6-0.5,8.4-0.7,11.1c-0.1,1.3-0.2,2.4-0.3,3.1
						c-0.1,0.7-0.1,1.1-0.1,1.1h-0.3c0,0,0-0.4-0.1-1.1c-0.1-0.7-0.2-1.8-0.3-3.1c-0.3-2.7-0.5-6.5-0.7-11.1
						c-0.1-2.3-0.2-4.8-0.2-7.4c0-1.3-0.1-2.7,0-4c0-1.4,0-2.8,0-4.2c0.1-2.9,0.2-5.8,0.2-8.8c0.1-3,0.3-6.1,0.5-9.1
						c0.2-3.1,0.4-6.1,0.4-9.1c0-3-0.1-6-0.3-8.8c-0.2-2.9-0.5-5.6-0.5-8.3c-0.1-2.6,0-5.1,0-7.4c0.1-2.3,0.2-4.4,0.3-6.2
						c0.1-1.9,0.2-3.5,0.4-4.8c0.2-2.7,0.5-4.2,0.5-4.2H313.8z"/>
				</g>
				<g>
					<path d="M292.8,1367.9c0,0,0,0.3-0.1,1c-0.1,0.6-0.1,1.6-0.3,2.8c-0.1,1.2-0.2,2.6-0.3,4.3c-0.1,1.6-0.2,3.5-0.2,5.5
						c0,2,0,4.2,0,6.5c0,2.3-0.1,4.8-0.1,7.3c0,2.6,0.1,5.2,0.4,7.9l0.1,1l0,0.3c0,0.1,0,0,0,0.2l0,0.1l0,0.5c0,0.7,0.1,1.4,0.1,2
						c0.1,1.3,0.1,2.7,0.2,4.1c0.1,2.8-0.2,5.6-0.8,8.3c-0.1,0.7-0.4,1.3-0.5,2c-0.2,0.7-0.3,1.3-0.6,2c-0.5,1.3-0.9,2.6-1.5,3.7
						c-0.3,0.6-0.5,1.2-0.8,1.8c-0.3,0.6-0.6,1.1-0.9,1.7c-0.6,1.1-1.3,2.1-1.9,3.1c-1.3,2-2.6,3.8-3.7,5.5
						c-0.3,0.4-0.6,0.8-0.8,1.2c-0.3,0.4-0.5,0.8-0.7,1.2c-0.2,0.4-0.5,0.8-0.7,1.1c-0.2,0.4-0.4,0.7-0.6,1.1
						c-0.9,1.4-1.5,2.7-2,3.7c-0.5,1.1-0.9,1.9-1.1,2.5c-0.3,0.6-0.4,0.9-0.4,0.9l-0.3-0.1c0,0,0.1-0.3,0.2-1
						c0.1-0.6,0.3-1.6,0.6-2.8c0.3-1.2,0.7-2.6,1.4-4.2c0.3-0.8,0.6-1.6,1.1-2.5c0.4-0.9,0.8-1.8,1.3-2.7c1-1.8,2.1-3.8,3.3-5.7
						c1.1-2,2.4-4.1,3.5-6.3c0.6-1.1,1.1-2.3,1.6-3.4c0.3-0.6,0.4-1.2,0.7-1.8c0.2-0.6,0.5-1.2,0.6-1.8c0.2-0.6,0.3-1.3,0.5-1.9
						c0.2-0.6,0.3-1.3,0.5-1.9c0.3-1.3,0.6-2.6,0.7-3.9l0.3-2c0.1-0.7,0.1-1.4,0.1-2c0-0.7,0-1.4,0-2l0-0.5l0-0.1c0,0,0-0.1,0-0.1
						l0-0.3l-0.1-1c-0.3-2.7-0.7-5.3-1.1-7.8c-0.4-2.5-0.8-5-1-7.4c-0.2-2.4-0.1-4.6,0.1-6.7c0.2-2.1,0.4-4,0.8-5.6
						c0.1-0.8,0.3-1.6,0.5-2.3c0.2-0.7,0.4-1.4,0.5-1.9c0.3-1.2,0.7-2,0.9-2.6c0.2-0.6,0.4-0.9,0.4-0.9L292.8,1367.9z"/>
				</g>
				<g>
					<path d="M369.3,1446c0,0-0.3-0.1-0.7-0.2c-0.2-0.1-0.5-0.2-0.9-0.3c-0.3-0.1-0.7-0.3-1.1-0.5c-0.5-0.2-0.9-0.5-1.4-0.8
						c-0.2-0.2-0.5-0.3-0.7-0.5c-0.2-0.2-0.5-0.4-0.7-0.6c-0.5-0.4-1-0.9-1.5-1.5c-0.5-0.5-1-1.1-1.5-1.8c-0.5-0.7-1-1.3-1.4-2.1
						c-0.5-0.7-0.9-1.5-1.3-2.3c-0.8-1.6-1.4-3.5-1.9-5.3c-0.6-1.9-1.1-3.8-1.8-5.7c-0.3-1-0.7-1.9-1-2.9c-0.4-1-0.7-1.9-1.1-2.9
						c-0.7-1.9-1.5-3.9-2-5.9c-0.6-2-1.1-3.9-1.5-5.8c-0.1-0.5-0.2-0.9-0.3-1.4l-0.1-0.8c0-0.2,0-0.6-0.1-0.8c0-1.2,0.1-2,0.2-3
						c0.3-1.9,0.9-3.5,1.5-5c0.6-1.5,1.3-2.8,2.1-3.9c0.8-1.1,1.6-1.9,2.4-2.5c0.4-0.3,0.8-0.5,1.1-0.7c0.3-0.2,0.6-0.3,0.9-0.3
						c0.5-0.1,0.8-0.1,0.8-0.1l0.1,0.3c0,0-0.2,0.1-0.6,0.4c-0.2,0.1-0.4,0.3-0.7,0.5c-0.1,0.1-0.3,0.2-0.4,0.4
						c-0.1,0.1-0.2,0.3-0.4,0.5c-0.3,0.3-0.5,0.7-0.8,1.1c-0.2,0.5-0.5,0.9-0.7,1.5c-0.5,1.1-0.9,2.4-1.3,3.8
						c-0.4,1.4-0.7,3-0.9,4.6c-0.1,0.8-0.2,1.7-0.1,2.4c0,0.2,0,0.3,0,0.6l0.1,0.6c0.1,0.5,0.2,0.9,0.2,1.4c0.2,0.9,0.3,1.9,0.5,2.9
						c0.2,1,0.4,1.9,0.5,2.9c0.2,1,0.3,2,0.5,3c0.2,1,0.3,2,0.5,3c0.2,1,0.4,2,0.6,3c0.3,1,0.5,2,0.8,2.9c0.6,1.9,1.4,3.7,2.4,5.4
						c0.9,1.7,1.9,3.2,2.8,4.7c0.9,1.5,1.6,2.9,2.4,4.1c0.4,0.6,0.8,1.2,1.2,1.8c0.4,0.6,0.8,1.1,1.1,1.5c0.4,0.5,0.7,0.9,1.1,1.3
						c0.3,0.4,0.7,0.7,1,1c0.3,0.3,0.6,0.6,0.8,0.8c0.3,0.2,0.5,0.4,0.7,0.5c0.4,0.3,0.6,0.5,0.6,0.5L369.3,1446z"/>
				</g>
			</g>
		</g>
		<g id="R_Side">
			<g>
				<path class="st0" d="M1343.8,610.6c1.3-2.7,1.8-3.1,2.3-4c0-1.6-3-6-5.7-8.7c-2.2,0.7-1.8,0.7-3.3,2c-5.7-6.3-21-20-21-20
					c-6.4-6.3-25.2-25.1-27.3-29c-2.6-4.8-38.3-49.1-33.3-42c-6.3-9-14.7-31.3-27.3-41.7c-4.7-17.7,9.3-41.7,16.7-53.3
					c6.4-12.3,28.8-1.9,45.6-3.1c1.4-0.1,2.7-0.6,3.7-1.5c7.7-7,7.4-16.6,7.7-20c0.7-7.7,3.3-9,5.7-10.7c7.7-4,2-11,2-11
					s4-3.7,6.7-7.3"/>
				<path class="st2" d="M1321.8,345.2"/>
				<path class="st2" d="M1325.5,663.6c5.7,111.3,2.3,109-26.7,169.3c2.7,38.7,2.3,47.7,1.3,80c-10.7,34-10.3,63-29.3,145.3
					c9.3,69-7,162.7-58.7,289.3c-1,7.7,15,42-43.3,116.7c-11.6,88.8-43,173.2-29.4,301.5c0.8,7.5,5.2,14.2,11.7,18
					c22.1,12.6,67.7,41.2,67.7,41.2l42,17.3c0,0,3.9,0.9,7.7,2c2.7,0.8,5.2,2.1,7.2,4c1.7,1.5,4.9,2.7,15.1,2c6-0.3,8,17-5.3,20.7
					c-22.3,8.7-55.3,7.3-68.7,6.7c-3.3,1.3-7.3-2.7-11.3-2.7s-4,0.7-7.3,0.7c-12.7,0-95.7-11.7-104-10.7c-8.3,1-9.3,1.3-21.3,1.3
					c-10.5,0-17.7-3.9-22.3-12.7c-1.2-2.3-1.7-5-1.4-7.6c3.2-41.3,8.7-57.2,10.9-61.9c0.6-1.4,1-3,1.2-4.6c0.8-8.1,1-18.5,1-18.5
					c-28.3-250.7-16-250.3,18-361.7c1-16.7,5-37.7,7-59c-19.3-139.3,1-224.7-7.7-227.3c-16.3-24.3-50.3-62.3-38-130.7
					c16.7-55.3,51.3-78.7,62.7-140.7c4.7-37.3,8-142,0-176.7c-15.3-34.7-17.3-44-17.3-73.3c0.7-93.3,54-204.7,54-204.7
					c13.3-51.3-32.7-74-19.3-134.7c11-115.7,201-107.7,199.3,17c0,0-3.7,18-5.7,22.3"/>
				<path class="st0" d="M1128.5,632.6c0,13.3-4.7,75-2.9,120.1c-6.5,43.7-9.7,54.3-11.1,65.9c-0.7,6.7,1.1,11.1,1.3,12
					c11.8,57.2,30.2,123.2,53.3,225.1c-1.6,9.5-11.8,30.9-15.3,59.3c-0.2,1.6-0.3,4.2-0.1,6.2c1.7,14.4,10.5,51.6,17.1,72
					c3,9.7,9,7.3,13,3.3c-0.7,11,1.3,16.7,3,22.3c7.3,5.3,13,0.7,14.3,0c0.3,6.7,0.3,8.3,1.3,12c8.3,5,12.3,2.3,14.3-1
					c2-1.3,2-4.7,2-8.3c8,4.7,12.3,1.7,14.7-1.3c5-5.3,4.7-10.3,5-17.3c0.3-7,0-14,0-19s-0.7-6.7-1.7-13.3c6.3,6,11.3-0.7,11.3-0.7
					c-1-5.9-2.3-13-2.3-16.7c2.7-0.7,3.7-35.7,2-45.3c-1.3-7.7-16.7-42-22.3-51c2.1-8.8,1.7-7.1,1.3-17.3c-0.5-12-18.7-85-19-110.7
					c1.7-21.7,2.3-88.7-6.7-150c8.7-46.3,13-81.7,20-121"/>
				<g>
					<path d="M1262.5,642.1c0.7,1.3,1.3,2.6,2.1,3.8c0.7,1.3,1.6,2.5,2.4,3.7c0.9,1.2,1.7,2.3,2.7,3.4c0.9,1.1,2,2.1,3,3.1l1.6,1.5
						l1.7,1.4c1.2,0.9,2.3,1.7,3.6,2.5c0.6,0.4,1.2,0.8,1.9,1.1c0.6,0.4,1.3,0.7,1.9,1c1.3,0.7,2.6,1.2,4,1.8c1.3,0.5,2.7,1,4.1,1.4
						l2.1,0.6l2.1,0.5l2.1,0.4l2.1,0.3c1.4,0.1,2.9,0.2,4.3,0.3c1.4,0,2.9,0,4.3-0.1c1.4-0.1,2.8-0.3,4.3-0.6
						c1.4-0.3,2.8-0.6,4.1-1.1c1.3-0.5,2.6-1.1,3.7-1.9l0,0l0.1,0l1.7-0.9c0.6-0.3,1.1-0.6,1.7-1c1.1-0.7,2.2-1.4,3.2-2.2
						c1-0.8,2-1.7,2.9-2.6c0.9-0.9,1.8-1.9,2.6-2.9l1.2-1.6c0.4-0.5,0.7-1.1,1.1-1.6c0.7-1.1,1.3-2.2,1.9-3.4
						c0.6-1.2,1.1-2.3,1.6-3.5c0.5-1.2,0.9-2.4,1.3-3.7c0.8-2.5,1.4-5,1.8-7.6c0.2-1.3,0.4-2.6,0.6-3.9l0.4-4c0-0.4,0-1.1,0-1.7
						c0-0.6-0.1-1.3-0.2-1.9l-0.4-4c-0.1-1.3-0.3-2.7-0.3-4.1c0-0.7,0-1.4,0-2.2c0-0.4,0.1-0.8,0.2-1.3l0.1-0.4
						c0.1-0.1,0.1-0.3,0.2-0.4c0.1-0.1,0.2-0.3,0.4-0.5c0.1-0.2,0.4-0.3,0.6-0.5l1.3,2.7c0.4-0.3,0.2-0.3,0.2-0.1
						c-0.1,0.2-0.1,0.4-0.1,0.7c-0.1,0.6-0.1,1.2-0.1,1.8c0,1.3,0.1,2.6,0.2,3.9l0.3,4c0.1,0.7,0.1,1.3,0.1,2c0,0.7,0.1,1.3,0,2.2
						l-0.5,4c-0.2,1.3-0.4,2.7-0.7,4c-0.5,2.7-1.2,5.3-2.1,7.9c-0.4,1.3-0.9,2.6-1.5,3.8c-0.5,1.2-1.1,2.5-1.8,3.7
						c-0.6,1.2-1.3,2.4-2.1,3.5c-0.4,0.6-0.8,1.1-1.2,1.7l-1.3,1.6c-0.5,0.5-0.9,1-1.4,1.5c-0.5,0.5-0.9,1-1.4,1.5
						c-1,0.9-2,1.8-3.1,2.7c-1.1,0.8-2.2,1.6-3.4,2.3c-0.6,0.3-1.2,0.7-1.8,1l-1.9,0.9l0.1-0.1c-1.3,0.9-2.7,1.5-4.1,2
						c-1.4,0.5-2.9,0.8-4.3,1.1c-1.5,0.2-2.9,0.4-4.4,0.5c-1.5,0.1-3,0.1-4.4,0c-1.5-0.1-2.9-0.2-4.4-0.4l-2.2-0.3l-2.2-0.4
						l-2.1-0.5l-2.1-0.6c-1.4-0.5-2.8-0.9-4.1-1.5c-1.4-0.6-2.7-1.2-4-1.9c-0.7-0.3-1.3-0.7-1.9-1.1c-0.6-0.4-1.3-0.7-1.9-1.2
						c-1.2-0.8-2.4-1.7-3.6-2.6l-1.7-1.4l-1.6-1.5c-1-1-2.1-2.1-3-3.2c-1-1.1-1.8-2.3-2.7-3.5c-0.8-1.2-1.6-2.4-2.3-3.7
						C1263.7,644.7,1263.2,643.4,1262.5,642.1z"/>
				</g>
				<g>
					<path d="M1270,1057.3c0,0-0.3-2.5-0.9-6.9c-0.5-4.4-1.3-10.8-1.9-18.4c-0.6-7.6-1.1-16.5-1.5-26c-0.1-2.4-0.2-4.8-0.3-7.3
						c0-2.5,0-5,0.2-7.5c0.2-2.5,0.6-5.1,1-7.6c0.5-2.5,1-5,1.3-7.5c0.4-2.5,0.5-5,0.3-7.4l0-0.5c0-0.1,0-0.3-0.1-0.4l-0.1-0.9
						c0-0.3-0.1-0.6-0.1-0.9l-0.2-0.9c-0.3-1.2-0.7-2.4-1-3.5c-1.6-4.7-3.8-9.1-6-13.3c-2.2-4.2-4.5-8.2-6.7-11.9
						c-1.1-1.9-2.2-3.7-3.3-5.5c-0.5-0.9-1-1.8-1.6-2.6c-0.5-0.8-1.1-1.6-1.7-2.4c-2.3-3-4.5-5.7-6.5-8.1c-2-2.4-3.8-4.4-5.3-6
						c-3-3.3-4.7-5.2-4.7-5.2s1.7,1.9,4.8,5.1c1.5,1.6,3.3,3.6,5.4,5.9c2,2.3,4.4,5,6.7,8c0.6,0.7,1.2,1.6,1.7,2.4
						c0.6,0.8,1.1,1.7,1.6,2.6c1.1,1.7,2.2,3.5,3.4,5.4c2.3,3.7,4.7,7.7,7,11.8c2.3,4.2,4.6,8.6,6.3,13.3c0.4,1.2,0.8,2.4,1.2,3.7
						l0.3,0.9c0.1,0.3,0.1,0.6,0.2,0.9l0.2,0.9c0,0.2,0.1,0.3,0.1,0.5l0,0.5c0.2,2.6,0.1,5.2-0.2,7.7c-0.3,2.6-0.8,5.1-1.2,7.5
						c-0.4,2.5-0.7,5-0.9,7.4c-0.2,2.5-0.2,4.9-0.1,7.3c0.1,2.5,0.3,4.8,0.4,7.2c0.6,9.5,1.2,18.4,2,25.9c0.8,7.6,1.6,13.8,2.2,18.2
						c0.6,4.4,1,6.9,1,6.9L1270,1057.3z"/>
				</g>
				<g>
					<path d="M1120.8,579.2c0,0,0.1,0.9,0.2,2.5c0.1,0.8,0.2,1.8,0.3,2.9c0.1,1.1,0.3,2.4,0.5,3.7c0.7,5.4,1.9,12.7,3.2,19.9
						c1.3,7.2,2.6,14.4,3.5,19.8c0.5,2.7,0.9,5,1.1,6.6c0.1,0.8,0.2,1.4,0.3,1.9c0.1,0.4,0.1,0.7,0.1,0.7l-3,0.2c0,0,0-0.2,0-0.6
						c0-0.4-0.1-1-0.2-1.8c-0.2-1.6-0.4-3.8-0.8-6.6c-0.7-5.4-1.6-12.7-2.5-20c-0.9-7.3-1.7-14.5-2.2-20c-0.1-1.4-0.2-2.6-0.3-3.7
						c-0.1-1.1-0.1-2.1-0.2-2.9C1120.9,580.1,1120.8,579.2,1120.8,579.2z"/>
				</g>
				<g>
					<path d="M1257.2,545.2c-0.3,1.2-0.6,2.3-1,3.5c-0.4,1.1-0.8,2.3-1.2,3.4c-0.9,2.2-1.9,4.4-2.9,6.6c-2.1,4.3-4.4,8.5-6.6,12.8
						l0,0c-0.7,1.8-1.4,3.6-1.9,5.4c-0.6,1.8-1.2,3.6-1.7,5.5c-0.6,1.8-1.1,3.7-1.6,5.5c-0.5,1.8-1.1,3.7-1.6,5.5
						c-2,7.4-4,14.8-5.8,22.3c-1.9,7.4-3.7,14.9-5.5,22.3l-2.7,11.2c-0.9,3.7-1.8,7.5-2.7,11.2l-2.9-0.8c1-3.7,2-7.4,3-11.1
						l2.9-11.1c2-7.4,4-14.8,6-22.2c2.1-7.4,4.2-14.8,6.4-22.1c0.5-1.8,1.1-3.7,1.7-5.5c0.6-1.8,1.2-3.7,1.8-5.5
						c0.6-1.8,1.2-3.6,1.9-5.5c0.6-1.8,1.4-3.6,2.1-5.4l0,0l0,0c2.3-4.2,4.7-8.4,6.9-12.6c1.1-2.1,2.1-4.3,3.1-6.5
						c0.5-1.1,0.9-2.2,1.3-3.3C1256.5,547.5,1256.8,546.4,1257.2,545.2z"/>
				</g>
				<g>
					<path d="M1316.1,362.1c0,0-0.2-0.3-0.5-0.7c-0.2-0.2-0.4-0.6-0.6-1c-0.3-0.4-0.4-0.9-0.6-1.4c-0.4-1-0.7-2.1-0.9-3.4
						c-0.1-0.6-0.2-1.2-0.3-1.9c-0.1-0.6-0.1-1.3-0.2-1.9c-0.1-2.6-0.1-5.2,0-7.1c0.1-1.9,0.2-3.2,0.2-3.2s0.1,1.3,0.3,3.2
						c0.2,1.9,0.5,4.4,1,6.9c0.1,0.6,0.3,1.2,0.4,1.8c0.2,0.6,0.3,1.2,0.5,1.7c0.4,1.1,0.8,2,1.2,2.8c0.2,0.4,0.4,0.7,0.6,0.9
						c0.2,0.2,0.3,0.4,0.5,0.6c0.4,0.4,0.6,0.6,0.6,0.6L1316.1,362.1z"/>
				</g>
				<g>
					<path d="M1330.8,342.5l-0.6-0.1c-0.2,0-0.5-0.1-0.7-0.1c-0.4-0.1-0.8-0.2-1.2-0.3c-0.8-0.2-1.4-0.5-2.1-0.6
						c-0.7-0.2-1.3-0.3-2-0.3c-0.2,0-0.3,0-0.5,0l-0.2,0l-0.3,0c-0.4,0-0.8,0.1-1.1,0.1c-0.7,0.1-1.4,0.2-2.1,0.4
						c-0.7,0.2-1.4,0.4-2.1,0.7c-0.7,0.2-1.5,0.5-2.3,0.7c-0.4,0.1-0.9,0.1-1.3,0.1c-0.4,0-0.9-0.1-1.3-0.1l-0.1,0l-0.1,0
						c-1.1-0.5-2-1.1-2.9-1.8c-0.9-0.7-1.7-1.5-2.3-2.5c-0.3-0.5-0.6-0.9-0.9-1.5c-0.3-0.5-0.5-1.1-0.6-1.7
						c-0.1-0.6-0.1-1.2-0.1-1.8c0.1-0.3,0.1-0.6,0.2-0.9c0.1-0.3,0.2-0.5,0.3-0.8c0.2-0.5,0.5-1,0.8-1.5c0.3-0.5,0.7-0.9,1-1.3
						c0.8-0.8,1.6-1.5,2.6-2.1c0.5-0.3,1-0.5,1.5-0.7c0.5-0.2,1-0.4,1.5-0.5c0.5-0.1,1-0.3,1.6-0.4c0.5-0.1,1.1-0.1,1.6-0.2
						c-0.5,0.1-1.1,0.2-1.6,0.3c-0.5,0.1-1,0.3-1.5,0.5c-0.5,0.2-1,0.4-1.5,0.6c-0.5,0.2-0.9,0.5-1.4,0.8c-0.9,0.6-1.7,1.3-2.3,2.1
						c-0.3,0.4-0.6,0.8-0.9,1.3c-0.3,0.4-0.5,0.9-0.6,1.4c-0.1,0.2-0.2,0.5-0.2,0.8c-0.1,0.2-0.1,0.5-0.1,0.7c0,0.5,0,1,0.2,1.4
						c0.1,0.5,0.3,0.9,0.6,1.3c0.2,0.4,0.5,0.8,0.9,1.2c1.3,1.5,3,2.8,4.9,3.5l-0.2-0.1c0.3,0,0.7,0,1,0c0.3,0,0.6-0.1,1-0.1
						c0.6-0.2,1.3-0.4,2-0.7c0.7-0.3,1.4-0.6,2.2-0.9c0.8-0.3,1.5-0.5,2.4-0.6c0.4-0.1,0.8-0.1,1.2-0.2l0.3,0l0.4,0
						c0.2,0,0.4,0,0.6,0c0.9,0,1.7,0.1,2.5,0.2c0.8,0.1,1.6,0.4,2.3,0.5c0.4,0.1,0.7,0.2,1,0.2c0.2,0,0.3,0,0.5,0.1l0.5,0.1
						L1330.8,342.5z"/>
				</g>
				<g>
					<path d="M1316.7,291.8c0,0-0.1,0.2-0.2,0.5c-0.1,0.2-0.1,0.4-0.2,0.6c-0.1,0.2-0.1,0.4-0.2,0.7c-0.1,0.3-0.1,0.6-0.2,0.9
						c0,0.3-0.1,0.7-0.1,1.1c0,0.7,0.1,1.5,0.5,2.4c0.7,1.8,2.4,3.8,3.9,6.2c1.5,2.3,3.1,4.9,4.8,7.4c3.2,5,6.4,10.1,8.6,14
						c1.1,1.9,2,3.6,2.5,4.8c0.3,0.6,0.4,1.1,0.5,1.4c0,0.2,0.1,0.3,0.1,0.4c0,0.1,0,0.1,0,0.1s0,0,0-0.1c0-0.1,0-0.2-0.1-0.4
						c-0.1-0.3-0.3-0.8-0.6-1.4c-0.6-1.2-1.6-2.7-2.8-4.6c-2.5-3.7-6.1-8.5-9.7-13.2c-1.8-2.4-3.6-4.7-5.3-7
						c-0.8-1.1-1.6-2.2-2.4-3.2c-0.8-1.1-1.5-2.1-2-3.3c-0.5-1.2-0.8-2.4-0.8-3.5c0-0.5,0-1,0-1.5c0.1-0.4,0.1-0.8,0.2-1.2
						c0.1-0.4,0.2-0.7,0.2-1c0.1-0.2,0.1-0.5,0.2-0.6c0.1-0.3,0.2-0.5,0.2-0.5L1316.7,291.8z"/>
				</g>
				<g>
					<path d="M1330.8,339.3c0,0,0.2,0,0.5,0.1c0.1,0,0.2,0,0.3,0c0.1,0,0.1,0,0.2,0c0.1,0,0.3,0,0.5,0c0.2,0,0.4-0.1,0.7-0.2
						c0.2-0.1,0.5-0.2,0.8-0.4c0.1-0.1,0.3-0.2,0.4-0.3l0.4-0.3c0.2-0.2,0.5-0.5,0.7-0.8c0.2-0.3,0.4-0.6,0.6-0.9
						c0.2-0.3,0.3-0.6,0.4-1c0.2-0.7,0.4-1.3,0.5-1.9c0.1-0.6,0.1-1.1,0.1-1.4c0-0.3,0-0.5,0-0.5s0.1,0.2,0.2,0.5
						c0.1,0.3,0.2,0.8,0.3,1.4c0.1,0.6,0.1,1.3,0,2.1c-0.1,0.4-0.1,0.8-0.2,1.2c-0.1,0.4-0.2,0.8-0.4,1.2c-0.2,0.4-0.4,0.8-0.6,1.2
						c-0.1,0.2-0.3,0.4-0.4,0.5c-0.1,0.2-0.3,0.3-0.4,0.5c-0.3,0.3-0.6,0.6-1,0.8c-0.4,0.2-0.7,0.4-1,0.6c-0.3,0.2-0.7,0.3-1,0.3
						c-0.2,0-0.3,0.1-0.5,0.1c-0.1,0-0.2,0-0.3,0c-0.3,0-0.5,0.1-0.5,0.1L1330.8,339.3z"/>
				</g>
				<g>
					<path d="M1212.9,290.1l-1.5-4.2c-0.6-1.4-1.1-2.8-1.7-4.1c-0.7-1.3-1.2-2.7-2-4c-0.4-0.6-0.7-1.3-1.1-1.9l-1.2-1.8
						c-0.9-1.1-1.7-2.3-2.7-3.2c-0.5-0.5-1-0.9-1.5-1.3c-0.5-0.5-1.1-0.7-1.7-1.1c-0.1-0.1-0.3-0.2-0.4-0.2l-0.4-0.2l-0.9-0.3
						c-0.3-0.1-0.6-0.1-0.9-0.2c-0.3-0.1-0.6-0.1-0.9-0.1l-0.9,0c-0.3,0-0.6,0.1-0.9,0.1l-0.4,0.1c-0.1,0-0.3,0.1-0.4,0.1l-0.9,0.3
						c-1.1,0.5-2.3,1.1-3.3,2c-1,0.8-1.9,1.8-2.8,2.8c-0.8,1.1-1.6,2.2-2.2,3.4c-0.3,0.6-0.6,1.2-0.9,1.8c-0.3,0.6-0.5,1.3-0.7,1.9
						l-0.3,1l-0.2,1c-0.2,0.7-0.3,1.3-0.4,2c-0.2,1.3-0.3,2.7-0.3,4c0,1.3,0.2,2.6,0.5,3.9c0.1,0.6,0.4,1.2,0.5,1.9
						c0.2,0.6,0.5,1.2,0.7,1.8l0.1,0.3l0,0l1.2,3.2c0.4,1.1,0.7,2.2,1.2,3.2l1.3,3.1c0.4,1.1,0.9,2.1,1.4,3.1c0.5,1,1,2,1.5,3
						l1.7,2.9c0.5,1,1.2,1.9,1.8,2.8c0.3,0.5,0.6,0.9,0.9,1.4l1,1.3l1,1.3l1.1,1.2l1.1,1.2c0.4,0.4,0.8,0.7,1.2,1.1l1.2,1.1l1.3,0.9
						c0.8,0.7,1.8,1.1,2.7,1.6c0.5,0.3,1,0.4,1.4,0.6c0.5,0.2,1,0.4,1.5,0.5l1.5,0.4c0.5,0.1,1,0.1,1.5,0.2c0.3,0,0.5,0.1,0.8,0.1
						l0.8,0c0.5,0,1,0,1.5-0.1c0.5-0.1,1-0.1,1.5-0.3l1.5-0.4l0.2-0.1l1.3-0.4c0.4-0.1,0.8-0.3,1.2-0.5c0.4-0.2,0.8-0.3,1.1-0.6
						c0.3-0.2,0.8-0.4,1.1-0.7c0.3-0.3,0.7-0.5,1-0.9c0.3-0.3,0.6-0.6,0.8-1c0.2-0.4,0.5-0.7,0.7-1.1c0.2-0.4,0.4-0.8,0.5-1.2
						c0.1-0.4,0.3-0.9,0.4-1.3c0.1-0.5,0.2-0.9,0.3-1.4c0-0.5,0.1-0.9,0.1-1.4c0-0.5,0-0.9,0-1.4c0-0.5-0.1-0.9-0.1-1.4
						c-0.1-0.5-0.1-1-0.2-1.4c-0.1-0.5-0.2-0.9-0.4-1.4c-0.1-0.5-0.3-0.9-0.5-1.4l0.3-0.1c0.2,0.4,0.5,0.9,0.6,1.3
						c0.2,0.5,0.3,0.9,0.5,1.4c0.2,0.5,0.2,1,0.4,1.4c0.1,0.5,0.2,1,0.2,1.5c0.1,0.5,0.1,1,0.1,1.5c0,0.5,0,1,0,1.5
						c0,0.5-0.1,1-0.2,1.5c-0.1,0.5-0.2,1-0.3,1.4c-0.2,0.5-0.3,0.9-0.5,1.4c-0.2,0.4-0.5,0.9-0.7,1.3c-0.3,0.4-0.6,0.8-0.9,1.2
						c-0.3,0.4-0.7,0.7-1,1.1c-0.3,0.4-0.8,0.6-1.2,0.9c-0.4,0.3-0.8,0.5-1.3,0.7c-0.4,0.2-0.9,0.5-1.4,0.6l-1.4,0.5l0,0l-1.7,0.6
						c-0.6,0.2-1.2,0.2-1.7,0.4c-0.6,0.1-1.2,0.1-1.8,0.2l-0.9,0c-0.3,0-0.6,0-0.9-0.1c-0.6-0.1-1.2-0.1-1.8-0.2l-1.7-0.4
						c-0.6-0.1-1.1-0.4-1.7-0.5c-0.5-0.2-1.1-0.3-1.6-0.6c-1-0.5-2.1-1-3.1-1.7l-1.5-1l-1.4-1.1c-0.4-0.4-0.9-0.7-1.4-1.1l-1.2-1.2
						l-1.2-1.2l-1.1-1.3l-1.1-1.3c-0.4-0.4-0.7-0.9-1-1.4c-0.7-1-1.4-1.9-2-2.9l-1.8-3c-0.6-1-1.1-2.1-1.6-3.1
						c-0.5-1-1.1-2.1-1.5-3.2l-1.4-3.2c-0.5-1.1-0.8-2.2-1.2-3.3l-1.2-3.3l0,0c-0.3-0.7-0.6-1.4-0.9-2.1c-0.2-0.7-0.5-1.5-0.6-2.2
						c-0.3-1.5-0.5-3-0.5-4.5c0-1.5,0.1-3,0.4-4.5c0.1-0.7,0.3-1.5,0.5-2.2l0.3-1.1l0.4-1.1c0.2-0.7,0.5-1.4,0.8-2.1
						c0.3-0.7,0.7-1.4,1-2c0.7-1.3,1.6-2.6,2.5-3.8c1-1.1,2.1-2.2,3.3-3.1c1.2-1,2.6-1.6,4-2.2l1.1-0.3c0.2,0,0.4-0.1,0.6-0.1l0.6,0
						c0.4,0,0.8-0.1,1.1-0.1l1.1,0.1c0.4,0,0.8,0.1,1.1,0.2c0.4,0.1,0.7,0.2,1.1,0.3l1,0.5l0.5,0.2c0.2,0.1,0.3,0.2,0.5,0.3
						c0.6,0.4,1.3,0.8,1.9,1.3c0.6,0.5,1.2,1,1.6,1.6c1.1,1.1,1.9,2.3,2.8,3.6l1.1,2c0.4,0.7,0.7,1.4,1,2c0.7,1.3,1.2,2.8,1.8,4.2
						c0.5,1.4,1,2.9,1.4,4.3l1.2,4.3L1212.9,290.1z"/>
				</g>
				<g>
					<path d="M1344.1,620.4c0,0-0.1,0.1-0.3,0.2c-0.1,0.1-0.2,0.2-0.4,0.3c-0.2,0.1-0.5,0.3-0.7,0.4c-0.3,0.2-0.6,0.3-0.9,0.4
						c-0.2,0.1-0.3,0.1-0.5,0.2c-0.2,0-0.4,0.1-0.6,0.1c-0.8,0.2-1.7,0.2-2.7,0.2c-1.9-0.2-4-1-5.9-2.3c-0.9-0.7-1.8-1.4-2.6-2.2
						c-0.8-0.8-1.5-1.8-2.2-2.8c-1.3-2-2.1-4.2-2.4-6.4c-0.1-1.1-0.2-2.1-0.1-3.1c0.1-1,0.3-1.9,0.6-2.7c0.3-0.8,0.6-1.5,0.9-2.1
						c0.3-0.6,0.7-1.1,0.9-1.5c0.6-0.8,1-1.2,1-1.2s-0.3,0.5-0.8,1.3c-0.2,0.4-0.5,0.9-0.8,1.6c-0.3,0.6-0.5,1.3-0.7,2.2
						c-0.2,0.8-0.3,1.7-0.3,2.6c0,0.9,0.1,1.9,0.3,2.9c0.5,2,1.4,4,2.7,5.7c0.6,0.9,1.4,1.6,2.2,2.3c0.8,0.7,1.6,1.3,2.5,1.8
						c1.7,1,3.5,1.5,4.9,1.5c0.7,0,1.3-0.1,1.9-0.3c0.1,0,0.3-0.1,0.4-0.1c0.1-0.1,0.2-0.1,0.3-0.2c0.2-0.1,0.4-0.2,0.5-0.3
						c0.1-0.1,0.2-0.1,0.4-0.3c0.1-0.1,0.3-0.2,0.4-0.3c0.2-0.2,0.3-0.3,0.3-0.3L1344.1,620.4z"/>
				</g>
				<g>
					<path d="M1343.8,611.3c0,0,0,0-0.1,0.1c0,0-0.1,0.1-0.2,0.1c-0.1,0-0.2,0.1-0.3,0.2c-0.3,0.2-0.6,0.3-1,0.3
						c-0.4,0.1-0.8,0.1-1.2,0c-0.9-0.1-1.8-0.6-2.5-1.2c-0.7-0.6-1.4-1.4-1.9-2.3c-0.5-0.9-0.8-1.8-0.9-2.7c-0.1-0.9,0-1.8,0.1-2.5
						c0.2-0.7,0.5-1.2,0.7-1.6c0.2-0.3,0.4-0.5,0.4-0.5s-0.1,0.2-0.3,0.6c-0.2,0.4-0.4,0.9-0.4,1.6c-0.1,0.7,0,1.5,0.2,2.3
						c0.2,0.8,0.6,1.6,1.1,2.3c0.5,0.7,1.2,1.3,1.8,1.7c0.7,0.4,1.3,0.6,1.9,0.6c0.3,0,0.5,0,0.7-0.1c0.2,0,0.3-0.1,0.4-0.2
						c0,0,0.1,0,0.1-0.1c0.1-0.1,0.1-0.1,0.2-0.1c0.1-0.1,0.1-0.1,0.1-0.1L1343.8,611.3z"/>
				</g>
				<g>
					<path d="M1264.2,409.4c0,0-1.7-0.3-4.6-0.9c-3-0.6-7.2-1.5-12.2-2.8c-5-1.3-10.9-3.1-16.8-5.8c-3-1.4-5.9-3.1-8.7-5.1
						c-2.8-2-5.4-4.3-7.8-7c-0.6-0.7-1.1-1.3-1.7-2l-0.4-0.5l-0.2-0.3l-0.2-0.3l-0.7-1.1c-1-1.5-1.9-3-2.6-4.5
						c-1.5-3.1-2.6-6.3-3.5-9.4c-1.7-6.3-2.3-12.3-2.6-17.5c-0.3-5.2-0.1-9.5,0.2-12.5c0.1-1.5,0.3-2.7,0.5-3.5
						c0.2-0.8,0.3-1.2,0.3-1.2s-0.1,0.4-0.3,1.2c-0.1,0.8-0.3,2-0.3,3.5c-0.2,3-0.2,7.3,0.2,12.4c0.4,5.1,1.3,11.1,3.2,17.2
						c0.9,3,2.1,6.1,3.7,9.1c0.8,1.5,1.7,2.9,2.6,4.2l0.8,1l0.2,0.3l0.2,0.2l0.4,0.5c0.5,0.7,1.1,1.3,1.7,1.9
						c2.3,2.5,4.9,4.6,7.6,6.5c2.7,1.9,5.6,3.4,8.5,4.7c5.8,2.6,11.5,4.1,16.5,5.3c5,1.2,9.2,1.9,12.1,2.5c3,0.5,4.6,0.8,4.6,0.8
						L1264.2,409.4z"/>
				</g>
				<g>
					<path d="M1220.4,462.6c0,0-0.9-1.5-2.4-4.1c-0.8-1.3-1.7-2.9-2.6-4.8c-0.5-1-1-2-1.5-3c-0.5-1.1-1.1-2.2-1.6-3.4
						c-1-2.4-2.2-5-3.1-7.8c-1-2.8-2-5.8-2.9-9c-0.4-1.6-0.9-3.2-1.2-4.8c-0.4-1.6-0.7-3.3-1.1-5c-0.4-1.7-0.7-3.4-1-5.1
						c-0.3-1.7-0.7-3.4-0.9-5.1c-0.5-3.4-1.1-6.9-1.4-10.3c-0.5-3.4-0.7-6.7-1.1-10c-0.2-3.2-0.5-6.4-0.6-9.3
						c-0.2-3-0.3-5.8-0.3-8.4c-0.2-5.2-0.2-9.5-0.2-12.5c0-3,0-4.8,0-4.8l0.3,0c0,0,0.1,1.7,0.2,4.7c0.2,3,0.4,7.3,0.8,12.5
						c0.2,2.6,0.4,5.4,0.7,8.3c0.3,3,0.6,6.1,1,9.3c0.4,3.2,0.8,6.5,1.4,9.9c0.5,3.4,1.1,6.7,1.8,10.1c0.3,1.7,0.7,3.4,1.1,5
						c0.4,1.7,0.7,3.3,1.2,5c0.4,1.6,0.8,3.3,1.3,4.9c0.4,1.6,0.9,3.2,1.3,4.7c0.8,3.1,1.8,6.1,2.6,8.9c0.4,1.4,0.9,2.8,1.3,4.1
						c0.4,1.3,0.9,2.6,1.3,3.8c0.8,2.4,1.7,4.6,2.4,6.6c0.7,2,1.4,3.7,2,5.1c1.2,2.8,1.8,4.4,1.8,4.4L1220.4,462.6z"/>
				</g>
				<g>
					<path d="M1161.6,446.5c0,0,0.2,0.1,0.6,0.4c0.4,0.3,0.9,0.7,1.6,1.1c0.7,0.5,1.5,1,2.4,1.6c0.5,0.3,1,0.7,1.5,1
						c0.5,0.3,1.1,0.7,1.7,1.1c1.2,0.7,2.4,1.6,3.8,2.4c1.3,0.8,2.7,1.7,4.2,2.6c1.4,0.9,3,1.7,4.5,2.7c1.5,0.9,3.1,1.7,4.7,2.5
						c1.5,0.8,3.2,1.5,4.6,1.9c0.2,0,0.4,0.1,0.5,0.1c0.2,0,0.3,0,0.5,0.1l0.4,0.1l0.7,0c0.9,0,1.8,0.1,2.6,0.1
						c1.7,0,3.5,0.1,5.1,0.2c1.6,0.1,3.2,0.3,4.6,0.6c1.4,0.3,2.7,0.6,3.9,1c1.1,0.4,2.1,0.8,2.8,1.2c0.8,0.3,1.3,0.7,1.7,0.9
						c0.4,0.2,0.6,0.4,0.6,0.4l-0.1,0.3c0,0-0.2-0.1-0.6-0.2c-0.4-0.1-1-0.4-1.8-0.6c-0.8-0.2-1.7-0.5-2.9-0.7
						c-1.1-0.2-2.4-0.4-3.8-0.5c-2.8-0.2-6-0.1-9.5,0c-1.7,0-3.6,0.2-5.4-0.2c-1.8-0.4-3.6-1.2-5.3-2c-3.4-1.7-6.5-3.7-9.4-5.7
						c-1.4-1-2.8-2-4.1-3c-1.3-1-2.5-1.9-3.5-2.8c-1.1-0.9-2.1-1.7-2.9-2.5c-0.8-0.8-1.6-1.5-2.1-2c-0.6-0.6-1-1.1-1.3-1.4
						c-0.3-0.3-0.4-0.5-0.4-0.5L1161.6,446.5z"/>
				</g>
				<g>
					<path d="M1085.5,1803.5c0,0,0.7-0.1,1.9-0.3c0.6-0.1,1.3-0.2,2.1-0.4c0.8-0.2,1.7-0.4,2.7-0.6c1-0.2,2-0.6,3.1-1
						c1-0.4,2.1-0.9,3-1.5c0.9-0.6,1.7-1.4,2.4-2.4c0.7-0.9,1.2-2,1.6-3.2c0.4-1.2,0.7-2.4,0.8-3.7c0.1-1.3,0.3-2.6,0.3-3.8
						c0-1.3,0.1-2.5,0.1-3.7c0-1.2,0-2.3,0-3.3c0-2.1,0.1-3.8,0.1-5.1c0.1-1.2,0.1-1.9,0.1-1.9l0.2,0c0,0,0.3,2.8,0.7,6.9
						c0.2,2.1,0.4,4.5,0.4,7.1c0,2.6-0.1,5.4-1,8.1c-0.4,1.3-1.1,2.6-1.9,3.7c-0.9,1.1-1.9,2-3.1,2.7c-1.1,0.7-2.3,1.1-3.5,1.5
						c-1.2,0.3-2.3,0.6-3.3,0.7c-1,0.2-2,0.2-2.8,0.3c-0.8,0-1.6,0.1-2.2,0.1c-1.2,0-1.9,0-1.9,0L1085.5,1803.5z"/>
				</g>
				<g>
					<path d="M1145.3,1385.2c0,0,0.1,1.1,0.2,3.1c0,1,0,2.2,0,3.5c0,1.4-0.1,2.9-0.2,4.5c-0.1,1.7-0.2,3.5-0.4,5.3
						c-0.2,1.9-0.6,3.9-0.9,5.9c-0.3,2.1-0.5,4.2-0.5,6.4c0,1.1,0.1,2.2,0.2,3.3c0.1,1.1,0.3,2.2,0.5,3.3c0.4,2.2,0.9,4.3,1.5,6.3
						c0.1,0.5,0.3,1,0.4,1.5c0.2,0.5,0.4,0.9,0.6,1.4l0.3,0.7l0.3,0.7c0.2,0.4,0.4,0.9,0.7,1.3c0.5,0.8,1.1,1.8,1.6,2.5
						c0.5,0.8,1,1.6,1.5,2.4c1,1.5,2.1,2.9,3.1,4.2c1,1.3,2,2.6,2.7,3.8c0.7,1.2,1.2,2.4,1.5,3.4c0.3,1,0.4,1.8,0.4,2.3
						c0,0.5,0,0.8,0,0.8l-0.3,0.1c0,0-0.1-0.3-0.3-0.7c-0.2-0.5-0.5-1.2-0.9-2c-0.4-0.8-1.1-1.7-1.9-2.7c-0.9-1-1.9-2-3.1-3.2
						c-1.2-1.2-2.4-2.6-3.6-4.1c-0.6-0.8-1.2-1.6-1.7-2.5c-0.6-0.9-1-1.7-1.6-2.7c-0.2-0.5-0.5-1-0.7-1.6c-0.1-0.3-0.2-0.5-0.3-0.8
						l-0.2-0.8c-0.2-0.5-0.3-1.1-0.5-1.6c-0.1-0.6-0.2-1.1-0.3-1.7c-0.5-2.2-0.5-4.5-0.5-6.8c0-1.1,0-2.2,0.1-3.4
						c0-1.1,0.1-2.2,0-3.3c0-1.1,0-2.2,0-3.3c0-1.1-0.1-2.1-0.1-3.2c-0.1-2.1-0.2-4.1-0.1-6c0.1-1.9,0.3-3.7,0.5-5.4
						c0.2-1.7,0.5-3.2,0.7-4.5c0.2-1.3,0.5-2.5,0.7-3.4c0.4-1.9,0.8-3,0.8-3L1145.3,1385.2z"/>
				</g>
			</g>
		</g>
		<g id="L_Side">
			<g>
				<path class="st0" d="M644.6,610.6c-1.3-2.7-1.8-3.1-2.3-4c0-1.6,3-6,5.7-8.7c2.2,0.7,1.8,0.7,3.3,2c5.7-6.3,21-20,21-20
					c6.4-6.3,25.2-25.1,27.3-29c2.6-4.8,38.3-49.1,33.3-42c6.3-9,14.7-31.3,27.3-41.7c4.7-17.7-9.3-41.7-16.7-53.3
					c-6.4-12.3-28.8-1.9-45.6-3.1c-1.4-0.1-2.7-0.6-3.7-1.5c-7.7-7-7.4-16.6-7.7-20c-0.7-7.7-3.3-9-5.7-10.7c-7.7-4-2-11-2-11
					s-4-3.7-6.7-7.3"/>
				<path class="st2" d="M666.6,345.2"/>
				<path class="st2" d="M662.9,663.6c-5.7,111.3-2.3,109,26.7,169.3c-2.7,38.7-2.3,47.7-1.3,80c10.7,34,10.3,63,29.3,145.3
					c-9.3,69,7,162.7,58.7,289.3c1,7.7-15,42,43.3,116.7c11.6,88.8,43,173.2,29.4,301.5c-0.8,7.5-5.2,14.2-11.7,18
					c-22.1,12.6-67.7,41.2-67.7,41.2l-42,17.3c0,0-3.9,0.9-7.7,2c-2.7,0.8-5.2,2.1-7.2,4c-1.7,1.5-4.9,2.7-15.1,2
					c-6-0.3-8,17,5.3,20.7c22.3,8.7,55.3,7.3,68.7,6.7c3.3,1.3,7.3-2.7,11.3-2.7s4,0.7,7.3,0.7c12.7,0,95.7-11.7,104-10.7
					s9.3,1.3,21.3,1.3c10.5,0,17.7-3.9,22.3-12.7c1.2-2.3,1.7-5,1.4-7.6c-3.2-41.3-8.7-57.2-10.9-61.9c-0.6-1.4-1-3-1.2-4.6
					c-0.8-8.1-1-18.5-1-18.5c28.3-250.7,16-250.3-18-361.7c-1-16.7-5-37.7-7-59c19.3-139.3-1-224.7,7.7-227.3
					c16.3-24.3,50.3-62.3,38-130.7c-16.7-55.3-51.3-78.7-62.7-140.7c-4.7-37.3-8-142,0-176.7c15.3-34.7,17.3-44,17.3-73.3
					c-0.7-93.3-54-204.7-54-204.7c-13.3-51.3,32.7-74,19.3-134.7c-11-115.7-201-107.7-199.3,17c0,0,3.7,18,5.7,22.3"/>
				<path class="st0" d="M859.9,632.6c0,13.3,4.7,75,2.9,120.1c6.5,43.7,9.7,54.3,11.1,65.9c0.7,6.7-1.1,11.1-1.3,12
					c-11.8,57.2-30.2,123.2-53.3,225.1c1.6,9.5,11.8,30.9,15.3,59.3c0.2,1.6,0.3,4.2,0.1,6.2c-1.7,14.4-10.5,51.6-17.1,72
					c-3,9.7-9,7.3-13,3.3c0.7,11-1.3,16.7-3,22.3c-7.3,5.3-13,0.7-14.3,0c-0.3,6.7-0.3,8.3-1.3,12c-8.3,5-12.3,2.3-14.3-1
					c-2-1.3-2-4.7-2-8.3c-8,4.7-12.3,1.7-14.7-1.3c-5-5.3-4.7-10.3-5-17.3c-0.3-7,0-14,0-19s0.7-6.7,1.7-13.3
					c-6.3,6-11.3-0.7-11.3-0.7c1-5.9,2.3-13,2.3-16.7c-2.7-0.7-3.7-35.7-2-45.3c1.3-7.7,16.7-42,22.3-51c-2.1-8.8-1.7-7.1-1.3-17.3
					c0.5-12,18.7-85,19-110.7c-1.7-21.7-2.3-88.7,6.7-150c-8.7-46.3-13-81.7-20-121"/>
				<g>
					<path d="M725.9,642.1c-0.7,1.3-1.2,2.6-2,3.9c-0.7,1.3-1.5,2.5-2.3,3.7c-0.9,1.2-1.7,2.4-2.7,3.5c-0.9,1.1-1.9,2.2-3,3.2
						l-1.6,1.5l-1.7,1.4c-1.1,0.9-2.3,1.8-3.6,2.6c-0.6,0.4-1.2,0.8-1.9,1.2c-0.6,0.4-1.3,0.8-1.9,1.1c-1.3,0.7-2.6,1.3-4,1.9
						c-1.4,0.6-2.7,1.1-4.1,1.5l-2.1,0.6l-2.1,0.5l-2.2,0.4l-2.2,0.3c-1.5,0.2-2.9,0.3-4.4,0.4c-1.5,0-3,0.1-4.4,0
						c-1.5-0.1-2.9-0.3-4.4-0.5c-1.5-0.3-2.9-0.6-4.3-1.1c-1.4-0.5-2.8-1.1-4.1-2l0.1,0.1l-1.9-0.9c-0.6-0.3-1.2-0.6-1.8-1
						c-1.2-0.7-2.3-1.4-3.4-2.3c-1.1-0.8-2.1-1.7-3.1-2.7c-0.5-0.5-1-1-1.4-1.5c-0.5-0.5-0.9-1-1.4-1.5l-1.3-1.6
						c-0.4-0.6-0.8-1.1-1.2-1.7c-0.7-1.1-1.5-2.3-2.1-3.5c-0.6-1.2-1.2-2.4-1.8-3.7c-0.5-1.2-1-2.5-1.5-3.8
						c-0.9-2.6-1.6-5.2-2.1-7.9c-0.3-1.3-0.5-2.7-0.7-4l-0.5-4c-0.1-0.9,0-1.5,0-2.2c0-0.7,0.1-1.4,0.1-2l0.3-4
						c0.1-1.3,0.2-2.6,0.2-3.9c0-0.6,0-1.3-0.1-1.8c0-0.3-0.1-0.5-0.1-0.7c0-0.2-0.2-0.2,0.2,0.1l1.3-2.7c0.2,0.1,0.5,0.3,0.6,0.5
						c0.1,0.1,0.3,0.3,0.4,0.5c0.1,0.1,0.2,0.3,0.2,0.4l0.1,0.4c0.1,0.5,0.2,0.9,0.2,1.3c0.1,0.8,0.1,1.5,0,2.2
						c0,1.4-0.2,2.7-0.3,4.1l-0.4,4c-0.1,0.7-0.1,1.3-0.2,1.9c0,0.6-0.1,1.3,0,1.7l0.4,4c0.2,1.3,0.3,2.6,0.6,3.9
						c0.4,2.6,1.1,5.1,1.8,7.6c0.4,1.2,0.8,2.5,1.3,3.7c0.5,1.2,1,2.4,1.6,3.5c0.6,1.2,1.2,2.3,1.9,3.4c0.3,0.5,0.7,1.1,1.1,1.6
						l1.2,1.6c0.8,1,1.7,2,2.6,2.9c0.9,0.9,1.9,1.8,2.9,2.6c1,0.8,2.1,1.5,3.2,2.2c0.6,0.3,1.1,0.7,1.7,1l1.7,0.9l0.1,0l0,0
						c1.1,0.8,2.4,1.4,3.7,1.9c1.3,0.5,2.7,0.8,4.1,1.1c1.4,0.3,2.8,0.5,4.3,0.6c1.4,0.1,2.9,0.2,4.3,0.1c1.4,0,2.9-0.1,4.3-0.3
						l2.1-0.3l2.1-0.4l2.1-0.5l2.1-0.6c1.4-0.4,2.8-0.9,4.1-1.4c1.3-0.5,2.7-1.1,4-1.8c0.7-0.3,1.3-0.7,1.9-1
						c0.6-0.3,1.3-0.7,1.9-1.1c1.2-0.8,2.4-1.6,3.6-2.5l1.7-1.4l1.6-1.5c1-1,2.1-2,3-3.1c1-1.1,1.8-2.2,2.7-3.4
						c0.8-1.2,1.7-2.4,2.4-3.7C724.6,644.7,725.2,643.3,725.9,642.1z"/>
				</g>
				<g>
					<path d="M715.4,1056.8c0,0,0.4-2.5,1-6.9c0.6-4.4,1.5-10.7,2.2-18.2c0.8-7.6,1.4-16.4,2-25.9c0.2-2.4,0.3-4.8,0.4-7.2
						c0.1-2.4,0.1-4.9-0.1-7.3c-0.2-2.5-0.5-4.9-0.9-7.4c-0.4-2.5-0.9-5-1.2-7.5c-0.3-2.6-0.4-5.2-0.2-7.7l0-0.5
						c0-0.2,0.1-0.3,0.1-0.5l0.2-0.9c0.1-0.3,0.1-0.6,0.2-0.9l0.3-0.9c0.3-1.3,0.7-2.5,1.2-3.7c1.8-4.7,4-9.1,6.3-13.3
						c2.3-4.2,4.7-8.1,7-11.8c1.2-1.9,2.3-3.7,3.4-5.4c0.5-0.9,1.1-1.7,1.6-2.6c0.6-0.8,1.1-1.6,1.7-2.4c2.3-3,4.7-5.6,6.7-8
						c2.1-2.3,3.9-4.3,5.4-5.9c3-3.2,4.8-5.1,4.8-5.1s-1.7,1.9-4.7,5.2c-1.5,1.7-3.3,3.7-5.3,6c-2,2.4-4.3,5-6.5,8.1
						c-0.6,0.8-1.1,1.5-1.7,2.4c-0.5,0.8-1,1.7-1.6,2.6c-1.1,1.8-2.1,3.6-3.3,5.5c-2.2,3.8-4.5,7.7-6.7,11.9
						c-2.2,4.2-4.4,8.6-6,13.3c-0.4,1.2-0.8,2.4-1,3.5l-0.2,0.9c-0.1,0.3-0.1,0.6-0.1,0.9l-0.1,0.9c0,0.1-0.1,0.4-0.1,0.4l0,0.5
						c-0.2,2.5,0,5,0.3,7.4c0.3,2.5,0.9,5,1.3,7.5c0.5,2.5,0.8,5,1,7.6c0.2,2.5,0.3,5,0.2,7.5c-0.1,2.4-0.2,4.9-0.3,7.3
						c-0.4,9.5-0.9,18.4-1.5,26c-0.6,7.6-1.4,13.9-1.9,18.4c-0.6,4.4-0.9,6.9-0.9,6.9L715.4,1056.8z"/>
				</g>
				<g>
					<path d="M867.6,579.2c0,0,0,0.9-0.1,2.5c0,0.8-0.1,1.8-0.2,2.9c-0.1,1.1-0.2,2.4-0.3,3.7c-0.4,5.5-1.3,12.8-2.2,20
						c-0.9,7.3-1.8,14.5-2.5,20c-0.3,2.7-0.6,5-0.8,6.6c-0.1,0.8-0.1,1.4-0.2,1.8c0,0.4,0,0.6,0,0.6l-3-0.2c0,0,0-0.2,0.1-0.7
						c0.1-0.4,0.1-1.1,0.3-1.9c0.2-1.6,0.6-3.9,1.1-6.6c1-5.4,2.3-12.6,3.5-19.8c1.3-7.2,2.4-14.4,3.2-19.9c0.2-1.4,0.4-2.6,0.5-3.7
						c0.1-1.1,0.3-2.1,0.3-2.9C867.5,580.1,867.6,579.2,867.6,579.2z"/>
				</g>
				<g>
					<path d="M731.2,545.2c0.3,1.2,0.7,2.3,1.1,3.4c0.4,1.1,0.8,2.2,1.3,3.3c0.9,2.2,2,4.3,3.1,6.5c2.2,4.2,4.6,8.4,6.9,12.6l0,0
						l0,0c0.7,1.8,1.5,3.6,2.1,5.4c0.7,1.8,1.3,3.6,1.9,5.5c0.6,1.8,1.2,3.6,1.8,5.5c0.6,1.8,1.2,3.7,1.7,5.5
						c2.2,7.4,4.3,14.7,6.4,22.1c2.1,7.4,4.1,14.8,6,22.2l2.9,11.1c1,3.7,1.9,7.4,3,11.1l-2.9,0.8c-0.9-3.8-1.8-7.5-2.7-11.2
						l-2.7-11.2c-1.8-7.5-3.6-14.9-5.5-22.3c-1.9-7.4-3.8-14.9-5.8-22.3c-0.5-1.9-1-3.7-1.6-5.5c-0.5-1.8-1.1-3.7-1.6-5.5
						c-0.5-1.8-1.1-3.7-1.7-5.5c-0.6-1.8-1.3-3.6-1.9-5.4l0,0c-2.2-4.2-4.5-8.5-6.6-12.8c-1-2.2-2-4.3-2.9-6.6
						c-0.4-1.1-0.8-2.2-1.2-3.4C731.9,547.5,731.5,546.4,731.2,545.2z"/>
				</g>
				<g>
					<path d="M670,360.2c0,0,0.2-0.2,0.6-0.6c0.2-0.2,0.3-0.4,0.5-0.6c0.2-0.2,0.4-0.6,0.6-0.9c0.4-0.8,0.9-1.7,1.2-2.8
						c0.2-0.5,0.4-1.1,0.5-1.7c0.2-0.6,0.3-1.2,0.4-1.8c0.5-2.5,0.8-5,1-6.9c0.2-1.9,0.3-3.2,0.3-3.2s0.1,1.3,0.2,3.2
						c0.1,1.9,0.2,4.5,0,7.1c-0.1,0.6-0.1,1.3-0.2,1.9c-0.1,0.6-0.2,1.3-0.3,1.9c-0.2,1.2-0.5,2.4-0.9,3.4c-0.2,0.5-0.4,0.9-0.6,1.4
						c-0.2,0.4-0.5,0.8-0.6,1c-0.3,0.5-0.5,0.7-0.5,0.7L670,360.2z"/>
				</g>
				<g>
					<path d="M657.2,339.6l0.5-0.1c0.1,0,0.3,0,0.5-0.1c0.3-0.1,0.7-0.1,1-0.2c0.7-0.2,1.5-0.4,2.3-0.5c0.8-0.1,1.7-0.2,2.5-0.2
						c0.2,0,0.4,0,0.6,0l0.4,0l0.3,0c0.4,0.1,0.7,0.1,1.2,0.2c0.8,0.2,1.6,0.4,2.4,0.6c0.8,0.3,1.5,0.6,2.2,0.9
						c0.7,0.3,1.3,0.6,2,0.7c0.3,0.1,0.6,0.1,1,0.1c0.3,0,0.7,0,1,0l-0.2,0.1c1.8-0.7,3.6-2,4.9-3.5c0.3-0.4,0.6-0.8,0.9-1.2
						c0.2-0.4,0.5-0.9,0.6-1.3c0.1-0.5,0.2-0.9,0.2-1.4c0-0.2-0.1-0.5-0.1-0.7c-0.1-0.3-0.1-0.5-0.2-0.8c-0.2-0.5-0.4-0.9-0.6-1.4
						c-0.2-0.5-0.5-0.9-0.9-1.3c-0.7-0.8-1.4-1.5-2.3-2.1c-0.4-0.3-0.9-0.6-1.4-0.8c-0.5-0.2-1-0.4-1.5-0.6c-0.5-0.2-1-0.3-1.5-0.5
						c-0.5-0.1-1-0.2-1.6-0.3c0.5,0.1,1.1,0.1,1.6,0.2c0.5,0.1,1.1,0.2,1.6,0.4c0.5,0.2,1,0.3,1.5,0.5c0.5,0.2,1,0.5,1.5,0.7
						c0.9,0.5,1.8,1.2,2.6,2.1c0.4,0.4,0.7,0.8,1,1.3c0.3,0.5,0.6,1,0.8,1.5c0.1,0.3,0.2,0.5,0.3,0.8c0.1,0.3,0.1,0.6,0.2,0.9
						c0.1,0.6,0.1,1.2-0.1,1.8c-0.1,0.6-0.3,1.1-0.6,1.7c-0.2,0.5-0.6,1-0.9,1.5c-0.7,0.9-1.5,1.7-2.3,2.5c-0.9,0.7-1.8,1.3-2.9,1.8
						l-0.1,0l-0.1,0c-0.4,0.1-0.8,0.1-1.3,0.1c-0.4,0-0.9,0-1.3-0.1c-0.9-0.1-1.6-0.4-2.3-0.7c-0.7-0.3-1.4-0.5-2.1-0.7
						c-0.7-0.2-1.4-0.3-2.1-0.4c-0.3,0-0.7-0.1-1.1-0.1l-0.3,0l-0.2,0c-0.2,0-0.3,0-0.5,0c-0.7,0-1.3,0.1-2,0.3
						c-0.7,0.2-1.4,0.4-2.1,0.6c-0.4,0.1-0.8,0.2-1.2,0.3c-0.2,0.1-0.4,0.1-0.7,0.1l-0.6,0.1L657.2,339.6z"/>
				</g>
				<g>
					<path d="M674.6,290.8c0,0,0.1,0.2,0.2,0.5c0.1,0.2,0.1,0.4,0.2,0.6c0.1,0.3,0.2,0.6,0.2,1c0.1,0.4,0.1,0.8,0.2,1.2
						c0,0.5,0.1,0.9,0,1.5c0,1.1-0.3,2.3-0.8,3.5c-0.5,1.2-1.3,2.3-2,3.3c-0.8,1-1.6,2.1-2.4,3.2c-1.7,2.2-3.5,4.6-5.3,7
						c-3.6,4.7-7.2,9.5-9.7,13.2c-1.3,1.8-2.2,3.4-2.8,4.6c-0.3,0.6-0.5,1-0.6,1.4c-0.1,0.2-0.1,0.3-0.1,0.4c0,0.1,0,0.1,0,0.1
						s0,0,0-0.1c0-0.1,0-0.2,0.1-0.4c0.1-0.3,0.2-0.8,0.5-1.4c0.5-1.2,1.4-2.9,2.5-4.8c2.2-3.9,5.4-9,8.6-14c1.6-2.5,3.2-5,4.8-7.4
						c1.6-2.4,3.2-4.4,3.9-6.2c0.4-0.9,0.5-1.7,0.5-2.4c0-0.4,0-0.7-0.1-1.1c-0.1-0.3-0.1-0.6-0.2-0.9c-0.1-0.3-0.1-0.5-0.2-0.7
						c-0.1-0.2-0.2-0.4-0.2-0.6c-0.1-0.3-0.2-0.5-0.2-0.5L674.6,290.8z"/>
				</g>
				<g>
					<path d="M657.7,342.3c0,0-0.2,0-0.5-0.1c-0.1,0-0.2,0-0.3,0c-0.1,0-0.3-0.1-0.5-0.1c-0.3-0.1-0.7-0.2-1-0.3
						c-0.4-0.1-0.7-0.3-1-0.6c-0.3-0.2-0.7-0.5-1-0.8c-0.1-0.2-0.3-0.3-0.4-0.5c-0.1-0.2-0.3-0.4-0.4-0.5c-0.2-0.4-0.5-0.8-0.6-1.2
						c-0.2-0.4-0.3-0.8-0.4-1.2c-0.1-0.4-0.2-0.8-0.2-1.2c-0.1-0.8-0.1-1.5,0-2.1c0.1-0.6,0.2-1.1,0.3-1.4c0.1-0.3,0.2-0.5,0.2-0.5
						s0,0.2,0,0.5c0,0.3,0,0.8,0.1,1.4c0.1,0.6,0.2,1.2,0.5,1.9c0.1,0.3,0.3,0.7,0.4,1c0.2,0.3,0.4,0.6,0.6,0.9
						c0.2,0.3,0.4,0.5,0.7,0.8l0.4,0.3c0.1,0.1,0.3,0.2,0.4,0.3c0.3,0.2,0.5,0.3,0.8,0.4c0.3,0.1,0.5,0.2,0.7,0.2c0.2,0,0.4,0,0.5,0
						c0.1,0,0.1,0,0.2,0c0.1,0,0.2,0,0.3,0c0.3,0,0.5-0.1,0.5-0.1L657.7,342.3z"/>
				</g>
				<g>
					<path d="M775.3,290l0.8-4.4c0.4-1.5,0.7-2.9,1.2-4.4c0.5-1.4,0.9-2.9,1.5-4.3c0.3-0.7,0.6-1.4,0.9-2.1l1.1-2.1
						c0.8-1.4,1.7-2.7,2.8-3.9c0.5-0.6,1.1-1.2,1.7-1.7c0.6-0.6,1.3-1,2-1.5c0.2-0.1,0.3-0.2,0.5-0.4l0.6-0.3l1.2-0.6
						c0.4-0.2,0.8-0.3,1.3-0.4c0.4-0.1,0.9-0.3,1.3-0.3l1.3-0.1c0.4,0,0.9,0,1.3,0.1l0.7,0c0.2,0,0.4,0.1,0.7,0.1l1.3,0.3
						c1.7,0.6,3.3,1.3,4.6,2.3c0.7,0.5,1.3,1,2,1.6c0.6,0.6,1.2,1.2,1.7,1.8c1.1,1.3,2,2.6,2.8,4c0.4,0.7,0.8,1.4,1.1,2.2
						c0.3,0.7,0.7,1.5,0.9,2.3l0.4,1.2l0.3,1.2c0.2,0.8,0.4,1.6,0.6,2.4c0.3,1.6,0.4,3.3,0.4,5c0,1.7-0.2,3.3-0.5,5
						c-0.2,0.8-0.4,1.6-0.7,2.5c-0.3,0.8-0.6,1.6-1,2.4l0.1-0.4l-1.2,3.4c-0.4,1.1-0.8,2.3-1.3,3.3l-1.4,3.3c-0.4,1.1-1,2.2-1.5,3.3
						c-0.6,1.1-1,2.2-1.7,3.2l-1.9,3.1c-0.6,1-1.4,2-2.1,3c-0.4,0.5-0.7,1-1.1,1.5l-1.2,1.4l-1.2,1.4l-1.3,1.3l-1.3,1.3
						c-0.5,0.4-1,0.8-1.5,1.2c-0.5,0.4-1,0.8-1.5,1.1l-1.6,1c-1,0.7-2.2,1.2-3.4,1.7c-0.6,0.3-1.2,0.4-1.8,0.6
						c-0.6,0.2-1.2,0.4-1.8,0.5l-1.9,0.3c-0.6,0.1-1.3,0.1-1.9,0.1c-0.3,0-0.6,0-1,0l-1-0.1c-0.6-0.1-1.3-0.1-1.9-0.2
						c-0.6-0.2-1.3-0.3-1.9-0.5l-1.8-0.7l0.2,0.1l-1.5-0.6c-0.5-0.2-1-0.4-1.5-0.7c-0.5-0.3-1-0.5-1.4-0.9c-0.4-0.4-0.9-0.7-1.3-1.1
						c-0.4-0.4-0.8-0.8-1.1-1.2c-0.3-0.5-0.6-0.9-0.9-1.4c-0.2-0.5-0.5-1-0.7-1.5c-0.2-0.5-0.3-1-0.5-1.5c-0.1-0.5-0.2-1-0.3-1.6
						c0-0.5-0.1-1-0.1-1.6c0-0.5,0-1,0.1-1.5c0.1-0.5,0.1-1,0.2-1.5c0.1-0.5,0.2-1,0.3-1.5c0.2-0.5,0.3-1,0.5-1.4
						c0.2-0.5,0.4-0.9,0.6-1.4c0.2-0.5,0.5-0.9,0.7-1.3l0.3,0.1c-0.2,0.4-0.4,0.9-0.6,1.3c-0.2,0.4-0.3,0.9-0.5,1.4
						c-0.2,0.5-0.2,0.9-0.3,1.4c-0.1,0.5-0.1,1-0.2,1.4c-0.1,0.5-0.1,1-0.1,1.4c0,0.5,0,1,0,1.5c0,0.5,0.1,1,0.2,1.4
						c0.1,0.5,0.2,0.9,0.3,1.4c0.2,0.5,0.3,0.9,0.5,1.4c0.2,0.4,0.5,0.8,0.7,1.3c0.3,0.4,0.6,0.8,0.9,1.2c0.3,0.4,0.7,0.7,1,1
						c0.3,0.3,0.8,0.6,1.1,0.9c0.4,0.3,0.8,0.5,1.2,0.7c0.4,0.2,0.9,0.5,1.3,0.6l1.4,0.5l0,0l1.6,0.6c0.5,0.2,1.1,0.2,1.7,0.3
						c0.6,0.1,1.1,0.1,1.7,0.2l0.9,0c0.3,0,0.6,0,0.9-0.1c0.6-0.1,1.1-0.1,1.7-0.2l1.7-0.4c0.6-0.1,1.1-0.4,1.6-0.5
						c0.5-0.2,1.1-0.3,1.6-0.6c1-0.5,2.1-1,3-1.7l1.4-0.9l1.3-1.1c0.4-0.4,0.9-0.7,1.3-1.1l1.2-1.2l1.2-1.2l1.1-1.3l1.1-1.3
						c0.4-0.4,0.7-0.9,1-1.4c0.6-1,1.4-1.9,1.9-2.9l1.8-3c0.6-1,1-2.1,1.6-3.1c0.5-1,1.1-2.1,1.5-3.2l1.3-3.2
						c0.5-1.1,0.8-2.2,1.2-3.3l1.2-3.3l0,0l0,0c0.3-0.7,0.6-1.4,0.8-2c0.2-0.7,0.4-1.4,0.6-2.1c0.3-1.4,0.5-2.9,0.5-4.4
						c0-1.5-0.1-3-0.4-4.4c-0.1-0.7-0.3-1.5-0.5-2.2l-0.3-1.1l-0.4-1.1c-0.2-0.7-0.5-1.4-0.8-2.1c-0.3-0.7-0.6-1.3-1-2
						c-0.7-1.3-1.6-2.5-2.5-3.7c-1-1.1-2-2.2-3.2-3.1c-1.2-0.9-2.5-1.6-3.9-2.1l-1.1-0.3c-0.2,0-0.4-0.1-0.5-0.1l-0.5,0
						c-0.4,0-0.7-0.1-1.1-0.1l-1.1,0.1c-0.4,0-0.7,0.1-1.1,0.2c-0.4,0.1-0.7,0.2-1.1,0.3l-1,0.4l-0.5,0.2c-0.2,0.1-0.3,0.2-0.5,0.3
						c-0.6,0.4-1.3,0.8-1.8,1.3c-0.6,0.5-1.1,0.9-1.6,1.5c-1,1.1-1.9,2.3-2.7,3.5l-1.1,1.9c-0.4,0.6-0.7,1.3-1,2
						c-0.7,1.3-1.2,2.7-1.8,4.1c-0.5,1.4-1,2.8-1.5,4.2l-1.2,4.3L775.3,290z"/>
				</g>
				<g>
					<path d="M646.2,618.1c0,0,0.1,0.1,0.3,0.3c0.1,0.1,0.2,0.2,0.4,0.3c0.1,0.1,0.2,0.2,0.4,0.3c0.1,0.1,0.3,0.2,0.5,0.3
						c0.1,0.1,0.2,0.1,0.3,0.2c0.1,0,0.2,0.1,0.4,0.1c0.5,0.2,1.1,0.3,1.9,0.3c1.4,0,3.2-0.5,4.9-1.5c0.8-0.5,1.7-1.1,2.5-1.8
						c0.8-0.7,1.5-1.5,2.2-2.3c1.3-1.7,2.3-3.7,2.7-5.7c0.2-1,0.3-2,0.3-2.9c0-0.9-0.1-1.8-0.3-2.6c-0.2-0.8-0.4-1.5-0.7-2.2
						c-0.2-0.6-0.6-1.1-0.8-1.6c-0.5-0.8-0.8-1.3-0.8-1.3s0.4,0.4,1,1.2c0.2,0.4,0.6,0.9,0.9,1.5c0.3,0.6,0.6,1.3,0.9,2.1
						c0.2,0.8,0.5,1.7,0.6,2.7c0.1,1,0.1,2-0.1,3.1c-0.3,2.2-1.1,4.4-2.4,6.4c-0.6,1-1.4,1.9-2.2,2.8c-0.8,0.9-1.7,1.6-2.6,2.2
						c-1.8,1.3-3.9,2.1-5.9,2.3c-1,0.1-1.9,0-2.7-0.2c-0.2,0-0.4-0.1-0.6-0.1c-0.2-0.1-0.4-0.1-0.5-0.2c-0.3-0.1-0.6-0.3-0.9-0.4
						c-0.3-0.2-0.6-0.3-0.7-0.4c-0.2-0.1-0.3-0.2-0.4-0.3c-0.2-0.2-0.3-0.2-0.3-0.2L646.2,618.1z"/>
				</g>
				<g>
					<path d="M645.9,609.8c0,0,0,0,0.1,0.1c0,0,0.1,0.1,0.2,0.1c0.1,0.1,0.1,0,0.1,0.1c0.1,0.1,0.2,0.2,0.4,0.2
						c0.2,0.1,0.4,0.1,0.7,0.1c0.5,0,1.2-0.2,1.9-0.6c0.7-0.4,1.3-1,1.8-1.7c0.5-0.7,0.9-1.5,1.1-2.3c0.2-0.8,0.3-1.6,0.2-2.3
						c-0.1-0.7-0.3-1.2-0.4-1.6c-0.2-0.4-0.3-0.6-0.3-0.6s0.1,0.2,0.4,0.5c0.2,0.4,0.5,0.9,0.7,1.6c0.2,0.7,0.3,1.6,0.1,2.5
						c-0.1,0.9-0.4,1.9-0.9,2.7c-0.5,0.9-1.1,1.7-1.9,2.3c-0.7,0.6-1.6,1.1-2.5,1.2c-0.4,0.1-0.9,0.1-1.2,0c-0.4-0.1-0.7-0.2-1-0.3
						c-0.1-0.1-0.3-0.2-0.3-0.2c-0.1,0-0.1-0.1-0.2-0.1c-0.1-0.1-0.1-0.1-0.1-0.1L645.9,609.8z"/>
				</g>
				<g>
					<path d="M723.6,406.4c0,0,1.7-0.3,4.6-0.8c2.9-0.5,7.1-1.3,12.1-2.5c5-1.2,10.7-2.8,16.5-5.3c2.9-1.3,5.8-2.8,8.5-4.7
						c2.7-1.9,5.3-4,7.6-6.5c0.6-0.6,1.1-1.2,1.7-1.9l0.4-0.5l0.2-0.2l0.2-0.3l0.8-1c1-1.4,1.8-2.8,2.6-4.2c1.6-2.9,2.7-6,3.7-9.1
						c1.9-6.1,2.7-12.1,3.2-17.2c0.4-5.1,0.4-9.4,0.2-12.4c-0.1-1.5-0.2-2.7-0.3-3.5c-0.1-0.8-0.3-1.2-0.3-1.2s0.1,0.4,0.3,1.2
						c0.2,0.8,0.3,2,0.5,3.5c0.3,3,0.5,7.3,0.2,12.5c-0.3,5.1-0.9,11.2-2.6,17.5c-0.8,3.1-1.9,6.3-3.5,9.4c-0.7,1.5-1.6,3.1-2.6,4.5
						l-0.7,1.1l-0.2,0.3l-0.2,0.3l-0.4,0.5c-0.5,0.7-1.1,1.3-1.7,2c-2.3,2.6-5,5-7.8,7c-2.8,2-5.8,3.7-8.7,5.1
						c-5.9,2.8-11.8,4.5-16.8,5.8c-5,1.3-9.3,2.2-12.2,2.8c-3,0.6-4.6,0.9-4.6,0.9L723.6,406.4z"/>
				</g>
				<g>
					<path d="M767.8,462.5c0,0,0.6-1.6,1.8-4.4c0.6-1.4,1.3-3.1,2-5.1c0.7-2,1.6-4.1,2.4-6.6c0.4-1.2,0.8-2.5,1.3-3.8
						c0.5-1.3,0.9-2.7,1.3-4.1c0.8-2.8,1.8-5.8,2.6-8.9c0.4-1.5,0.9-3.1,1.3-4.7c0.4-1.6,0.8-3.2,1.3-4.9c0.5-1.6,0.8-3.3,1.2-5
						c0.4-1.7,0.8-3.3,1.1-5c0.6-3.4,1.3-6.8,1.8-10.1c0.6-3.3,0.9-6.7,1.4-9.9c0.3-3.2,0.7-6.3,1-9.3c0.3-2.9,0.5-5.7,0.7-8.3
						c0.4-5.2,0.6-9.5,0.8-12.5c0.1-3,0.2-4.7,0.2-4.7l0.3,0c0,0,0,1.7,0,4.8c0,3-0.1,7.3-0.2,12.5c-0.1,2.6-0.2,5.4-0.3,8.4
						c-0.1,3-0.4,6.1-0.6,9.3c-0.3,3.2-0.6,6.6-1.1,10c-0.4,3.4-0.9,6.8-1.4,10.3c-0.2,1.7-0.6,3.4-0.9,5.1c-0.3,1.7-0.6,3.4-1,5.1
						c-0.4,1.7-0.7,3.3-1.1,5c-0.4,1.6-0.8,3.2-1.2,4.8c-0.8,3.2-1.9,6.1-2.9,9c-0.9,2.8-2.1,5.4-3.1,7.8c-0.5,1.2-1,2.3-1.6,3.4
						c-0.5,1.1-1,2.1-1.5,3c-0.9,1.9-1.9,3.5-2.6,4.8c-1.5,2.6-2.4,4.1-2.4,4.1L767.8,462.5z"/>
				</g>
				<g>
					<path d="M827,446.7c0,0-0.1,0.2-0.3,0.6c-0.2,0.4-0.5,1-1,1.6c-0.2,0.3-0.5,0.7-0.8,1.1c-0.3,0.4-0.7,0.8-1,1.3
						c-0.7,0.9-1.6,1.9-2.6,2.9c-0.5,0.5-1,1-1.6,1.6c-0.6,0.5-1.2,1.1-1.8,1.6c-1.2,1.1-2.5,2.2-4,3.3c-0.7,0.6-1.5,1.1-2.2,1.6
						c-0.7,0.6-1.5,1.1-2.3,1.6c-1.6,1-3.3,2-5,2.9c-1.8,0.8-3.6,1.6-5.8,2.1c-0.3,0.1-0.5,0.1-0.8,0.2c-0.3,0-0.6,0.1-0.9,0.1
						c-0.3,0-0.6,0-0.9,0l-0.7,0c-0.9-0.1-1.8-0.1-2.7-0.2c-1.8-0.1-3.4-0.3-5-0.4c-1.6-0.1-3-0.2-4.4-0.3c-1.4,0-2.6,0-3.7,0
						c-1.1,0.1-2.1,0.1-2.9,0.2c-0.8,0.1-1.5,0.1-1.9,0.2c-0.4,0.1-0.7,0.1-0.7,0.1l-0.1-0.3c0,0,0.2-0.1,0.6-0.2
						c0.4-0.2,1-0.4,1.8-0.6c0.8-0.2,1.8-0.5,2.9-0.7c1.1-0.2,2.4-0.4,3.8-0.5c2.8-0.3,6.1-0.2,9.6-0.1c1.7,0,3.6,0.2,5.3-0.3
						c1.8-0.4,3.5-1.2,5.1-2c3.3-1.6,6.5-3.6,9.4-5.5c1.4-1,2.8-2,4.1-2.9c1.3-1,2.5-1.9,3.6-2.8c1.1-0.9,2.1-1.7,2.9-2.5
						c0.9-0.8,1.6-1.4,2.1-2c0.6-0.6,1-1,1.3-1.4c0.3-0.3,0.5-0.5,0.5-0.5L827,446.7z"/>
				</g>
				<g>
					<path d="M902.9,1803.7c0,0-0.7,0.1-1.9,0.3c-0.6,0.1-1.4,0.2-2.2,0.2c-0.9,0-1.9,0.1-2.9,0c-1.1,0-2.3-0.2-3.5-0.5
						c-1.2-0.3-2.6-0.7-3.9-1.4c-1.3-0.7-2.6-1.7-3.5-2.9c-1-1.2-1.7-2.7-2.2-4.2c-0.5-1.5-0.7-3-0.9-4.4c-0.1-1.5-0.1-2.9,0-4.2
						c0.1-1.3,0.2-2.6,0.4-3.8c0.1-1.2,0.4-2.3,0.6-3.4c0.4-2.1,0.8-3.8,1.1-5c0.3-1.2,0.5-1.9,0.5-1.9l0.2,0c0,0-0.3,2.8-0.7,6.9
						c-0.2,2.1-0.4,4.5-0.4,7.1c0,2.6,0.2,5.4,1,8c0.4,1.3,1,2.5,1.9,3.6c0.8,1.1,1.8,1.9,2.9,2.6c1.1,0.7,2.3,1.1,3.4,1.5
						c1.1,0.3,2.2,0.6,3.3,0.7c1,0.2,2,0.2,2.8,0.3c0.8,0,1.6,0.1,2.2,0.1c1.2,0,1.9,0,1.9,0L902.9,1803.7z"/>
				</g>
				<g>
					<path d="M843.4,1385.2c0,0,0.3,1.1,0.8,3c0.2,1,0.5,2.1,0.7,3.4c0.3,1.3,0.5,2.8,0.7,4.5c0.2,1.7,0.5,3.5,0.5,5.4
						c0.1,1.9,0,4-0.1,6c-0.1,1.1-0.1,2.1-0.1,3.2c-0.1,1.1-0.1,2.2,0,3.3c0,1.1,0,2.2,0,3.3c0,1.1,0,2.2,0.1,3.4
						c0,2.3-0.1,4.5-0.5,6.8c-0.1,0.6-0.2,1.1-0.3,1.7c-0.2,0.5-0.3,1.1-0.5,1.6l-0.2,0.8c-0.1,0.3-0.2,0.5-0.3,0.8
						c-0.2,0.5-0.5,1-0.7,1.6c-0.5,1-1,1.8-1.6,2.7c-0.6,0.9-1.1,1.7-1.7,2.5c-1.2,1.6-2.5,2.9-3.6,4.1c-1.2,1.2-2.3,2.2-3.1,3.2
						c-0.8,1-1.5,1.9-2,2.7c-0.5,0.8-0.8,1.5-0.9,2c-0.2,0.5-0.3,0.7-0.3,0.7l-0.3-0.1c0,0,0-0.3,0-0.8c0-0.5,0.1-1.3,0.4-2.3
						c0.2-1,0.7-2.2,1.5-3.4c0.7-1.2,1.7-2.5,2.7-3.8c1-1.3,2-2.7,3.1-4.2c0.5-0.8,1-1.6,1.5-2.4c0.5-0.8,1.1-1.7,1.6-2.5
						c0.2-0.4,0.4-0.9,0.7-1.3l0.3-0.7l0.3-0.7c0.2-0.5,0.4-0.9,0.6-1.4c0.1-0.5,0.3-1,0.4-1.5c0.6-2,1.1-4.1,1.5-6.3
						c0.2-1.1,0.3-2.2,0.5-3.3c0.1-1.1,0.1-2.2,0.2-3.3c0-2.2-0.2-4.3-0.5-6.4c-0.3-2.1-0.7-4-0.9-5.9c-0.2-1.9-0.3-3.7-0.4-5.3
						c-0.1-1.7-0.2-3.2-0.2-4.5c0-1.4,0-2.5,0-3.5c0.1-2,0.2-3.1,0.2-3.1L843.4,1385.2z"/>
				</g>
			</g>
		</g>
		<g id="Back">
			<g>
				<g>
					<path class="st0" d="M1617,241c-1.2,21,0.5,53.5-0.5,53s-9-12.5-5.5,21.5s18.5,29.1,19.3,24.6s5.2,13.9,9.2,30.9s4.5,59.5,2,67
						s-57,38-64,40c-59.5,0-71.5,24.5-78,34s-16.5,67.5-19,93s-1,141.5-3,151c-13.5,41-16,51-21,81s-13,72.5-12,165
						c-6.5,26-5,30.5-3,45c-2,25-2,53.5-1.5,72c3,18,2,24,4.5,36.5c5,14,12,36,17,51.5c1.5,4,5.5,2.5,7,0c2,4.5,4,7,6,8.5
						c11.5-2,9-9,7.5-21c-1-6.5-2.5-10-3-15c1.5-11,0-18.5,0.5-23c4,2,4,2,7,2c13,2.5,10.5-9.5,12.5-16.5c4-25.5,2.5-5,5-35.5
						s-0.5-36-15-58c-5.5-11-6.5-18.5-6-25.5s8.5-39,31-113.5c46.5-117.5,27-126,43.5-230c4,14,32,112.5,29.5,124
						c-21,53.5-28,79.5-34.5,133c-30.5,140.5-8.5,212.5,41.5,394c2,22.5,4.5,48,7.5,70.5c-3,24.5-2,35.5-0.5,58
						c-11,79.5-8.5,119.5,33,290.5c-2.5,23-3,33-3,42c-7,12-13,24.5-17.5,28c-17,14.5-33.5,21.5-38,36c4,8,14,25,66.5,22
						c20-5,35-10,45.5-19.5c1.5-17.5,6.5-23,8-39.5c-1-21,1-34,0-56c-11-76.5,6-175.5,6-175.5s9.5,140,6,159c-6,11.5-4,30-4.5,42
						c-1.6,12.5-1.4,35.7-2.3,45.5c-0.9,9.7,5,18,7.3,27.5c3,12,17.6,14.9,46.5,14c20.5-2,35.5-2.5,48.5-7.5c7.5-14,17-15.5,2-34.5
						c-21.5-14-26-17.5-33.5-27.5c-5-29-6-51.5-6-55c10.5-81.5,60-215.5,40.5-294c-2.5-31.5-1.5-44,0.5-64c5.5-33.5,8-50.5,11.5-66
						c75-245,70-328.5,54.5-403c-8-63.5-35.5-87-46-133c12.5-50.5,18-79,22.5-118c7.5,38.5,13,82,17,127.5
						c2.5,31,45.5,181.5,63,247.5c0.5,17-12.5,20-13.5,39c-0.5,16,7.5,45.5,8.5,63c1,9.5,2.5,14.5,7,16.5c-0.5,8-8.5,20,2.5,27
						c-1,7.5-4,13.5,1,15c-2,9,3,14.5,10,14c0.5-2.5,0-6,0-6s3.5,5,6-1.5c4-17,16.5-47,24.5-86c-2-36-7-56-7-66
						c-0.5-53-0.5-55-4-119.5c-24.5-137-31-181-40-305.5c-2.5-74.5-4.5-116-38.5-129.5c-32-10.5-51-16-71.5-23.5
						c-31.5-26-37-26-51.5-54c-3-37-3.5-39,0-58.5s4.5-26,7.5-31c18.5,12,18.5-23,20-40.5c0-0.2,0-0.4,0-0.6c0.2-2,1-18.9-8-10.4
						c-1.6-19.5-2.8-34.9-4-49.5C1770,144,1622,150,1617,241z"/>
				</g>
				<g>
					<path d="M1705.3,955.3c0,0,0.1,2.6,0.3,7.2c0,2.3,0,5.1,0.1,8.3c0,3.2,0,6.8-0.1,10.7c-0.1,7.9-0.4,17-0.8,26.8
						c-0.4,9.8-0.7,20.3-1.1,30.7c-0.2,5.2-0.4,10.5-0.5,15.6c-0.1,5.1-0.3,10.2-0.4,15.1c-0.1,4.9-0.2,9.6-0.3,14.1
						c0,4.5-0.1,8.7-0.1,12.6c0,3.9,0,7.5,0.1,10.7c0.1,3.2,0.1,5.9,0.2,8.2c0.2,4.5,0.3,7.1,0.3,7.1l-6,0.3c0,0,0-2.6-0.1-7.3
						c-0.1-2.3,0-5.1,0.1-8.3c0-3.2,0.2-6.8,0.3-10.8c0.1-3.9,0.3-8.2,0.5-12.7c0.2-4.5,0.5-9.2,0.8-14.2c0.3-4.9,0.6-10,1-15.1
						c0.4-5.1,0.7-10.4,1.1-15.6c0.8-10.4,1.5-20.9,2.2-30.7c0.7-9.8,1.3-18.9,1.7-26.8c0.2-3.9,0.3-7.5,0.5-10.7
						c0.1-3.2,0.2-6,0.2-8.3C1705.3,958,1705.3,955.3,1705.3,955.3z"/>
				</g>
				<g>
					<path d="M1701.7,1119.3c0,0,0.4,0.2,1.3,0.7c0.4,0.2,0.9,0.5,1.5,0.9c0.3,0.2,0.6,0.3,1,0.5c0.3,0.2,0.7,0.3,1.1,0.5
						c0.8,0.4,1.6,0.8,2.5,1.2c1,0.4,2,0.9,3.1,1.3c2.2,0.9,4.8,1.9,7.6,2.7c1.4,0.5,2.9,0.8,4.5,1.3c1.6,0.3,3.2,0.8,4.8,1.1
						c3.3,0.7,6.9,1.2,10.6,1.5c3.7,0.3,7.6,0.5,11.5,0.5c3.9,0,7.9-0.2,11.9-0.6c16-1.4,31.7-5.6,43.2-9.4c5.8-1.9,10.5-3.7,13.8-5
						c1.7-0.6,2.9-1.2,3.8-1.5c0.9-0.4,1.3-0.5,1.3-0.5s-0.5,0.2-1.3,0.6c-0.9,0.4-2.1,1-3.8,1.7c-3.2,1.4-7.9,3.4-13.6,5.5
						c-11.4,4.3-27,9-43.2,11.1c-4,0.5-8.1,0.9-12.1,1.1c-4,0.2-8,0.1-11.9,0c-3.8-0.2-7.6-0.6-11.1-1.2c-1.8-0.3-3.4-0.6-5.1-0.9
						c-1.6-0.4-3.2-0.7-4.7-1.1c-3-0.8-5.7-1.7-8.1-2.6c-1.2-0.5-2.3-0.9-3.3-1.3c-1-0.5-1.9-0.9-2.8-1.3c-0.4-0.2-0.8-0.4-1.2-0.5
						c-0.4-0.2-0.7-0.3-1-0.5c-0.6-0.3-1.1-0.6-1.6-0.8c-0.8-0.4-1.3-0.7-1.3-0.7L1701.7,1119.3z"/>
				</g>
				<g>
					<path d="M1701.3,1122.8c0,0-1.5,0.6-4.2,1.7c-1.3,0.6-3.1,1.1-5,1.7c-1,0.3-2,0.7-3.1,0.9c-1.1,0.3-2.3,0.5-3.5,0.8
						c-0.6,0.1-1.2,0.3-1.9,0.4c-0.6,0.1-1.3,0.2-2,0.3c-1.3,0.2-2.7,0.4-4.1,0.7c-1.4,0.1-2.9,0.3-4.4,0.4
						c-0.7,0.1-1.5,0.2-2.3,0.2c-0.8,0-1.5,0-2.3,0.1c-1.6,0-3.1,0.1-4.7,0.1c-1.6-0.1-3.2-0.1-4.8-0.2c-1.6-0.1-3.3-0.3-4.9-0.4
						l-2.5-0.2l-2.5-0.3c-1.6-0.2-3.3-0.4-4.9-0.7c-1.6-0.3-3.2-0.6-4.8-0.9c-1.6-0.3-3.2-0.7-4.7-1c-1.5-0.4-3.1-0.7-4.6-1.1
						c-1.5-0.4-2.9-0.8-4.4-1.2c-1.4-0.4-2.8-0.9-4.1-1.3c-2.7-0.8-5.2-1.7-7.5-2.6c-2.3-0.8-4.4-1.7-6.3-2.4
						c-0.9-0.4-1.8-0.7-2.6-1c-0.8-0.3-1.5-0.7-2.2-1c-2.6-1.2-4.1-1.8-4.1-1.8s1.5,0.6,4.2,1.6c0.7,0.3,1.4,0.6,2.2,0.9
						c0.8,0.3,1.7,0.6,2.6,0.9c1.9,0.7,4,1.5,6.3,2.2c2.3,0.7,4.9,1.6,7.6,2.3c1.4,0.4,2.7,0.8,4.2,1.1c1.4,0.3,2.9,0.7,4.4,1
						c1.5,0.4,3,0.6,4.6,0.9c1.5,0.3,3.1,0.6,4.7,0.9c1.6,0.2,3.2,0.5,4.8,0.7c1.6,0.2,3.2,0.3,4.8,0.5l2.4,0.2l2.4,0.1
						c1.6,0.1,3.2,0.2,4.8,0.2c1.6,0,3.2,0,4.7,0c1.6,0,3.1-0.2,4.6-0.2c0.8,0,1.5-0.1,2.2-0.1c0.7-0.1,1.5-0.2,2.2-0.3
						c1.4-0.2,2.9-0.4,4.2-0.5c1.4-0.3,2.7-0.5,4-0.8c0.6-0.1,1.3-0.3,1.9-0.4c0.6-0.2,1.2-0.3,1.8-0.5c1.2-0.3,2.3-0.6,3.3-0.9
						c1.1-0.3,2-0.7,2.9-1c1.8-0.7,3.4-1.2,4.7-1.8c2.6-1.2,4.1-1.9,4.1-1.9L1701.3,1122.8z"/>
				</g>
				<g>
					<path d="M1700.3,1103.5c0,0,0.5,3.6,0.9,9.8c0.1,1.6,0.2,3.3,0.4,5.2c0.1,1.9,0.3,3.9,0.3,6.1c0.2,4.3,0.4,9.2,0.5,14.6
						c0.1,5.3,0.2,11.1,0,17.3c-0.1,6.1-0.6,12.6-1.1,19.3c-0.5,6.7-0.8,13.6-0.7,20.6c0,7,0.3,14.1,0.7,21.3
						c0.4,7.1,0.8,14.3,1,21.3c0.2,7,0.3,13.9,0.4,20.6c0.1,6.7,0.1,13.1,0,19.3c-0.1,6.1-0.3,11.9-0.5,17.3
						c-0.2,5.3-0.5,10.2-0.7,14.6c-0.2,4.3-0.5,8.1-0.8,11.2c-0.2,3.1-0.5,5.6-0.7,7.2c-0.2,1.7-0.3,2.6-0.3,2.6l-0.6,0
						c0,0-0.1-0.9-0.3-2.6c-0.2-1.7-0.4-4.1-0.6-7.2c-0.2-3.1-0.5-6.9-0.7-11.2c-0.3-4.3-0.5-9.2-0.7-14.6
						c-0.2-5.3-0.4-11.1-0.4-17.3c-0.1-6.1-0.1-12.6,0.1-19.3c0.1-6.7,0.3-13.6,0.5-20.6c0.2-7,0.6-14.1,1.1-21.3
						c0.4-7.1,0.8-14.2,0.8-21.3c0.1-7-0.2-13.9-0.6-20.6c-0.4-6.7-0.9-13.1-1-19.3c-0.1-6.1,0-11.9,0.1-17.3
						c0.1-5.3,0.3-10.2,0.6-14.6c0.1-2.2,0.2-4.2,0.4-6.1c0.1-1.9,0.2-3.6,0.4-5.2c0.5-6.2,1-9.8,1-9.8L1700.3,1103.5z"/>
				</g>
				<g>
					<path d="M1698.2,1455.5c0,0-0.1-0.7-0.3-2.1c-0.1-1.3-0.4-3.3-0.6-5.8c-0.1-1.3-0.2-2.6-0.3-4.1c-0.1-1.5-0.2-3.1-0.3-4.9
						c-0.2-3.5-0.3-7.4-0.5-11.7c0-4.3-0.2-8.9-0.1-13.9c0.1-4.9,0.5-10.1,0.9-15.5c0.4-5.4,0.6-10.9,0.6-16.5
						c0-5.6-0.2-11.3-0.6-17.1c-0.3-5.7-0.7-11.4-0.8-17.1c-0.1-5.6-0.2-11.2-0.4-16.5c-0.1-5.4-0.1-10.5,0-15.5
						c0.1-4.9,0.3-9.6,0.5-13.9c0.2-4.3,0.4-8.2,0.7-11.7c0.2-3.5,0.5-6.5,0.7-9c0.2-2.5,0.4-4.5,0.6-5.8c0.2-1.3,0.3-2.1,0.3-2.1
						l0.5,0c0,0,0.1,0.7,0.2,2.1c0.1,1.3,0.3,3.3,0.4,5.8c0.2,2.5,0.4,5.5,0.6,9c0.2,3.5,0.4,7.4,0.5,11.7c0.1,4.3,0.3,8.9,0.3,13.8
						c0.1,4.9,0.1,10.1-0.1,15.5c-0.1,5.4-0.3,10.9-0.4,16.5c-0.1,5.6-0.5,11.3-0.9,17.1c-0.4,5.7-0.6,11.4-0.6,17.1
						c-0.1,5.6,0.2,11.2,0.6,16.5c0.4,5.4,0.8,10.5,0.9,15.5c0.1,4.9,0,9.6-0.1,13.8c-0.1,4.3-0.3,8.2-0.5,11.7
						c-0.1,1.7-0.2,3.4-0.3,4.9c-0.1,1.5-0.2,2.9-0.3,4.1c-0.2,2.5-0.4,4.5-0.6,5.8c-0.2,1.3-0.3,2.1-0.3,2.1H1698.2z"/>
				</g>
				<g>
					<path d="M1698.8,1426c0,0,0.1,0.6,0.2,1.8c0.1,1.2,0.3,2.9,0.5,5.1c0.2,2.2,0.3,4.9,0.3,7.9c0,3.1,0,6.5-0.2,10.3
						c-0.2,3.8-0.5,7.9-1.1,12.2c-0.6,4.3-1.6,8.8-2.6,13.4c-0.5,2.3-1.1,4.6-1.7,7c-0.6,2.3-1.1,4.7-1.3,7.2
						c-0.2,2.4-0.2,4.9,0,7.4c0.2,2.5,0.8,4.9,1.2,7.4c0.5,2.5,0.9,4.9,1.4,7.4c0.4,2.5,0.8,4.9,1.2,7.4c0.8,4.9,1.4,9.7,2.1,14.4
						c0.3,2.3,0.6,4.6,0.9,6.9c0.3,2.3,0.5,4.5,0.7,6.6c0.2,2.2,0.4,4.2,0.5,6.3c0.1,2,0.3,4,0.4,5.9c0.2,3.8,0.4,7.2,0.4,10.3
						c0.1,3.1,0.1,5.7,0.1,7.9c0,4.4-0.1,6.9-0.1,6.9l-0.3,0c0,0-0.1-0.6-0.2-1.8c-0.1-1.2-0.3-2.9-0.6-5.1
						c-0.2-2.2-0.5-4.8-0.9-7.9c-0.3-3-0.7-6.5-1.2-10.2c-0.4-3.7-0.9-7.8-1.4-12c-0.3-2.1-0.5-4.3-0.7-6.6
						c-0.2-2.2-0.5-4.5-0.8-6.9c-0.5-4.7-1.1-9.5-1.6-14.4c-0.3-2.5-0.6-4.9-0.8-7.4c-0.3-2.5-0.5-5-0.8-7.5c-0.3-2.5-0.6-5-0.7-7.5
						c-0.1-2.5,0-5,0.2-7.5c0.1-1.2,0.3-2.5,0.5-3.7c0.2-1.2,0.5-2.4,0.7-3.6c0.5-2.4,0.8-4.7,1.2-7.1c0.7-4.6,1.1-9.2,1.6-13.4
						c0.5-4.3,0.9-8.3,1.2-12c0.4-3.7,0.5-7.2,0.8-10.2c0.2-3,0.3-5.7,0.4-7.9c0.2-4.4,0.3-6.9,0.3-6.9L1698.8,1426z"/>
				</g>
				<g>
					<path d="M1700.6,1428.5c0,0,0,0.6,0.1,1.7c0,1.1,0.1,2.8,0.2,4.9c0.2,4.2,0.5,10.2,1.1,17.3c0.3,3.6,0.7,7.4,1.1,11.5
						c0.4,4.1,0.8,8.4,1.4,12.9c0.3,2.2,0.6,4.5,1,6.8c0.4,2.3,1,4.5,1.4,6.9c0.9,4.7,1.1,9.6,0.7,14.5c-0.1,2.4-0.2,4.8-0.3,7.2
						c-0.1,2.4-0.3,4.8-0.4,7.1c-0.3,4.7-0.5,9.4-0.8,13.9c-0.1,2.3-0.3,4.5-0.4,6.6c-0.1,2.2-0.3,4.3-0.4,6.3
						c-0.3,4.1-0.6,8-0.9,11.6c-0.3,3.6-0.6,6.9-0.9,9.8c-0.3,2.9-0.5,5.5-0.7,7.6c-0.2,2.1-0.4,3.7-0.5,4.9
						c-0.1,1.1-0.2,1.7-0.2,1.7l-0.3,0c0,0,0-0.6-0.1-1.7c0-1.1-0.1-2.8-0.1-4.9c0-2.1,0-4.7,0-7.6c0-2.9,0.1-6.2,0.1-9.9
						c0.1-3.6,0.2-7.5,0.5-11.7c0.1-2.1,0.2-4.2,0.4-6.4c0.2-2.2,0.3-4.4,0.5-6.6c0.4-4.5,0.8-9.1,1.2-13.9c0.3-2.4,0.5-4.7,0.8-7.1
						c0.3-2.4,0.6-4.8,0.9-7.2c0.3-2.4,0.6-4.7,0.6-7.1c0-2.4-0.2-4.7-0.6-7c-0.9-4.6-2.1-9.2-3.1-13.6c-1-4.4-1.9-8.7-2.4-12.9
						c-0.5-4.1-0.9-8-1-11.7c-0.2-3.6-0.2-7-0.1-9.9c0-1.5,0.1-2.9,0.1-4.1c0.1-1.3,0.1-2.4,0.2-3.5c0.2-2.1,0.3-3.8,0.4-4.9
						c0.1-1.1,0.2-1.7,0.2-1.7L1700.6,1428.5z"/>
				</g>
				<g>
					<path d="M1708.8,471.3c0,0,0,5.9-0.1,16.3c0,2.6,0,5.5-0.1,8.6c0,3.1,0,6.5,0,10.1c0,7.2,0,15.4,0.1,24.3
						c0.1,8.9,0.2,18.5,0.4,28.7c0.2,10.2,0.4,20.9,0.5,32c0.2,11.1,0.5,22.6,0.7,34.3c0.3,11.7,0.6,23.5,0.8,35.4
						c0.3,11.9,0.6,23.7,0.9,35.4c0.3,11.7,0.5,23.2,0.7,34.3c0.1,11.1,0.2,21.9,0.1,32.1c0,10.2-0.2,19.8-0.4,28.7
						c0,4.4-0.2,8.7-0.4,12.8c-0.2,4.1-0.3,7.9-0.4,11.5c-0.4,7.2-0.6,13.5-1,18.7c-0.4,5.2-0.7,9.2-0.9,12
						c-0.2,2.8-0.4,4.2-0.4,4.2l-0.4,0c0,0,0-1.5,0.1-4.3c0.1-2.8,0.1-6.9,0.2-12c0.1-2.6,0-5.5,0-8.6c0-3.1,0.1-6.5,0.1-10.1
						c0-7.2-0.1-15.4-0.1-24.3c-0.1-8.9-0.1-18.5-0.3-28.7c-0.1-10.2-0.3-20.9-0.4-32c-0.2-22.2-0.4-45.9-0.6-69.6
						c-0.1-11.9-0.3-23.7-0.4-35.4c-0.1-11.7-0.2-23.2-0.3-34.3c-0.1-11.1-0.1-21.9-0.1-32.1c0-10.2,0.1-19.8,0.1-28.7
						c0-8.9,0.2-17,0.3-24.3c0.1-3.6,0.1-7,0.1-10.1c0.1-3.1,0.1-6,0.2-8.6c0.2-10.4,0.4-16.3,0.4-16.3L1708.8,471.3z"/>
				</g>
				<g>
					<path d="M1632.7,534.8c0,0-0.7,0.2-2.1,0.7c-1.4,0.4-3.4,1.1-6.1,1.8c-2.6,0.8-5.8,1.8-9.4,2.9c-1.8,0.6-3.7,1.2-5.7,1.9
						c-2,0.7-4,1.6-5.9,2.7c-1.8,1.1-3.6,2.7-3.3,4.4c0.1,0.9,0.6,1.9,1.2,2.8c0.7,0.9,1.6,2,2.4,3c3.4,4.3,6.4,9.1,9.5,14.1
						c3,5,6.1,10.2,9.2,15.5c1.6,2.6,3.2,5.3,4.8,7.9c0.8,1.3,1.6,2.6,2.5,4c0.8,1.3,1.7,2.6,2.4,4.1c1.5,2.8,2.6,5.9,3.2,9
						c0.3,1.6,0.5,3.2,0.6,4.8c0.1,1.6,0,3.1,0.1,4.7c0.1,6.1,0.5,12.1,0.8,17.9c0.2,2.9,0.3,5.8,0.3,8.6c0,2.8,0,5.6-0.3,8.4
						c-0.3,2.7-0.7,5.4-1.5,7.9c-0.8,2.5-1.9,4.9-3.5,6.9c-0.7,1-1.6,1.9-2.5,2.7c-0.4,0.4-0.9,0.7-1.4,1.1c-0.5,0.4-1,0.7-1.6,0.9
						c-0.6,0.3-1.1,0.4-1.7,0.6c-0.5,0.1-1.1,0.2-1.6,0.3c-0.5,0.1-1,0.1-1.6,0.2c-0.5,0-1.1,0.1-1.5,0.1c-4,0-7.3-0.9-9.9-1.9
						c-2.6-1-4.5-2-5.8-2.8c-1.3-0.8-1.9-1.3-1.9-1.3l0.2-0.2c0,0,0.7,0.4,2,1c1.3,0.6,3.3,1.4,5.9,2.2c2.6,0.7,5.8,1.3,9.4,1.1
						c0.5,0,0.9-0.1,1.3-0.2c0.4-0.1,0.9-0.1,1.4-0.2c0.5-0.1,0.9-0.2,1.4-0.3c0.4-0.1,0.8-0.3,1.3-0.5c0.4-0.2,0.8-0.5,1.2-0.8
						c0.4-0.3,0.8-0.7,1.2-1c0.7-0.7,1.4-1.5,2-2.4c1.3-1.8,2.2-3.9,2.8-6.2c0.6-2.3,1-4.8,1.2-7.4c0.2-2.6,0.2-5.3,0.2-8.1
						c0-2.8-0.1-5.6-0.2-8.5c-0.2-5.8-0.5-11.9-0.3-18.1c0-1.5,0.1-3.1,0.1-4.6c0-1.5-0.1-3-0.3-4.5c-0.4-3-1.2-5.9-2.5-8.7
						c-0.6-1.4-1.4-2.7-2.1-4.1c-0.7-1.4-1.5-2.7-2.2-4.1c-1.5-2.7-3.1-5.4-4.6-8c-3.1-5.3-6.4-10.3-9.8-15.1
						c-1.7-2.4-3.4-4.7-5.1-6.9c-1.7-2.2-3.4-4.4-5.1-6.4c-0.9-1-1.7-2-2.6-3.1c-0.8-1.1-1.6-2.5-1.7-4.2c-0.1-0.8,0.1-1.7,0.3-2.4
						c0.3-0.7,0.7-1.4,1.2-1.9c1-1.1,2.1-1.8,3.1-2.5c2.2-1.2,4.3-2,6.4-2.7c2.1-0.7,4-1.2,5.9-1.7c3.7-0.9,6.9-1.6,9.6-2.2
						c2.7-0.5,4.8-0.9,6.2-1.2c1.4-0.3,2.2-0.4,2.2-0.4L1632.7,534.8z"/>
				</g>
				<g>
					<path d="M1772,532.5c0,0,0.8,0.1,2.2,0.4c1.4,0.3,3.5,0.7,6.2,1.3c2.6,0.6,5.8,1.4,9.5,2.6c1.8,0.6,3.7,1.3,5.7,2.2
						c2,0.9,4,2,5.9,3.7c0.9,0.8,1.8,1.9,2.5,3.1c0.7,1.2,1,2.7,1,4.2c0,0.7-0.1,1.4-0.3,2.1c-0.2,0.8-0.3,1.2-0.6,2
						c-0.5,1.4-1.1,2.6-1.7,3.8c-2.8,4.8-6.9,8.7-11,12.8c-4.1,4.1-8.2,8.4-11.8,13.3c-1.8,2.4-3.4,5-4.9,7.7l-1,2
						c-0.3,0.7-0.6,1.4-0.9,2.1c-0.5,1.4-1,2.8-1.3,4.3c-0.6,2.9-0.8,5.9-0.6,8.9c0.2,3,0.4,6.2,0.4,9.2c0.1,6.1-0.2,12.1-0.4,17.9
						c-0.1,2.9-0.2,5.7-0.3,8.5c0,2.7,0,5.4,0.2,8c0.4,5.1,1.6,9.9,4.1,13.4c0.3,0.4,0.6,0.9,1,1.3c0.3,0.4,0.7,0.8,1.1,1.1
						c0.2,0.2,0.4,0.4,0.5,0.5c0.1,0.1,0.4,0.2,0.6,0.4c0.4,0.2,0.9,0.5,1.3,0.6c0.4,0.2,0.9,0.4,1.3,0.5c0.5,0.1,1,0.3,1.4,0.3
						c0.9,0.2,1.8,0.3,2.7,0.4c3.6,0.2,6.8-0.5,9.4-1.1c2.6-0.7,4.5-1.6,5.8-2.2c1.3-0.6,2-1,2-1l0.2,0.2c0,0-0.6,0.5-1.9,1.2
						c-1.3,0.7-3.1,1.8-5.7,2.8c-2.6,1-5.8,1.9-9.8,1.9c-1,0-2-0.1-3-0.2c-0.6-0.1-1-0.2-1.5-0.3c-0.6-0.1-1.1-0.3-1.7-0.5
						c-0.5-0.2-1.1-0.4-1.6-0.7c-0.3-0.1-0.5-0.3-0.8-0.5c-0.3-0.2-0.5-0.4-0.7-0.6c-0.4-0.4-0.9-0.8-1.3-1.2
						c-0.4-0.4-0.8-0.9-1.2-1.4c-1.5-1.9-2.7-4.3-3.5-6.8c-0.8-2.5-1.3-5.1-1.6-7.9c-0.3-2.7-0.4-5.5-0.4-8.3c0-2.8,0.1-5.7,0.3-8.6
						c0.3-5.8,0.7-11.7,0.8-17.8c0-3,0-6-0.1-9.1c-0.1-3.2,0.3-6.4,1.2-9.5c0.9-3.1,2.3-6,4-8.6c1.6-2.6,3.4-5.2,5.3-7.6
						c3.7-4.9,7.8-9.3,11.6-13.6c3.8-4.3,7.5-8.6,9.8-13.1c0.6-1.1,1.1-2.3,1.4-3.4c0.4-1.2,0.7-2.3,0.7-3.3c0.1-2.1-1-3.9-2.5-5.3
						c-1.6-1.4-3.4-2.5-5.2-3.4c-1.8-0.9-3.6-1.7-5.4-2.4c-3.5-1.4-6.6-2.4-9.1-3.3c-2.5-0.9-4.6-1.5-5.9-2
						c-1.4-0.5-2.1-0.7-2.1-0.7L1772,532.5z"/>
				</g>
			</g>
			<g>
				<path d="M1624.3,1438.5c0,0,0.8-0.2,2.1-0.3c0.7-0.1,1.5-0.2,2.4-0.2c0.9-0.1,2-0.1,3.1-0.1c1.1,0,2.4,0,3.7,0.2
					c1.3,0.2,2.6,0.5,4,0.8c1.4,0.3,2.9,0.6,4.3,0.6c1.5,0.1,3,0.1,4.5-0.1c1.5-0.1,3.1-0.2,4.5-0.2c1.5,0,3,0,4.4,0.1
					c2.8,0,5.5,0.4,7.7,0.8c2.3,0.4,4.1,0.8,5.4,1.1c1.3,0.3,2,0.6,2,0.6l0,0.3c0,0-0.8,0.2-2.1,0.3c-1.3,0.2-3.2,0.3-5.5,0.4
					c-2.3,0-4.9,0-7.8-0.3c-1.4-0.2-2.9-0.3-4.4-0.5c-1.5-0.2-3-0.5-4.5-0.8c-1.5-0.3-3-0.6-4.5-0.7c-1.5-0.1-3-0.1-4.4,0
					c-1.4,0.1-2.8,0.3-4.1,0.2c-1.3,0-2.5-0.2-3.7-0.3c-1.1-0.1-2.2-0.3-3.1-0.5c-0.9-0.2-1.7-0.4-2.4-0.5c-1.3-0.3-2-0.6-2-0.6
					L1624.3,1438.5z"/>
			</g>
			<g>
				<path d="M1785,1445.5c0,0-0.7,0.3-2,0.6c-0.7,0.2-1.4,0.4-2.4,0.5c-0.9,0.2-1.9,0.3-3.1,0.5c-1.1,0.1-2.4,0.3-3.7,0.3
					c-1.3,0-2.7-0.1-4.1-0.2c-1.4-0.1-2.9-0.2-4.4,0c-1.5,0.1-3,0.4-4.5,0.7c-1.5,0.3-3,0.6-4.5,0.8c-1.5,0.2-2.9,0.4-4.4,0.5
					c-2.8,0.3-5.5,0.3-7.8,0.3c-2.3-0.1-4.2-0.2-5.5-0.4c-1.3-0.1-2.1-0.3-2.1-0.3l0-0.3c0,0,0.7-0.3,2-0.6c1.3-0.3,3.2-0.7,5.4-1.1
					c2.3-0.3,4.9-0.7,7.7-0.8c1.4,0,2.9-0.1,4.4-0.1c1.5,0,3,0.1,4.5,0.2c1.5,0.1,3,0.2,4.5,0.1c1.5-0.1,2.9-0.3,4.3-0.6
					c1.4-0.3,2.8-0.6,4-0.8c1.3-0.2,2.5-0.2,3.7-0.2c1.1,0,2.2,0,3.1,0.1c0.9,0,1.7,0.1,2.4,0.2c1.3,0.2,2.1,0.3,2.1,0.3
					L1785,1445.5z"/>
			</g>
		</g>
	</g>
</svg>
